M48
; DRILL file {KiCad 5.1.5+dfsg1-2build2} date Mon 05 Jun 2023 14:25:03 BST
; FORMAT={-:-/ absolute / inch / decimal}
; #@! TF.CreationDate,2023-06-05T14:25:03+01:00
; #@! TF.GenerationSoftware,Kicad,Pcbnew,5.1.5+dfsg1-2build2
; #@! TF.FileFunction,Plated,1,2,PTH
FMAT,2
INCH
T1C0.0157
T2C0.0315
T3C0.0394
T4C0.0402
T5C0.0433
%
G90
G05
T1
X7.26Y-6.025
X7.31Y-5.695
X7.39Y-5.43
X7.39Y-6.055
X7.6821Y-5.9617
X7.69Y-5.725
X7.705Y-4.57
X7.705Y-5.48
X7.73Y-5.55
X7.73Y-5.9985
X7.755Y-4.33
X7.765Y-4.88
X7.775Y-5.335
X7.79Y-5.76
X7.805Y-4.73
X7.8215Y-5.275
X7.85Y-4.84
X7.875Y-4.54
X7.8785Y-5.065
X7.88Y-5.375
X7.88Y-6.0271
X7.91Y-4.98
X7.93Y-5.23
X7.935Y-4.485
X7.95Y-5.58
X7.96Y-4.775
X7.97Y-4.24
X8.005Y-4.675
X8.015Y-4.125
X8.04Y-5.045
X8.055Y-4.385
X8.07Y-5.695
X8.25Y-3.995
X8.5356Y-5.3256
X8.54Y-5.15
X8.54Y-5.63
X8.545Y-4.115
X8.555Y-5.02
X8.555Y-5.86
X8.625Y-4.825
X8.625Y-5.685
X8.63Y-5.425
X8.635Y-4.48
X8.675Y-5.595
X8.68Y-5.245
X8.71Y-4.3
X8.715Y-4.72
X8.745Y-4.52
X8.755Y-4.205
X8.845Y-4.34
X8.845Y-4.505
X8.92Y-5.745
X8.9515Y-5.325
X8.975Y-3.9615
X8.98Y-5.245
X8.98Y-5.97
X9.005Y-4.54
X9.0087Y-5.8787
X9.04Y-5.34
X9.055Y-5.96
X9.065Y-5.885
X9.085Y-4.64
X9.085Y-5.49
X9.105Y-4.05
X9.1181Y-5.536
X9.31Y-5.145
X9.32Y-6.01
X9.36Y-5.05
X9.36Y-6.06
X9.405Y-3.78
X9.405Y-4.955
X9.42Y-6.0
X9.45Y-5.56
X9.465Y-4.835
X9.49Y-4.5
X9.505Y-4.74
X9.56Y-3.71
X9.575Y-3.9
X9.915Y-5.835
X9.93Y-5.535
X9.93Y-5.67
X10.125Y-5.035
X10.13Y-5.325
X10.145Y-5.485
X10.15Y-5.5889
X10.165Y-5.91
X10.17Y-5.64
X10.33Y-5.53
X10.335Y-5.435
X10.49Y-5.4535
X10.515Y-5.185
X10.655Y-5.59
X10.72Y-5.25
X10.785Y-5.4
X10.82Y-4.94
X10.83Y-5.9
X10.835Y-5.075
X10.92Y-5.46
X10.93Y-5.06
X10.985Y-4.725
X11.01Y-4.905
X11.075Y-4.84
X11.145Y-5.09
X11.285Y-5.215
X11.49Y-4.83
X11.595Y-5.46
X11.715Y-5.12
T2
X10.54Y-5.46
X10.64Y-5.46
X10.74Y-5.46
X9.22Y-3.94
X9.22Y-4.04
X9.22Y-4.14
X9.22Y-4.24
X9.22Y-4.34
X9.22Y-4.44
X9.22Y-4.54
X9.22Y-4.64
X9.22Y-4.74
X9.22Y-4.84
X9.22Y-4.94
X9.22Y-5.04
X9.22Y-5.14
X9.22Y-5.24
X9.22Y-5.34
X9.22Y-5.44
X9.22Y-5.54
X9.22Y-5.64
X9.22Y-5.74
X9.22Y-5.84
X9.82Y-3.94
X9.82Y-4.04
X9.82Y-4.14
X9.82Y-4.24
X9.82Y-4.34
X9.82Y-4.44
X9.82Y-4.54
X9.82Y-4.64
X9.82Y-4.74
X9.82Y-4.84
X9.82Y-4.94
X9.82Y-5.04
X9.82Y-5.14
X9.82Y-5.24
X9.82Y-5.34
X9.82Y-5.44
X9.82Y-5.54
X9.82Y-5.64
X9.82Y-5.74
X9.82Y-5.84
X11.3Y-5.46
X11.4Y-5.46
X11.5Y-5.46
T3
X11.0Y-4.05
X11.0Y-4.15
X11.0Y-4.25
X11.0Y-4.35
X7.33Y-5.01
X7.33Y-5.11
X7.33Y-5.21
T4
X7.63Y-3.93
X7.63Y-4.03
X7.63Y-4.13
X7.63Y-4.23
X7.63Y-4.33
X7.63Y-4.43
X7.63Y-4.53
X7.63Y-4.63
X7.63Y-4.73
X7.63Y-4.83
X7.63Y-4.93
X7.63Y-5.03
X7.63Y-5.13
X7.63Y-5.23
X7.63Y-5.33
X7.63Y-5.43
X7.63Y-5.53
X7.63Y-5.63
X7.63Y-5.73
X7.63Y-5.83
X7.88Y-5.8209
X7.98Y-5.8209
X8.08Y-5.8209
X8.33Y-3.93
X8.33Y-4.03
X8.33Y-4.13
X8.33Y-4.23
X8.33Y-4.33
X8.33Y-4.43
X8.33Y-4.53
X8.33Y-4.63
X8.33Y-4.73
X8.33Y-4.83
X8.33Y-4.93
X8.33Y-5.03
X8.33Y-5.13
X8.33Y-5.23
X8.33Y-5.33
X8.33Y-5.43
X8.33Y-5.53
X8.33Y-5.63
X8.33Y-5.73
X8.33Y-5.83
T5
X11.3Y-4.96
X11.4Y-4.96
X11.5Y-4.96
X10.54Y-4.94
X10.64Y-4.94
X10.74Y-4.94
T0
M30
