G04 #@! TF.GenerationSoftware,KiCad,Pcbnew,5.1.5+dfsg1-2build2*
G04 #@! TF.CreationDate,2023-06-05T14:25:05+01:00*
G04 #@! TF.ProjectId,dumper_3780,64756d70-6572-45f3-9337-38302e6b6963,rev?*
G04 #@! TF.SameCoordinates,Original*
G04 #@! TF.FileFunction,Legend,Top*
G04 #@! TF.FilePolarity,Positive*
%FSLAX46Y46*%
G04 Gerber Fmt 4.6, Leading zero omitted, Abs format (unit mm)*
G04 Created by KiCad (PCBNEW 5.1.5+dfsg1-2build2) date 2023-06-05 14:25:05*
%MOMM*%
%LPD*%
G04 APERTURE LIST*
%ADD10C,0.150000*%
%ADD11C,0.120000*%
G04 APERTURE END LIST*
D10*
X183142000Y-130682904D02*
X183094380Y-130778142D01*
X183094380Y-130921000D01*
X183142000Y-131063857D01*
X183237238Y-131159095D01*
X183332476Y-131206714D01*
X183522952Y-131254333D01*
X183665809Y-131254333D01*
X183856285Y-131206714D01*
X183951523Y-131159095D01*
X184046761Y-131063857D01*
X184094380Y-130921000D01*
X184094380Y-130825761D01*
X184046761Y-130682904D01*
X183999142Y-130635285D01*
X183665809Y-130635285D01*
X183665809Y-130825761D01*
X184094380Y-130206714D02*
X183094380Y-130206714D01*
X184094380Y-129635285D01*
X183094380Y-129635285D01*
X184094380Y-129159095D02*
X183094380Y-129159095D01*
X183094380Y-128921000D01*
X183142000Y-128778142D01*
X183237238Y-128682904D01*
X183332476Y-128635285D01*
X183522952Y-128587666D01*
X183665809Y-128587666D01*
X183856285Y-128635285D01*
X183951523Y-128682904D01*
X184046761Y-128778142D01*
X184094380Y-128921000D01*
X184094380Y-129159095D01*
X183554952Y-135659761D02*
X183697809Y-135707380D01*
X183935904Y-135707380D01*
X184031142Y-135659761D01*
X184078761Y-135612142D01*
X184126380Y-135516904D01*
X184126380Y-135421666D01*
X184078761Y-135326428D01*
X184031142Y-135278809D01*
X183935904Y-135231190D01*
X183745428Y-135183571D01*
X183650190Y-135135952D01*
X183602571Y-135088333D01*
X183554952Y-134993095D01*
X183554952Y-134897857D01*
X183602571Y-134802619D01*
X183650190Y-134755000D01*
X183745428Y-134707380D01*
X183983523Y-134707380D01*
X184126380Y-134755000D01*
X184459714Y-134707380D02*
X184697809Y-135707380D01*
X184888285Y-134993095D01*
X185078761Y-135707380D01*
X185316857Y-134707380D01*
X185697809Y-135707380D02*
X185697809Y-134707380D01*
X185935904Y-134707380D01*
X186078761Y-134755000D01*
X186174000Y-134850238D01*
X186221619Y-134945476D01*
X186269238Y-135135952D01*
X186269238Y-135278809D01*
X186221619Y-135469285D01*
X186174000Y-135564523D01*
X186078761Y-135659761D01*
X185935904Y-135707380D01*
X185697809Y-135707380D01*
X186697809Y-135707380D02*
X186697809Y-134707380D01*
X187364476Y-134707380D02*
X187554952Y-134707380D01*
X187650190Y-134755000D01*
X187745428Y-134850238D01*
X187793047Y-135040714D01*
X187793047Y-135374047D01*
X187745428Y-135564523D01*
X187650190Y-135659761D01*
X187554952Y-135707380D01*
X187364476Y-135707380D01*
X187269238Y-135659761D01*
X187174000Y-135564523D01*
X187126380Y-135374047D01*
X187126380Y-135040714D01*
X187174000Y-134850238D01*
X187269238Y-134755000D01*
X187364476Y-134707380D01*
X183666095Y-125499761D02*
X183808952Y-125547380D01*
X184047047Y-125547380D01*
X184142285Y-125499761D01*
X184189904Y-125452142D01*
X184237523Y-125356904D01*
X184237523Y-125261666D01*
X184189904Y-125166428D01*
X184142285Y-125118809D01*
X184047047Y-125071190D01*
X183856571Y-125023571D01*
X183761333Y-124975952D01*
X183713714Y-124928333D01*
X183666095Y-124833095D01*
X183666095Y-124737857D01*
X183713714Y-124642619D01*
X183761333Y-124595000D01*
X183856571Y-124547380D01*
X184094666Y-124547380D01*
X184237523Y-124595000D01*
X184570857Y-124547380D02*
X184808952Y-125547380D01*
X184999428Y-124833095D01*
X185189904Y-125547380D01*
X185428000Y-124547380D01*
X186380380Y-125452142D02*
X186332761Y-125499761D01*
X186189904Y-125547380D01*
X186094666Y-125547380D01*
X185951809Y-125499761D01*
X185856571Y-125404523D01*
X185808952Y-125309285D01*
X185761333Y-125118809D01*
X185761333Y-124975952D01*
X185808952Y-124785476D01*
X185856571Y-124690238D01*
X185951809Y-124595000D01*
X186094666Y-124547380D01*
X186189904Y-124547380D01*
X186332761Y-124595000D01*
X186380380Y-124642619D01*
X187285142Y-125547380D02*
X186808952Y-125547380D01*
X186808952Y-124547380D01*
X187618476Y-125547380D02*
X187618476Y-124547380D01*
X188189904Y-125547380D02*
X187761333Y-124975952D01*
X188189904Y-124547380D02*
X187618476Y-125118809D01*
X282472809Y-148154380D02*
X282472809Y-147154380D01*
X282806142Y-147868666D01*
X283139476Y-147154380D01*
X283139476Y-148154380D01*
X283615666Y-148154380D02*
X283615666Y-147154380D01*
X284187095Y-148154380D02*
X283758523Y-147582952D01*
X284187095Y-147154380D02*
X283615666Y-147725809D01*
X284520428Y-147154380D02*
X285139476Y-147154380D01*
X284806142Y-147535333D01*
X284949000Y-147535333D01*
X285044238Y-147582952D01*
X285091857Y-147630571D01*
X285139476Y-147725809D01*
X285139476Y-147963904D01*
X285091857Y-148059142D01*
X285044238Y-148106761D01*
X284949000Y-148154380D01*
X284663285Y-148154380D01*
X284568047Y-148106761D01*
X284520428Y-148059142D01*
X285710904Y-147582952D02*
X285615666Y-147535333D01*
X285568047Y-147487714D01*
X285520428Y-147392476D01*
X285520428Y-147344857D01*
X285568047Y-147249619D01*
X285615666Y-147202000D01*
X285710904Y-147154380D01*
X285901380Y-147154380D01*
X285996619Y-147202000D01*
X286044238Y-147249619D01*
X286091857Y-147344857D01*
X286091857Y-147392476D01*
X286044238Y-147487714D01*
X285996619Y-147535333D01*
X285901380Y-147582952D01*
X285710904Y-147582952D01*
X285615666Y-147630571D01*
X285568047Y-147678190D01*
X285520428Y-147773428D01*
X285520428Y-147963904D01*
X285568047Y-148059142D01*
X285615666Y-148106761D01*
X285710904Y-148154380D01*
X285901380Y-148154380D01*
X285996619Y-148106761D01*
X286044238Y-148059142D01*
X286091857Y-147963904D01*
X286091857Y-147773428D01*
X286044238Y-147678190D01*
X285996619Y-147630571D01*
X285901380Y-147582952D01*
X286425190Y-147154380D02*
X287091857Y-147154380D01*
X286663285Y-148154380D01*
X287663285Y-147154380D02*
X287758523Y-147154380D01*
X287853761Y-147202000D01*
X287901380Y-147249619D01*
X287949000Y-147344857D01*
X287996619Y-147535333D01*
X287996619Y-147773428D01*
X287949000Y-147963904D01*
X287901380Y-148059142D01*
X287853761Y-148106761D01*
X287758523Y-148154380D01*
X287663285Y-148154380D01*
X287568047Y-148106761D01*
X287520428Y-148059142D01*
X287472809Y-147963904D01*
X287425190Y-147773428D01*
X287425190Y-147535333D01*
X287472809Y-147344857D01*
X287520428Y-147249619D01*
X287568047Y-147202000D01*
X287663285Y-147154380D01*
X289758523Y-148154380D02*
X289425190Y-147678190D01*
X289187095Y-148154380D02*
X289187095Y-147154380D01*
X289568047Y-147154380D01*
X289663285Y-147202000D01*
X289710904Y-147249619D01*
X289758523Y-147344857D01*
X289758523Y-147487714D01*
X289710904Y-147582952D01*
X289663285Y-147630571D01*
X289568047Y-147678190D01*
X289187095Y-147678190D01*
X290377571Y-147154380D02*
X290568047Y-147154380D01*
X290663285Y-147202000D01*
X290758523Y-147297238D01*
X290806142Y-147487714D01*
X290806142Y-147821047D01*
X290758523Y-148011523D01*
X290663285Y-148106761D01*
X290568047Y-148154380D01*
X290377571Y-148154380D01*
X290282333Y-148106761D01*
X290187095Y-148011523D01*
X290139476Y-147821047D01*
X290139476Y-147487714D01*
X290187095Y-147297238D01*
X290282333Y-147202000D01*
X290377571Y-147154380D01*
X291234714Y-148154380D02*
X291234714Y-147154380D01*
X291568047Y-147868666D01*
X291901380Y-147154380D01*
X291901380Y-148154380D01*
X293139476Y-148154380D02*
X293139476Y-147154380D01*
X293377571Y-147154380D01*
X293520428Y-147202000D01*
X293615666Y-147297238D01*
X293663285Y-147392476D01*
X293710904Y-147582952D01*
X293710904Y-147725809D01*
X293663285Y-147916285D01*
X293615666Y-148011523D01*
X293520428Y-148106761D01*
X293377571Y-148154380D01*
X293139476Y-148154380D01*
X294139476Y-147154380D02*
X294139476Y-147963904D01*
X294187095Y-148059142D01*
X294234714Y-148106761D01*
X294329952Y-148154380D01*
X294520428Y-148154380D01*
X294615666Y-148106761D01*
X294663285Y-148059142D01*
X294710904Y-147963904D01*
X294710904Y-147154380D01*
X295187095Y-148154380D02*
X295187095Y-147487714D01*
X295187095Y-147582952D02*
X295234714Y-147535333D01*
X295329952Y-147487714D01*
X295472809Y-147487714D01*
X295568047Y-147535333D01*
X295615666Y-147630571D01*
X295615666Y-148154380D01*
X295615666Y-147630571D02*
X295663285Y-147535333D01*
X295758523Y-147487714D01*
X295901380Y-147487714D01*
X295996619Y-147535333D01*
X296044238Y-147630571D01*
X296044238Y-148154380D01*
X296520428Y-147487714D02*
X296520428Y-148487714D01*
X296520428Y-147535333D02*
X296615666Y-147487714D01*
X296806142Y-147487714D01*
X296901380Y-147535333D01*
X296949000Y-147582952D01*
X296996619Y-147678190D01*
X296996619Y-147963904D01*
X296949000Y-148059142D01*
X296901380Y-148106761D01*
X296806142Y-148154380D01*
X296615666Y-148154380D01*
X296520428Y-148106761D01*
X297806142Y-148106761D02*
X297710904Y-148154380D01*
X297520428Y-148154380D01*
X297425190Y-148106761D01*
X297377571Y-148011523D01*
X297377571Y-147630571D01*
X297425190Y-147535333D01*
X297520428Y-147487714D01*
X297710904Y-147487714D01*
X297806142Y-147535333D01*
X297853761Y-147630571D01*
X297853761Y-147725809D01*
X297377571Y-147821047D01*
X298282333Y-148154380D02*
X298282333Y-147487714D01*
X298282333Y-147678190D02*
X298329952Y-147582952D01*
X298377571Y-147535333D01*
X298472809Y-147487714D01*
X298568047Y-147487714D01*
X278758523Y-148804380D02*
X278758523Y-149518666D01*
X278710904Y-149661523D01*
X278615666Y-149756761D01*
X278472809Y-149804380D01*
X278377571Y-149804380D01*
X279663285Y-149137714D02*
X279663285Y-149804380D01*
X279234714Y-149137714D02*
X279234714Y-149661523D01*
X279282333Y-149756761D01*
X279377571Y-149804380D01*
X279520428Y-149804380D01*
X279615666Y-149756761D01*
X279663285Y-149709142D01*
X280139476Y-149137714D02*
X280139476Y-149804380D01*
X280139476Y-149232952D02*
X280187095Y-149185333D01*
X280282333Y-149137714D01*
X280425190Y-149137714D01*
X280520428Y-149185333D01*
X280568047Y-149280571D01*
X280568047Y-149804380D01*
X281425190Y-149756761D02*
X281329952Y-149804380D01*
X281139476Y-149804380D01*
X281044238Y-149756761D01*
X280996619Y-149661523D01*
X280996619Y-149280571D01*
X281044238Y-149185333D01*
X281139476Y-149137714D01*
X281329952Y-149137714D01*
X281425190Y-149185333D01*
X281472809Y-149280571D01*
X281472809Y-149375809D01*
X280996619Y-149471047D01*
X282615666Y-148899619D02*
X282663285Y-148852000D01*
X282758523Y-148804380D01*
X282996619Y-148804380D01*
X283091857Y-148852000D01*
X283139476Y-148899619D01*
X283187095Y-148994857D01*
X283187095Y-149090095D01*
X283139476Y-149232952D01*
X282568047Y-149804380D01*
X283187095Y-149804380D01*
X283806142Y-148804380D02*
X283901380Y-148804380D01*
X283996619Y-148852000D01*
X284044238Y-148899619D01*
X284091857Y-148994857D01*
X284139476Y-149185333D01*
X284139476Y-149423428D01*
X284091857Y-149613904D01*
X284044238Y-149709142D01*
X283996619Y-149756761D01*
X283901380Y-149804380D01*
X283806142Y-149804380D01*
X283710904Y-149756761D01*
X283663285Y-149709142D01*
X283615666Y-149613904D01*
X283568047Y-149423428D01*
X283568047Y-149185333D01*
X283615666Y-148994857D01*
X283663285Y-148899619D01*
X283710904Y-148852000D01*
X283806142Y-148804380D01*
X284520428Y-148899619D02*
X284568047Y-148852000D01*
X284663285Y-148804380D01*
X284901380Y-148804380D01*
X284996619Y-148852000D01*
X285044238Y-148899619D01*
X285091857Y-148994857D01*
X285091857Y-149090095D01*
X285044238Y-149232952D01*
X284472809Y-149804380D01*
X285091857Y-149804380D01*
X285425190Y-148804380D02*
X286044238Y-148804380D01*
X285710904Y-149185333D01*
X285853761Y-149185333D01*
X285949000Y-149232952D01*
X285996619Y-149280571D01*
X286044238Y-149375809D01*
X286044238Y-149613904D01*
X285996619Y-149709142D01*
X285949000Y-149756761D01*
X285853761Y-149804380D01*
X285568047Y-149804380D01*
X285472809Y-149756761D01*
X285425190Y-149709142D01*
X287234714Y-149804380D02*
X287234714Y-149137714D01*
X287234714Y-149232952D02*
X287282333Y-149185333D01*
X287377571Y-149137714D01*
X287520428Y-149137714D01*
X287615666Y-149185333D01*
X287663285Y-149280571D01*
X287663285Y-149804380D01*
X287663285Y-149280571D02*
X287710904Y-149185333D01*
X287806142Y-149137714D01*
X287949000Y-149137714D01*
X288044238Y-149185333D01*
X288091857Y-149280571D01*
X288091857Y-149804380D01*
X288949000Y-149756761D02*
X288853761Y-149804380D01*
X288663285Y-149804380D01*
X288568047Y-149756761D01*
X288520428Y-149661523D01*
X288520428Y-149280571D01*
X288568047Y-149185333D01*
X288663285Y-149137714D01*
X288853761Y-149137714D01*
X288949000Y-149185333D01*
X288996619Y-149280571D01*
X288996619Y-149375809D01*
X288520428Y-149471047D01*
X289425190Y-149137714D02*
X289425190Y-149804380D01*
X289425190Y-149232952D02*
X289472809Y-149185333D01*
X289568047Y-149137714D01*
X289710904Y-149137714D01*
X289806142Y-149185333D01*
X289853761Y-149280571D01*
X289853761Y-149804380D01*
X290758523Y-149804380D02*
X290758523Y-149280571D01*
X290710904Y-149185333D01*
X290615666Y-149137714D01*
X290425190Y-149137714D01*
X290329952Y-149185333D01*
X290758523Y-149756761D02*
X290663285Y-149804380D01*
X290425190Y-149804380D01*
X290329952Y-149756761D01*
X290282333Y-149661523D01*
X290282333Y-149566285D01*
X290329952Y-149471047D01*
X290425190Y-149423428D01*
X290663285Y-149423428D01*
X290758523Y-149375809D01*
X291663285Y-149804380D02*
X291663285Y-148804380D01*
X291663285Y-149756761D02*
X291568047Y-149804380D01*
X291377571Y-149804380D01*
X291282333Y-149756761D01*
X291234714Y-149709142D01*
X291187095Y-149613904D01*
X291187095Y-149328190D01*
X291234714Y-149232952D01*
X291282333Y-149185333D01*
X291377571Y-149137714D01*
X291568047Y-149137714D01*
X291663285Y-149185333D01*
X292568047Y-149137714D02*
X292568047Y-149804380D01*
X292139476Y-149137714D02*
X292139476Y-149661523D01*
X292187095Y-149756761D01*
X292282333Y-149804380D01*
X292425190Y-149804380D01*
X292520428Y-149756761D01*
X292568047Y-149709142D01*
X293425190Y-149756761D02*
X293329952Y-149804380D01*
X293139476Y-149804380D01*
X293044238Y-149756761D01*
X292996619Y-149661523D01*
X292996619Y-149280571D01*
X293044238Y-149185333D01*
X293139476Y-149137714D01*
X293329952Y-149137714D01*
X293425190Y-149185333D01*
X293472809Y-149280571D01*
X293472809Y-149375809D01*
X292996619Y-149471047D01*
X294520428Y-149328190D02*
X294472809Y-149280571D01*
X294377571Y-149232952D01*
X294282333Y-149232952D01*
X294187095Y-149280571D01*
X294139476Y-149328190D01*
X294091857Y-149423428D01*
X294091857Y-149518666D01*
X294139476Y-149613904D01*
X294187095Y-149661523D01*
X294282333Y-149709142D01*
X294377571Y-149709142D01*
X294472809Y-149661523D01*
X294520428Y-149613904D01*
X294520428Y-149232952D02*
X294520428Y-149613904D01*
X294568047Y-149661523D01*
X294615666Y-149661523D01*
X294710904Y-149613904D01*
X294758523Y-149518666D01*
X294758523Y-149280571D01*
X294663285Y-149137714D01*
X294520428Y-149042476D01*
X294329952Y-148994857D01*
X294139476Y-149042476D01*
X293996619Y-149137714D01*
X293901380Y-149280571D01*
X293853761Y-149471047D01*
X293901380Y-149661523D01*
X293996619Y-149804380D01*
X294139476Y-149899619D01*
X294329952Y-149947238D01*
X294520428Y-149899619D01*
X294663285Y-149804380D01*
X295615666Y-149137714D02*
X295615666Y-149947238D01*
X295568047Y-150042476D01*
X295520428Y-150090095D01*
X295425190Y-150137714D01*
X295282333Y-150137714D01*
X295187095Y-150090095D01*
X295615666Y-149756761D02*
X295520428Y-149804380D01*
X295329952Y-149804380D01*
X295234714Y-149756761D01*
X295187095Y-149709142D01*
X295139476Y-149613904D01*
X295139476Y-149328190D01*
X295187095Y-149232952D01*
X295234714Y-149185333D01*
X295329952Y-149137714D01*
X295520428Y-149137714D01*
X295615666Y-149185333D01*
X296091857Y-149804380D02*
X296091857Y-149137714D01*
X296091857Y-149232952D02*
X296139476Y-149185333D01*
X296234714Y-149137714D01*
X296377571Y-149137714D01*
X296472809Y-149185333D01*
X296520428Y-149280571D01*
X296520428Y-149804380D01*
X296520428Y-149280571D02*
X296568047Y-149185333D01*
X296663285Y-149137714D01*
X296806142Y-149137714D01*
X296901380Y-149185333D01*
X296949000Y-149280571D01*
X296949000Y-149804380D01*
X297853761Y-149804380D02*
X297853761Y-149280571D01*
X297806142Y-149185333D01*
X297710904Y-149137714D01*
X297520428Y-149137714D01*
X297425190Y-149185333D01*
X297853761Y-149756761D02*
X297758523Y-149804380D01*
X297520428Y-149804380D01*
X297425190Y-149756761D01*
X297377571Y-149661523D01*
X297377571Y-149566285D01*
X297425190Y-149471047D01*
X297520428Y-149423428D01*
X297758523Y-149423428D01*
X297853761Y-149375809D01*
X298329952Y-149804380D02*
X298329952Y-149137714D01*
X298329952Y-148804380D02*
X298282333Y-148852000D01*
X298329952Y-148899619D01*
X298377571Y-148852000D01*
X298329952Y-148804380D01*
X298329952Y-148899619D01*
X298949000Y-149804380D02*
X298853761Y-149756761D01*
X298806142Y-149661523D01*
X298806142Y-148804380D01*
X299329952Y-149709142D02*
X299377571Y-149756761D01*
X299329952Y-149804380D01*
X299282333Y-149756761D01*
X299329952Y-149709142D01*
X299329952Y-149804380D01*
X300234714Y-149756761D02*
X300139476Y-149804380D01*
X299949000Y-149804380D01*
X299853761Y-149756761D01*
X299806142Y-149709142D01*
X299758523Y-149613904D01*
X299758523Y-149328190D01*
X299806142Y-149232952D01*
X299853761Y-149185333D01*
X299949000Y-149137714D01*
X300139476Y-149137714D01*
X300234714Y-149185333D01*
X300806142Y-149804380D02*
X300710904Y-149756761D01*
X300663285Y-149709142D01*
X300615666Y-149613904D01*
X300615666Y-149328190D01*
X300663285Y-149232952D01*
X300710904Y-149185333D01*
X300806142Y-149137714D01*
X300949000Y-149137714D01*
X301044238Y-149185333D01*
X301091857Y-149232952D01*
X301139476Y-149328190D01*
X301139476Y-149613904D01*
X301091857Y-149709142D01*
X301044238Y-149756761D01*
X300949000Y-149804380D01*
X300806142Y-149804380D01*
X301568047Y-149804380D02*
X301568047Y-149137714D01*
X301568047Y-149232952D02*
X301615666Y-149185333D01*
X301710904Y-149137714D01*
X301853761Y-149137714D01*
X301949000Y-149185333D01*
X301996619Y-149280571D01*
X301996619Y-149804380D01*
X301996619Y-149280571D02*
X302044238Y-149185333D01*
X302139476Y-149137714D01*
X302282333Y-149137714D01*
X302377571Y-149185333D01*
X302425190Y-149280571D01*
X302425190Y-149804380D01*
X288925190Y-150454380D02*
X289258523Y-151454380D01*
X289591857Y-150454380D01*
X290449000Y-151454380D02*
X289877571Y-151454380D01*
X290163285Y-151454380D02*
X290163285Y-150454380D01*
X290068047Y-150597238D01*
X289972809Y-150692476D01*
X289877571Y-150740095D01*
X290877571Y-151359142D02*
X290925190Y-151406761D01*
X290877571Y-151454380D01*
X290829952Y-151406761D01*
X290877571Y-151359142D01*
X290877571Y-151454380D01*
X291544238Y-150454380D02*
X291639476Y-150454380D01*
X291734714Y-150502000D01*
X291782333Y-150549619D01*
X291829952Y-150644857D01*
X291877571Y-150835333D01*
X291877571Y-151073428D01*
X291829952Y-151263904D01*
X291782333Y-151359142D01*
X291734714Y-151406761D01*
X291639476Y-151454380D01*
X291544238Y-151454380D01*
X291449000Y-151406761D01*
X291401380Y-151359142D01*
X291353761Y-151263904D01*
X291306142Y-151073428D01*
X291306142Y-150835333D01*
X291353761Y-150644857D01*
X291401380Y-150549619D01*
X291449000Y-150502000D01*
X291544238Y-150454380D01*
X274828095Y-110244000D02*
X274732857Y-110196380D01*
X274590000Y-110196380D01*
X274447142Y-110244000D01*
X274351904Y-110339238D01*
X274304285Y-110434476D01*
X274256666Y-110624952D01*
X274256666Y-110767809D01*
X274304285Y-110958285D01*
X274351904Y-111053523D01*
X274447142Y-111148761D01*
X274590000Y-111196380D01*
X274685238Y-111196380D01*
X274828095Y-111148761D01*
X274875714Y-111101142D01*
X274875714Y-110767809D01*
X274685238Y-110767809D01*
X275304285Y-111196380D02*
X275304285Y-110196380D01*
X275875714Y-111196380D01*
X275875714Y-110196380D01*
X276351904Y-111196380D02*
X276351904Y-110196380D01*
X276590000Y-110196380D01*
X276732857Y-110244000D01*
X276828095Y-110339238D01*
X276875714Y-110434476D01*
X276923333Y-110624952D01*
X276923333Y-110767809D01*
X276875714Y-110958285D01*
X276828095Y-111053523D01*
X276732857Y-111148761D01*
X276590000Y-111196380D01*
X276351904Y-111196380D01*
X274574095Y-107450000D02*
X274478857Y-107402380D01*
X274336000Y-107402380D01*
X274193142Y-107450000D01*
X274097904Y-107545238D01*
X274050285Y-107640476D01*
X274002666Y-107830952D01*
X274002666Y-107973809D01*
X274050285Y-108164285D01*
X274097904Y-108259523D01*
X274193142Y-108354761D01*
X274336000Y-108402380D01*
X274431238Y-108402380D01*
X274574095Y-108354761D01*
X274621714Y-108307142D01*
X274621714Y-107973809D01*
X274431238Y-107973809D01*
X275050285Y-108402380D02*
X275050285Y-107402380D01*
X275621714Y-108402380D01*
X275621714Y-107402380D01*
X276097904Y-108402380D02*
X276097904Y-107402380D01*
X276336000Y-107402380D01*
X276478857Y-107450000D01*
X276574095Y-107545238D01*
X276621714Y-107640476D01*
X276669333Y-107830952D01*
X276669333Y-107973809D01*
X276621714Y-108164285D01*
X276574095Y-108259523D01*
X276478857Y-108354761D01*
X276336000Y-108402380D01*
X276097904Y-108402380D01*
X274121714Y-105354428D02*
X274883619Y-105354428D01*
X274502666Y-105735380D02*
X274502666Y-104973476D01*
X275216952Y-104735380D02*
X275550285Y-105735380D01*
X275883619Y-104735380D01*
X276693142Y-105735380D02*
X276216952Y-105735380D01*
X276216952Y-104735380D01*
X273248666Y-102322380D02*
X273582000Y-103322380D01*
X273915333Y-102322380D01*
X274582000Y-102798571D02*
X274724857Y-102846190D01*
X274772476Y-102893809D01*
X274820095Y-102989047D01*
X274820095Y-103131904D01*
X274772476Y-103227142D01*
X274724857Y-103274761D01*
X274629619Y-103322380D01*
X274248666Y-103322380D01*
X274248666Y-102322380D01*
X274582000Y-102322380D01*
X274677238Y-102370000D01*
X274724857Y-102417619D01*
X274772476Y-102512857D01*
X274772476Y-102608095D01*
X274724857Y-102703333D01*
X274677238Y-102750952D01*
X274582000Y-102798571D01*
X274248666Y-102798571D01*
X275248666Y-102322380D02*
X275248666Y-103131904D01*
X275296285Y-103227142D01*
X275343904Y-103274761D01*
X275439142Y-103322380D01*
X275629619Y-103322380D01*
X275724857Y-103274761D01*
X275772476Y-103227142D01*
X275820095Y-103131904D01*
X275820095Y-102322380D01*
X276248666Y-103274761D02*
X276391523Y-103322380D01*
X276629619Y-103322380D01*
X276724857Y-103274761D01*
X276772476Y-103227142D01*
X276820095Y-103131904D01*
X276820095Y-103036666D01*
X276772476Y-102941428D01*
X276724857Y-102893809D01*
X276629619Y-102846190D01*
X276439142Y-102798571D01*
X276343904Y-102750952D01*
X276296285Y-102703333D01*
X276248666Y-102608095D01*
X276248666Y-102512857D01*
X276296285Y-102417619D01*
X276343904Y-102370000D01*
X276439142Y-102322380D01*
X276677238Y-102322380D01*
X276820095Y-102370000D01*
D11*
X186182000Y-125924000D02*
X187512000Y-125924000D01*
X187512000Y-125924000D02*
X187512000Y-127254000D01*
X187512000Y-128524000D02*
X187512000Y-133664000D01*
X184852000Y-133664000D02*
X187512000Y-133664000D01*
X184852000Y-128524000D02*
X184852000Y-133664000D01*
X184852000Y-128524000D02*
X187512000Y-128524000D01*
X279400000Y-101540000D02*
X280730000Y-101540000D01*
X280730000Y-101540000D02*
X280730000Y-102870000D01*
X280730000Y-104140000D02*
X280730000Y-111820000D01*
X278070000Y-111820000D02*
X280730000Y-111820000D01*
X278070000Y-104140000D02*
X278070000Y-111820000D01*
X278070000Y-104140000D02*
X280730000Y-104140000D01*
X248268000Y-98746000D02*
X242808000Y-98746000D01*
X248268000Y-149666000D02*
X248268000Y-98746000D01*
X235348000Y-149666000D02*
X248268000Y-149666000D01*
X235348000Y-98746000D02*
X235348000Y-149666000D01*
X240808000Y-98746000D02*
X235348000Y-98746000D01*
X242808000Y-98746000D02*
G75*
G02X240808000Y-98746000I-1000000J0D01*
G01*
X192192000Y-98452000D02*
X213192000Y-98452000D01*
X198992000Y-149452000D02*
X192192000Y-149452000D01*
X192192000Y-101119000D02*
X195199000Y-101119000D01*
X195199000Y-101119000D02*
X195199000Y-98452000D01*
X192192000Y-98452000D02*
X192192000Y-98752000D01*
X192192000Y-100852000D02*
X192192000Y-101252000D01*
X192192000Y-103452000D02*
X192192000Y-103852000D01*
X192192000Y-105952000D02*
X192192000Y-106352000D01*
X192192000Y-108552000D02*
X192192000Y-108952000D01*
X192192000Y-111052000D02*
X192192000Y-111452000D01*
X192192000Y-113552000D02*
X192192000Y-113952000D01*
X192192000Y-116152000D02*
X192192000Y-116552000D01*
X192192000Y-118652000D02*
X192192000Y-119052000D01*
X192192000Y-121252000D02*
X192192000Y-121652000D01*
X192192000Y-123752000D02*
X192192000Y-124152000D01*
X192192000Y-126252000D02*
X192192000Y-126652000D01*
X192192000Y-128852000D02*
X192192000Y-129252000D01*
X192192000Y-131352000D02*
X192192000Y-131752000D01*
X192192000Y-133952000D02*
X192192000Y-134352000D01*
X192192000Y-136452000D02*
X192192000Y-136852000D01*
X192192000Y-139052000D02*
X192192000Y-139452000D01*
X192192000Y-141552000D02*
X192192000Y-141952000D01*
X192192000Y-144052000D02*
X192192000Y-144452000D01*
X192192000Y-146652000D02*
X192192000Y-147052000D01*
X213192000Y-113552000D02*
X213192000Y-113952000D01*
X213192000Y-118652000D02*
X213192000Y-119052000D01*
X213192000Y-126252000D02*
X213192000Y-126652000D01*
X213192000Y-133952000D02*
X213192000Y-134352000D01*
X213192000Y-103452000D02*
X213192000Y-103852000D01*
X213192000Y-100852000D02*
X213192000Y-101252000D01*
X213192000Y-108552000D02*
X213192000Y-108952000D01*
X213192000Y-141552000D02*
X213192000Y-141952000D01*
X213192000Y-146652000D02*
X213192000Y-147052000D01*
X213192000Y-144052000D02*
X213192000Y-144452000D01*
X213192000Y-128852000D02*
X213192000Y-129252000D01*
X213192000Y-123752000D02*
X213192000Y-124152000D01*
X213192000Y-111052000D02*
X213192000Y-111452000D01*
X213192000Y-116152000D02*
X213192000Y-116552000D01*
X213192000Y-136452000D02*
X213192000Y-136852000D01*
X213192000Y-121252000D02*
X213192000Y-121652000D01*
X213192000Y-98452000D02*
X213192000Y-98752000D01*
X213192000Y-105952000D02*
X213192000Y-106352000D01*
X213192000Y-131352000D02*
X213192000Y-131752000D01*
X213192000Y-139052000D02*
X213192000Y-139452000D01*
X213192000Y-149452000D02*
X206392000Y-149452000D01*
X201192000Y-149452000D02*
X201592000Y-149452000D01*
X203792000Y-149452000D02*
X204192000Y-149452000D01*
X258318000Y-139964000D02*
X254868000Y-139964000D01*
X258318000Y-139964000D02*
X260268000Y-139964000D01*
X258318000Y-148834000D02*
X256368000Y-148834000D01*
X258318000Y-148834000D02*
X260268000Y-148834000D01*
X272107000Y-122206000D02*
X272107000Y-123716000D01*
X268406000Y-122206000D02*
X268406000Y-123716000D01*
X265136000Y-123716000D02*
X275376000Y-123716000D01*
X275376000Y-122206000D02*
X275376000Y-126847000D01*
X265136000Y-122206000D02*
X265136000Y-126847000D01*
X265136000Y-126847000D02*
X275376000Y-126847000D01*
X265136000Y-122206000D02*
X275376000Y-122206000D01*
X291411000Y-122714000D02*
X291411000Y-124224000D01*
X287710000Y-122714000D02*
X287710000Y-124224000D01*
X284440000Y-124224000D02*
X294680000Y-124224000D01*
X294680000Y-122714000D02*
X294680000Y-127355000D01*
X284440000Y-122714000D02*
X284440000Y-127355000D01*
X284440000Y-127355000D02*
X294680000Y-127355000D01*
X284440000Y-122714000D02*
X294680000Y-122714000D01*
X265371000Y-140714000D02*
X265371000Y-134374000D01*
X275141000Y-140714000D02*
X275141000Y-134374000D01*
X275141000Y-134374000D02*
X265371000Y-134374000D01*
X275141000Y-140714000D02*
X265371000Y-140714000D01*
X284675000Y-140714000D02*
X284675000Y-134374000D01*
X294445000Y-140714000D02*
X294445000Y-134374000D01*
X294445000Y-134374000D02*
X284675000Y-134374000D01*
X294445000Y-140714000D02*
X284675000Y-140714000D01*
X268578064Y-129186000D02*
X268123936Y-129186000D01*
X268578064Y-130656000D02*
X268123936Y-130656000D01*
X288009064Y-129694000D02*
X287554936Y-129694000D01*
X288009064Y-131164000D02*
X287554936Y-131164000D01*
X273796000Y-128306000D02*
X273796000Y-132206000D01*
X271796000Y-128306000D02*
X271796000Y-132206000D01*
X273796000Y-128306000D02*
X271796000Y-128306000D01*
X293100000Y-128814000D02*
X293100000Y-132714000D01*
X291100000Y-128814000D02*
X291100000Y-132714000D01*
X293100000Y-128814000D02*
X291100000Y-128814000D01*
X258325252Y-137187000D02*
X257802748Y-137187000D01*
X258325252Y-138657000D02*
X257802748Y-138657000D01*
X261520000Y-126357748D02*
X261520000Y-126880252D01*
X262990000Y-126357748D02*
X262990000Y-126880252D01*
X268619248Y-121004000D02*
X269141752Y-121004000D01*
X268619248Y-119534000D02*
X269141752Y-119534000D01*
X276887000Y-126103748D02*
X276887000Y-126626252D01*
X278357000Y-126103748D02*
X278357000Y-126626252D01*
X242047752Y-95277000D02*
X241525248Y-95277000D01*
X242047752Y-96747000D02*
X241525248Y-96747000D01*
X282221000Y-126611748D02*
X282221000Y-127134252D01*
X283691000Y-126611748D02*
X283691000Y-127134252D01*
X287880248Y-143991000D02*
X288402752Y-143991000D01*
X287880248Y-142521000D02*
X288402752Y-142521000D01*
X296699000Y-126865748D02*
X296699000Y-127388252D01*
X298169000Y-126865748D02*
X298169000Y-127388252D01*
D10*
X184451666Y-122642380D02*
X184451666Y-123356666D01*
X184404047Y-123499523D01*
X184308809Y-123594761D01*
X184165952Y-123642380D01*
X184070714Y-123642380D01*
X185451666Y-123642380D02*
X184880238Y-123642380D01*
X185165952Y-123642380D02*
X185165952Y-122642380D01*
X185070714Y-122785238D01*
X184975476Y-122880476D01*
X184880238Y-122928095D01*
X284273904Y-103576380D02*
X284273904Y-102576380D01*
X284512000Y-102576380D01*
X284654857Y-102624000D01*
X284750095Y-102719238D01*
X284797714Y-102814476D01*
X284845333Y-103004952D01*
X284845333Y-103147809D01*
X284797714Y-103338285D01*
X284750095Y-103433523D01*
X284654857Y-103528761D01*
X284512000Y-103576380D01*
X284273904Y-103576380D01*
X285845333Y-103481142D02*
X285797714Y-103528761D01*
X285654857Y-103576380D01*
X285559619Y-103576380D01*
X285416761Y-103528761D01*
X285321523Y-103433523D01*
X285273904Y-103338285D01*
X285226285Y-103147809D01*
X285226285Y-103004952D01*
X285273904Y-102814476D01*
X285321523Y-102719238D01*
X285416761Y-102624000D01*
X285559619Y-102576380D01*
X285654857Y-102576380D01*
X285797714Y-102624000D01*
X285845333Y-102671619D01*
X286273904Y-103576380D02*
X286273904Y-102576380D01*
X286512000Y-102576380D01*
X286654857Y-102624000D01*
X286750095Y-102719238D01*
X286797714Y-102814476D01*
X286845333Y-103004952D01*
X286845333Y-103147809D01*
X286797714Y-103338285D01*
X286750095Y-103433523D01*
X286654857Y-103528761D01*
X286512000Y-103576380D01*
X286273904Y-103576380D01*
X287845333Y-103481142D02*
X287797714Y-103528761D01*
X287654857Y-103576380D01*
X287559619Y-103576380D01*
X287416761Y-103528761D01*
X287321523Y-103433523D01*
X287273904Y-103338285D01*
X287226285Y-103147809D01*
X287226285Y-103004952D01*
X287273904Y-102814476D01*
X287321523Y-102719238D01*
X287416761Y-102624000D01*
X287559619Y-102576380D01*
X287654857Y-102576380D01*
X287797714Y-102624000D01*
X287845333Y-102671619D01*
X288797714Y-103576380D02*
X288226285Y-103576380D01*
X288512000Y-103576380D02*
X288512000Y-102576380D01*
X288416761Y-102719238D01*
X288321523Y-102814476D01*
X288226285Y-102862095D01*
X233299095Y-96988380D02*
X233299095Y-97797904D01*
X233346714Y-97893142D01*
X233394333Y-97940761D01*
X233489571Y-97988380D01*
X233680047Y-97988380D01*
X233775285Y-97940761D01*
X233822904Y-97893142D01*
X233870523Y-97797904D01*
X233870523Y-96988380D01*
X234870523Y-97988380D02*
X234299095Y-97988380D01*
X234584809Y-97988380D02*
X234584809Y-96988380D01*
X234489571Y-97131238D01*
X234394333Y-97226476D01*
X234299095Y-97274095D01*
X201930095Y-123404380D02*
X201930095Y-124213904D01*
X201977714Y-124309142D01*
X202025333Y-124356761D01*
X202120571Y-124404380D01*
X202311047Y-124404380D01*
X202406285Y-124356761D01*
X202453904Y-124309142D01*
X202501523Y-124213904D01*
X202501523Y-123404380D01*
X202930095Y-123499619D02*
X202977714Y-123452000D01*
X203072952Y-123404380D01*
X203311047Y-123404380D01*
X203406285Y-123452000D01*
X203453904Y-123499619D01*
X203501523Y-123594857D01*
X203501523Y-123690095D01*
X203453904Y-123832952D01*
X202882476Y-124404380D01*
X203501523Y-124404380D01*
X206596761Y-150475809D02*
X206711047Y-150513904D01*
X206901523Y-150513904D01*
X206977714Y-150475809D01*
X207015809Y-150437714D01*
X207053904Y-150361523D01*
X207053904Y-150285333D01*
X207015809Y-150209142D01*
X206977714Y-150171047D01*
X206901523Y-150132952D01*
X206749142Y-150094857D01*
X206672952Y-150056761D01*
X206634857Y-150018666D01*
X206596761Y-149942476D01*
X206596761Y-149866285D01*
X206634857Y-149790095D01*
X206672952Y-149752000D01*
X206749142Y-149713904D01*
X206939619Y-149713904D01*
X207053904Y-149752000D01*
X207320571Y-149713904D02*
X207511047Y-150513904D01*
X207663428Y-149942476D01*
X207815809Y-150513904D01*
X208006285Y-149713904D01*
X208311047Y-150513904D02*
X208311047Y-149713904D01*
X208501523Y-149713904D01*
X208615809Y-149752000D01*
X208692000Y-149828190D01*
X208730095Y-149904380D01*
X208768190Y-150056761D01*
X208768190Y-150171047D01*
X208730095Y-150323428D01*
X208692000Y-150399619D01*
X208615809Y-150475809D01*
X208501523Y-150513904D01*
X208311047Y-150513904D01*
X209111047Y-150513904D02*
X209111047Y-149713904D01*
X209644380Y-149713904D02*
X209796761Y-149713904D01*
X209872952Y-149752000D01*
X209949142Y-149828190D01*
X209987238Y-149980571D01*
X209987238Y-150247238D01*
X209949142Y-150399619D01*
X209872952Y-150475809D01*
X209796761Y-150513904D01*
X209644380Y-150513904D01*
X209568190Y-150475809D01*
X209492000Y-150399619D01*
X209453904Y-150247238D01*
X209453904Y-149980571D01*
X209492000Y-149828190D01*
X209568190Y-149752000D01*
X209644380Y-149713904D01*
X195182476Y-150475809D02*
X195296761Y-150513904D01*
X195487238Y-150513904D01*
X195563428Y-150475809D01*
X195601523Y-150437714D01*
X195639619Y-150361523D01*
X195639619Y-150285333D01*
X195601523Y-150209142D01*
X195563428Y-150171047D01*
X195487238Y-150132952D01*
X195334857Y-150094857D01*
X195258666Y-150056761D01*
X195220571Y-150018666D01*
X195182476Y-149942476D01*
X195182476Y-149866285D01*
X195220571Y-149790095D01*
X195258666Y-149752000D01*
X195334857Y-149713904D01*
X195525333Y-149713904D01*
X195639619Y-149752000D01*
X195906285Y-149713904D02*
X196096761Y-150513904D01*
X196249142Y-149942476D01*
X196401523Y-150513904D01*
X196592000Y-149713904D01*
X197353904Y-150437714D02*
X197315809Y-150475809D01*
X197201523Y-150513904D01*
X197125333Y-150513904D01*
X197011047Y-150475809D01*
X196934857Y-150399619D01*
X196896761Y-150323428D01*
X196858666Y-150171047D01*
X196858666Y-150056761D01*
X196896761Y-149904380D01*
X196934857Y-149828190D01*
X197011047Y-149752000D01*
X197125333Y-149713904D01*
X197201523Y-149713904D01*
X197315809Y-149752000D01*
X197353904Y-149790095D01*
X198077714Y-150513904D02*
X197696761Y-150513904D01*
X197696761Y-149713904D01*
X198344380Y-150513904D02*
X198344380Y-149713904D01*
X198801523Y-150513904D02*
X198458666Y-150056761D01*
X198801523Y-149713904D02*
X198344380Y-150171047D01*
X214843597Y-118692964D02*
X215112971Y-118423590D01*
X214951346Y-118908463D02*
X214574223Y-118154216D01*
X215328470Y-118531340D01*
X215274595Y-117507719D02*
X215193783Y-117534656D01*
X215112971Y-117615468D01*
X215059096Y-117723218D01*
X215059096Y-117830967D01*
X215086033Y-117911780D01*
X215166845Y-118046467D01*
X215247658Y-118127279D01*
X215382345Y-118208091D01*
X215463157Y-118235028D01*
X215570906Y-118235028D01*
X215678656Y-118181154D01*
X215732531Y-118127279D01*
X215786406Y-118019529D01*
X215786406Y-117965654D01*
X215597844Y-117777093D01*
X215490094Y-117884842D01*
X216082717Y-117777093D02*
X215517032Y-117211407D01*
X216405966Y-117453844D01*
X215840280Y-116888158D01*
X216675340Y-117184470D02*
X216109654Y-116618784D01*
X216244341Y-116484097D01*
X216352091Y-116430223D01*
X216459841Y-116430223D01*
X216540653Y-116457160D01*
X216675340Y-116537972D01*
X216756152Y-116618784D01*
X216836964Y-116753471D01*
X216863902Y-116834284D01*
X216863902Y-116942033D01*
X216810027Y-117049783D01*
X216675340Y-117184470D01*
X214778158Y-105050155D02*
X214697346Y-105077093D01*
X214616534Y-105157905D01*
X214562659Y-105265654D01*
X214562659Y-105373404D01*
X214589597Y-105454216D01*
X214670409Y-105588903D01*
X214751221Y-105669715D01*
X214885908Y-105750528D01*
X214966720Y-105777465D01*
X215074470Y-105777465D01*
X215182219Y-105723590D01*
X215236094Y-105669715D01*
X215289969Y-105561966D01*
X215289969Y-105508091D01*
X215101407Y-105319529D01*
X214993658Y-105427279D01*
X215586280Y-105319529D02*
X215020595Y-104753844D01*
X215909529Y-104996280D01*
X215343844Y-104430595D01*
X216178903Y-104726906D02*
X215613218Y-104161221D01*
X215747905Y-104026534D01*
X215855654Y-103972659D01*
X215963404Y-103972659D01*
X216044216Y-103999597D01*
X216178903Y-104080409D01*
X216259715Y-104161221D01*
X216340528Y-104295908D01*
X216367465Y-104376720D01*
X216367465Y-104484470D01*
X216313590Y-104592219D01*
X216178903Y-104726906D01*
X214778158Y-130450155D02*
X214697346Y-130477093D01*
X214616534Y-130557905D01*
X214562659Y-130665654D01*
X214562659Y-130773404D01*
X214589597Y-130854216D01*
X214670409Y-130988903D01*
X214751221Y-131069715D01*
X214885908Y-131150528D01*
X214966720Y-131177465D01*
X215074470Y-131177465D01*
X215182219Y-131123590D01*
X215236094Y-131069715D01*
X215289969Y-130961966D01*
X215289969Y-130908091D01*
X215101407Y-130719529D01*
X214993658Y-130827279D01*
X215586280Y-130719529D02*
X215020595Y-130153844D01*
X215909529Y-130396280D01*
X215343844Y-129830595D01*
X216178903Y-130126906D02*
X215613218Y-129561221D01*
X215747905Y-129426534D01*
X215855654Y-129372659D01*
X215963404Y-129372659D01*
X216044216Y-129399597D01*
X216178903Y-129480409D01*
X216259715Y-129561221D01*
X216340528Y-129695908D01*
X216367465Y-129776720D01*
X216367465Y-129884470D01*
X216313590Y-129992219D01*
X216178903Y-130126906D01*
X214778158Y-143150155D02*
X214697346Y-143177093D01*
X214616534Y-143257905D01*
X214562659Y-143365654D01*
X214562659Y-143473404D01*
X214589597Y-143554216D01*
X214670409Y-143688903D01*
X214751221Y-143769715D01*
X214885908Y-143850528D01*
X214966720Y-143877465D01*
X215074470Y-143877465D01*
X215182219Y-143823590D01*
X215236094Y-143769715D01*
X215289969Y-143661966D01*
X215289969Y-143608091D01*
X215101407Y-143419529D01*
X214993658Y-143527279D01*
X215586280Y-143419529D02*
X215020595Y-142853844D01*
X215909529Y-143096280D01*
X215343844Y-142530595D01*
X216178903Y-142826906D02*
X215613218Y-142261221D01*
X215747905Y-142126534D01*
X215855654Y-142072659D01*
X215963404Y-142072659D01*
X216044216Y-142099597D01*
X216178903Y-142180409D01*
X216259715Y-142261221D01*
X216340528Y-142395908D01*
X216367465Y-142476720D01*
X216367465Y-142584470D01*
X216313590Y-142692219D01*
X216178903Y-142826906D01*
X189178158Y-143150155D02*
X189097346Y-143177093D01*
X189016534Y-143257905D01*
X188962659Y-143365654D01*
X188962659Y-143473404D01*
X188989597Y-143554216D01*
X189070409Y-143688903D01*
X189151221Y-143769715D01*
X189285908Y-143850528D01*
X189366720Y-143877465D01*
X189474470Y-143877465D01*
X189582219Y-143823590D01*
X189636094Y-143769715D01*
X189689969Y-143661966D01*
X189689969Y-143608091D01*
X189501407Y-143419529D01*
X189393658Y-143527279D01*
X189986280Y-143419529D02*
X189420595Y-142853844D01*
X190309529Y-143096280D01*
X189743844Y-142530595D01*
X190578903Y-142826906D02*
X190013218Y-142261221D01*
X190147905Y-142126534D01*
X190255654Y-142072659D01*
X190363404Y-142072659D01*
X190444216Y-142099597D01*
X190578903Y-142180409D01*
X190659715Y-142261221D01*
X190740528Y-142395908D01*
X190767465Y-142476720D01*
X190767465Y-142584470D01*
X190713590Y-142692219D01*
X190578903Y-142826906D01*
X189178158Y-130450155D02*
X189097346Y-130477093D01*
X189016534Y-130557905D01*
X188962659Y-130665654D01*
X188962659Y-130773404D01*
X188989597Y-130854216D01*
X189070409Y-130988903D01*
X189151221Y-131069715D01*
X189285908Y-131150528D01*
X189366720Y-131177465D01*
X189474470Y-131177465D01*
X189582219Y-131123590D01*
X189636094Y-131069715D01*
X189689969Y-130961966D01*
X189689969Y-130908091D01*
X189501407Y-130719529D01*
X189393658Y-130827279D01*
X189986280Y-130719529D02*
X189420595Y-130153844D01*
X190309529Y-130396280D01*
X189743844Y-129830595D01*
X190578903Y-130126906D02*
X190013218Y-129561221D01*
X190147905Y-129426534D01*
X190255654Y-129372659D01*
X190363404Y-129372659D01*
X190444216Y-129399597D01*
X190578903Y-129480409D01*
X190659715Y-129561221D01*
X190740528Y-129695908D01*
X190767465Y-129776720D01*
X190767465Y-129884470D01*
X190713590Y-129992219D01*
X190578903Y-130126906D01*
X189178158Y-117750155D02*
X189097346Y-117777093D01*
X189016534Y-117857905D01*
X188962659Y-117965654D01*
X188962659Y-118073404D01*
X188989597Y-118154216D01*
X189070409Y-118288903D01*
X189151221Y-118369715D01*
X189285908Y-118450528D01*
X189366720Y-118477465D01*
X189474470Y-118477465D01*
X189582219Y-118423590D01*
X189636094Y-118369715D01*
X189689969Y-118261966D01*
X189689969Y-118208091D01*
X189501407Y-118019529D01*
X189393658Y-118127279D01*
X189986280Y-118019529D02*
X189420595Y-117453844D01*
X190309529Y-117696280D01*
X189743844Y-117130595D01*
X190578903Y-117426906D02*
X190013218Y-116861221D01*
X190147905Y-116726534D01*
X190255654Y-116672659D01*
X190363404Y-116672659D01*
X190444216Y-116699597D01*
X190578903Y-116780409D01*
X190659715Y-116861221D01*
X190740528Y-116995908D01*
X190767465Y-117076720D01*
X190767465Y-117184470D01*
X190713590Y-117292219D01*
X190578903Y-117426906D01*
X189178158Y-105050155D02*
X189097346Y-105077093D01*
X189016534Y-105157905D01*
X188962659Y-105265654D01*
X188962659Y-105373404D01*
X188989597Y-105454216D01*
X189070409Y-105588903D01*
X189151221Y-105669715D01*
X189285908Y-105750528D01*
X189366720Y-105777465D01*
X189474470Y-105777465D01*
X189582219Y-105723590D01*
X189636094Y-105669715D01*
X189689969Y-105561966D01*
X189689969Y-105508091D01*
X189501407Y-105319529D01*
X189393658Y-105427279D01*
X189986280Y-105319529D02*
X189420595Y-104753844D01*
X190309529Y-104996280D01*
X189743844Y-104430595D01*
X190578903Y-104726906D02*
X190013218Y-104161221D01*
X190147905Y-104026534D01*
X190255654Y-103972659D01*
X190363404Y-103972659D01*
X190444216Y-103999597D01*
X190578903Y-104080409D01*
X190659715Y-104161221D01*
X190740528Y-104295908D01*
X190767465Y-104376720D01*
X190767465Y-104484470D01*
X190713590Y-104592219D01*
X190578903Y-104726906D01*
X214645129Y-100479309D02*
X215399377Y-100856433D01*
X215022253Y-100102186D01*
X215668751Y-99994436D02*
X215776500Y-99940561D01*
X215830375Y-99940561D01*
X215911187Y-99967499D01*
X215992000Y-100048311D01*
X216018937Y-100129123D01*
X216018937Y-100182998D01*
X215992000Y-100263810D01*
X215776500Y-100479309D01*
X215210815Y-99913624D01*
X215399377Y-99725062D01*
X215480189Y-99698125D01*
X215534064Y-99698125D01*
X215614876Y-99725062D01*
X215668751Y-99778937D01*
X215695688Y-99859749D01*
X215695688Y-99913624D01*
X215668751Y-99994436D01*
X215480189Y-100182998D01*
X215776500Y-99347938D02*
X216234436Y-99805874D01*
X216315248Y-99832812D01*
X216369123Y-99832812D01*
X216449935Y-99805874D01*
X216557685Y-99698125D01*
X216584622Y-99617312D01*
X216584622Y-99563438D01*
X216557685Y-99482625D01*
X216099749Y-99024690D01*
X216880934Y-99321001D02*
X216988683Y-99267126D01*
X217123370Y-99132439D01*
X217150308Y-99051627D01*
X217150308Y-98997752D01*
X217123370Y-98916940D01*
X217069496Y-98863065D01*
X216988683Y-98836128D01*
X216934809Y-98836128D01*
X216853996Y-98863065D01*
X216719309Y-98943877D01*
X216638497Y-98970815D01*
X216584622Y-98970815D01*
X216503810Y-98943877D01*
X216449935Y-98890003D01*
X216422998Y-98809190D01*
X216422998Y-98755316D01*
X216449935Y-98674503D01*
X216584622Y-98539816D01*
X216692372Y-98485942D01*
X214612473Y-103021966D02*
X215366720Y-103399089D01*
X214989597Y-102644842D01*
X215689969Y-103021966D02*
X215797719Y-102968091D01*
X215932406Y-102833404D01*
X215959343Y-102752592D01*
X215959343Y-102698717D01*
X215932406Y-102617905D01*
X215878531Y-102564030D01*
X215797719Y-102537093D01*
X215743844Y-102537093D01*
X215663032Y-102564030D01*
X215528345Y-102644842D01*
X215447532Y-102671780D01*
X215393658Y-102671780D01*
X215312845Y-102644842D01*
X215258971Y-102590967D01*
X215232033Y-102510155D01*
X215232033Y-102456280D01*
X215258971Y-102375468D01*
X215393658Y-102240781D01*
X215501407Y-102186906D01*
X216120967Y-102106094D02*
X216390341Y-102375468D01*
X215636094Y-101998345D02*
X216120967Y-102106094D01*
X216013218Y-101621221D01*
X216713590Y-101998345D02*
X216821340Y-101944470D01*
X216956027Y-101809783D01*
X216982964Y-101728971D01*
X216982964Y-101675096D01*
X216956027Y-101594284D01*
X216902152Y-101540409D01*
X216821340Y-101513471D01*
X216767465Y-101513471D01*
X216686653Y-101540409D01*
X216551966Y-101621221D01*
X216471154Y-101648158D01*
X216417279Y-101648158D01*
X216336467Y-101621221D01*
X216282592Y-101567346D01*
X216255654Y-101486534D01*
X216255654Y-101432659D01*
X216282592Y-101351847D01*
X216417279Y-101217160D01*
X216525028Y-101163285D01*
X214614131Y-107910308D02*
X214964317Y-107560122D01*
X214991255Y-107964183D01*
X215072067Y-107883370D01*
X215152879Y-107856433D01*
X215206754Y-107856433D01*
X215287566Y-107883370D01*
X215422253Y-108018057D01*
X215449190Y-108098870D01*
X215449190Y-108152744D01*
X215422253Y-108233557D01*
X215260629Y-108395181D01*
X215179816Y-108422118D01*
X215125942Y-108422118D01*
X215125942Y-107398497D02*
X215880189Y-107775621D01*
X215503065Y-107021374D01*
X215637752Y-106886687D02*
X215987938Y-106536500D01*
X216014876Y-106940561D01*
X216095688Y-106859749D01*
X216176500Y-106832812D01*
X216230375Y-106832812D01*
X216311187Y-106859749D01*
X216445874Y-106994436D01*
X216472812Y-107075248D01*
X216472812Y-107129123D01*
X216445874Y-107209935D01*
X216284250Y-107371560D01*
X216203438Y-107398497D01*
X216149563Y-107398497D01*
X216715248Y-107048311D02*
X217146247Y-106617312D01*
X216930748Y-106132439D02*
X217119309Y-105943877D01*
X217496433Y-106159377D02*
X217227059Y-106428751D01*
X216661374Y-105863065D01*
X216930748Y-105593691D01*
X217738870Y-105916940D02*
X217173184Y-105351255D01*
X218062118Y-105593691D01*
X217496433Y-105028006D01*
X214581847Y-110442592D02*
X214932033Y-110092406D01*
X214958971Y-110496467D01*
X215039783Y-110415654D01*
X215120595Y-110388717D01*
X215174470Y-110388717D01*
X215255282Y-110415654D01*
X215389969Y-110550341D01*
X215416906Y-110631154D01*
X215416906Y-110685028D01*
X215389969Y-110765841D01*
X215228345Y-110927465D01*
X215147532Y-110954402D01*
X215093658Y-110954402D01*
X215093658Y-109930781D02*
X215847905Y-110307905D01*
X215470781Y-109553658D01*
X215605468Y-109418971D02*
X215955654Y-109068784D01*
X215982592Y-109472845D01*
X216063404Y-109392033D01*
X216144216Y-109365096D01*
X216198091Y-109365096D01*
X216278903Y-109392033D01*
X216413590Y-109526720D01*
X216440528Y-109607532D01*
X216440528Y-109661407D01*
X216413590Y-109742219D01*
X216251966Y-109903844D01*
X216171154Y-109930781D01*
X216117279Y-109930781D01*
X214846788Y-113485773D02*
X215116162Y-113216399D01*
X214954537Y-113701272D02*
X214577414Y-112947025D01*
X215331661Y-113324149D01*
X215520223Y-113135587D02*
X214954537Y-112569902D01*
X215089224Y-112435215D01*
X215196974Y-112381340D01*
X215304723Y-112381340D01*
X215385536Y-112408277D01*
X215520223Y-112489089D01*
X215601035Y-112569902D01*
X215681847Y-112704589D01*
X215708784Y-112785401D01*
X215708784Y-112893150D01*
X215654910Y-113000900D01*
X215520223Y-113135587D01*
X216355282Y-112192778D02*
X216355282Y-112246653D01*
X216301407Y-112354402D01*
X216247532Y-112408277D01*
X216139783Y-112462152D01*
X216032033Y-112462152D01*
X215951221Y-112435215D01*
X215816534Y-112354402D01*
X215735722Y-112273590D01*
X215654910Y-112138903D01*
X215627972Y-112058091D01*
X215627972Y-111950341D01*
X215681847Y-111842592D01*
X215735722Y-111788717D01*
X215843471Y-111734842D01*
X215897346Y-111734842D01*
X216570781Y-112192778D02*
X217001780Y-111761780D01*
X216436094Y-111088345D02*
X217190341Y-111465468D01*
X216813218Y-110711221D01*
X217890714Y-110765096D02*
X217432778Y-110684284D01*
X217567465Y-111088345D02*
X217001780Y-110522659D01*
X217217279Y-110307160D01*
X217298091Y-110280223D01*
X217351966Y-110280223D01*
X217432778Y-110307160D01*
X217513590Y-110387972D01*
X217540528Y-110468784D01*
X217540528Y-110522659D01*
X217513590Y-110603471D01*
X217298091Y-110818971D01*
X217836839Y-110226348D02*
X218025401Y-110037786D01*
X218402524Y-110253285D02*
X218133150Y-110522659D01*
X217567465Y-109956974D01*
X217836839Y-109687600D01*
X218537211Y-109525975D02*
X218348650Y-109714537D01*
X218644961Y-110010849D02*
X218079276Y-109445163D01*
X218348650Y-109175789D01*
X214789722Y-115198592D02*
X214708910Y-115225529D01*
X214628097Y-115306341D01*
X214574223Y-115414091D01*
X214574223Y-115521841D01*
X214601160Y-115602653D01*
X214681972Y-115737340D01*
X214762784Y-115818152D01*
X214897471Y-115898964D01*
X214978284Y-115925902D01*
X215086033Y-115925902D01*
X215193783Y-115872027D01*
X215247658Y-115818152D01*
X215301532Y-115710402D01*
X215301532Y-115656528D01*
X215112971Y-115467966D01*
X215005221Y-115575715D01*
X215597844Y-115467966D02*
X215032158Y-114902280D01*
X215247658Y-114686781D01*
X215328470Y-114659844D01*
X215382345Y-114659844D01*
X215463157Y-114686781D01*
X215543969Y-114767593D01*
X215570906Y-114848406D01*
X215570906Y-114902280D01*
X215543969Y-114983093D01*
X215328470Y-115198592D01*
X215624781Y-114417407D02*
X215624781Y-114363532D01*
X215651719Y-114282720D01*
X215786406Y-114148033D01*
X215867218Y-114121096D01*
X215921093Y-114121096D01*
X216001905Y-114148033D01*
X216055780Y-114201908D01*
X216109654Y-114309658D01*
X216109654Y-114956155D01*
X216459841Y-114605969D01*
X216459841Y-113959471D02*
X216379028Y-113986409D01*
X216325154Y-113986409D01*
X216244341Y-113959471D01*
X216217404Y-113932534D01*
X216190467Y-113851722D01*
X216190467Y-113797847D01*
X216217404Y-113717035D01*
X216325154Y-113609285D01*
X216405966Y-113582348D01*
X216459841Y-113582348D01*
X216540653Y-113609285D01*
X216567590Y-113636223D01*
X216594528Y-113717035D01*
X216594528Y-113770910D01*
X216567590Y-113851722D01*
X216459841Y-113959471D01*
X216432903Y-114040284D01*
X216432903Y-114094158D01*
X216459841Y-114174971D01*
X216567590Y-114282720D01*
X216648402Y-114309658D01*
X216702277Y-114309658D01*
X216783089Y-114282720D01*
X216890839Y-114174971D01*
X216917776Y-114094158D01*
X216917776Y-114040284D01*
X216890839Y-113959471D01*
X216783089Y-113851722D01*
X216702277Y-113824784D01*
X216648402Y-113824784D01*
X216567590Y-113851722D01*
X214789722Y-120542592D02*
X214708910Y-120569529D01*
X214628097Y-120650341D01*
X214574223Y-120758091D01*
X214574223Y-120865841D01*
X214601160Y-120946653D01*
X214681972Y-121081340D01*
X214762784Y-121162152D01*
X214897471Y-121242964D01*
X214978284Y-121269902D01*
X215086033Y-121269902D01*
X215193783Y-121216027D01*
X215247658Y-121162152D01*
X215301532Y-121054402D01*
X215301532Y-121000528D01*
X215112971Y-120811966D01*
X215005221Y-120919715D01*
X215597844Y-120811966D02*
X215032158Y-120246280D01*
X215247658Y-120030781D01*
X215328470Y-120003844D01*
X215382345Y-120003844D01*
X215463157Y-120030781D01*
X215543969Y-120111593D01*
X215570906Y-120192406D01*
X215570906Y-120246280D01*
X215543969Y-120327093D01*
X215328470Y-120542592D01*
X215624781Y-119761407D02*
X215624781Y-119707532D01*
X215651719Y-119626720D01*
X215786406Y-119492033D01*
X215867218Y-119465096D01*
X215921093Y-119465096D01*
X216001905Y-119492033D01*
X216055780Y-119545908D01*
X216109654Y-119653658D01*
X216109654Y-120300155D01*
X216459841Y-119949969D01*
X216082717Y-119195722D02*
X216459841Y-118818598D01*
X216783089Y-119626720D01*
X214789722Y-123072592D02*
X214708910Y-123099529D01*
X214628097Y-123180341D01*
X214574223Y-123288091D01*
X214574223Y-123395841D01*
X214601160Y-123476653D01*
X214681972Y-123611340D01*
X214762784Y-123692152D01*
X214897471Y-123772964D01*
X214978284Y-123799902D01*
X215086033Y-123799902D01*
X215193783Y-123746027D01*
X215247658Y-123692152D01*
X215301532Y-123584402D01*
X215301532Y-123530528D01*
X215112971Y-123341966D01*
X215005221Y-123449715D01*
X215597844Y-123341966D02*
X215032158Y-122776280D01*
X215247658Y-122560781D01*
X215328470Y-122533844D01*
X215382345Y-122533844D01*
X215463157Y-122560781D01*
X215543969Y-122641593D01*
X215570906Y-122722406D01*
X215570906Y-122776280D01*
X215543969Y-122857093D01*
X215328470Y-123072592D01*
X215624781Y-122291407D02*
X215624781Y-122237532D01*
X215651719Y-122156720D01*
X215786406Y-122022033D01*
X215867218Y-121995096D01*
X215921093Y-121995096D01*
X216001905Y-122022033D01*
X216055780Y-122075908D01*
X216109654Y-122183658D01*
X216109654Y-122830155D01*
X216459841Y-122479969D01*
X216379028Y-121429410D02*
X216271279Y-121537160D01*
X216244341Y-121617972D01*
X216244341Y-121671847D01*
X216271279Y-121806534D01*
X216352091Y-121941221D01*
X216567590Y-122156720D01*
X216648402Y-122183658D01*
X216702277Y-122183658D01*
X216783089Y-122156720D01*
X216890839Y-122048971D01*
X216917776Y-121968158D01*
X216917776Y-121914284D01*
X216890839Y-121833471D01*
X216756152Y-121698784D01*
X216675340Y-121671847D01*
X216621465Y-121671847D01*
X216540653Y-121698784D01*
X216432903Y-121806534D01*
X216405966Y-121887346D01*
X216405966Y-121941221D01*
X216432903Y-122022033D01*
X215530375Y-125895435D02*
X215072439Y-125814622D01*
X215207126Y-126218683D02*
X214641441Y-125652998D01*
X214856940Y-125437499D01*
X214937752Y-125410561D01*
X214991627Y-125410561D01*
X215072439Y-125437499D01*
X215153251Y-125518311D01*
X215180189Y-125599123D01*
X215180189Y-125652998D01*
X215153251Y-125733810D01*
X214937752Y-125949309D01*
X215207126Y-125087312D02*
X215665062Y-125545248D01*
X215745874Y-125572186D01*
X215799749Y-125572186D01*
X215880561Y-125545248D01*
X215988311Y-125437499D01*
X216015248Y-125356687D01*
X216015248Y-125302812D01*
X215988311Y-125221999D01*
X215530375Y-124764064D01*
X216365435Y-125060375D02*
X215799749Y-124494690D01*
X216688683Y-124737126D01*
X216122998Y-124171441D01*
X214789722Y-128152592D02*
X214708910Y-128179529D01*
X214628097Y-128260341D01*
X214574223Y-128368091D01*
X214574223Y-128475841D01*
X214601160Y-128556653D01*
X214681972Y-128691340D01*
X214762784Y-128772152D01*
X214897471Y-128852964D01*
X214978284Y-128879902D01*
X215086033Y-128879902D01*
X215193783Y-128826027D01*
X215247658Y-128772152D01*
X215301532Y-128664402D01*
X215301532Y-128610528D01*
X215112971Y-128421966D01*
X215005221Y-128529715D01*
X215597844Y-128421966D02*
X215032158Y-127856280D01*
X215247658Y-127640781D01*
X215328470Y-127613844D01*
X215382345Y-127613844D01*
X215463157Y-127640781D01*
X215543969Y-127721593D01*
X215570906Y-127802406D01*
X215570906Y-127856280D01*
X215543969Y-127937093D01*
X215328470Y-128152592D01*
X215624781Y-127371407D02*
X215624781Y-127317532D01*
X215651719Y-127236720D01*
X215786406Y-127102033D01*
X215867218Y-127075096D01*
X215921093Y-127075096D01*
X216001905Y-127102033D01*
X216055780Y-127155908D01*
X216109654Y-127263658D01*
X216109654Y-127910155D01*
X216459841Y-127559969D01*
X216163529Y-126832659D02*
X216163529Y-126778784D01*
X216190467Y-126697972D01*
X216325154Y-126563285D01*
X216405966Y-126536348D01*
X216459841Y-126536348D01*
X216540653Y-126563285D01*
X216594528Y-126617160D01*
X216648402Y-126724910D01*
X216648402Y-127371407D01*
X216998589Y-127021221D01*
X214789722Y-133242592D02*
X214708910Y-133269529D01*
X214628097Y-133350341D01*
X214574223Y-133458091D01*
X214574223Y-133565841D01*
X214601160Y-133646653D01*
X214681972Y-133781340D01*
X214762784Y-133862152D01*
X214897471Y-133942964D01*
X214978284Y-133969902D01*
X215086033Y-133969902D01*
X215193783Y-133916027D01*
X215247658Y-133862152D01*
X215301532Y-133754402D01*
X215301532Y-133700528D01*
X215112971Y-133511966D01*
X215005221Y-133619715D01*
X215597844Y-133511966D02*
X215032158Y-132946280D01*
X215247658Y-132730781D01*
X215328470Y-132703844D01*
X215382345Y-132703844D01*
X215463157Y-132730781D01*
X215543969Y-132811593D01*
X215570906Y-132892406D01*
X215570906Y-132946280D01*
X215543969Y-133027093D01*
X215328470Y-133242592D01*
X215624781Y-132461407D02*
X215624781Y-132407532D01*
X215651719Y-132326720D01*
X215786406Y-132192033D01*
X215867218Y-132165096D01*
X215921093Y-132165096D01*
X216001905Y-132192033D01*
X216055780Y-132245908D01*
X216109654Y-132353658D01*
X216109654Y-133000155D01*
X216459841Y-132649969D01*
X216998589Y-132111221D02*
X216675340Y-132434470D01*
X216836964Y-132272845D02*
X216271279Y-131707160D01*
X216298216Y-131841847D01*
X216298216Y-131949597D01*
X216271279Y-132030409D01*
X214789722Y-135772592D02*
X214708910Y-135799529D01*
X214628097Y-135880341D01*
X214574223Y-135988091D01*
X214574223Y-136095841D01*
X214601160Y-136176653D01*
X214681972Y-136311340D01*
X214762784Y-136392152D01*
X214897471Y-136472964D01*
X214978284Y-136499902D01*
X215086033Y-136499902D01*
X215193783Y-136446027D01*
X215247658Y-136392152D01*
X215301532Y-136284402D01*
X215301532Y-136230528D01*
X215112971Y-136041966D01*
X215005221Y-136149715D01*
X215597844Y-136041966D02*
X215032158Y-135476280D01*
X215247658Y-135260781D01*
X215328470Y-135233844D01*
X215382345Y-135233844D01*
X215463157Y-135260781D01*
X215543969Y-135341593D01*
X215570906Y-135422406D01*
X215570906Y-135476280D01*
X215543969Y-135557093D01*
X215328470Y-135772592D01*
X215624781Y-134991407D02*
X215624781Y-134937532D01*
X215651719Y-134856720D01*
X215786406Y-134722033D01*
X215867218Y-134695096D01*
X215921093Y-134695096D01*
X216001905Y-134722033D01*
X216055780Y-134775908D01*
X216109654Y-134883658D01*
X216109654Y-135530155D01*
X216459841Y-135179969D01*
X216244341Y-134264097D02*
X216298216Y-134210223D01*
X216379028Y-134183285D01*
X216432903Y-134183285D01*
X216513715Y-134210223D01*
X216648402Y-134291035D01*
X216783089Y-134425722D01*
X216863902Y-134560409D01*
X216890839Y-134641221D01*
X216890839Y-134695096D01*
X216863902Y-134775908D01*
X216810027Y-134829783D01*
X216729215Y-134856720D01*
X216675340Y-134856720D01*
X216594528Y-134829783D01*
X216459841Y-134748971D01*
X216325154Y-134614284D01*
X216244341Y-134479597D01*
X216217404Y-134398784D01*
X216217404Y-134344910D01*
X216244341Y-134264097D01*
X214789722Y-138312592D02*
X214708910Y-138339529D01*
X214628097Y-138420341D01*
X214574223Y-138528091D01*
X214574223Y-138635841D01*
X214601160Y-138716653D01*
X214681972Y-138851340D01*
X214762784Y-138932152D01*
X214897471Y-139012964D01*
X214978284Y-139039902D01*
X215086033Y-139039902D01*
X215193783Y-138986027D01*
X215247658Y-138932152D01*
X215301532Y-138824402D01*
X215301532Y-138770528D01*
X215112971Y-138581966D01*
X215005221Y-138689715D01*
X215597844Y-138581966D02*
X215032158Y-138016280D01*
X215247658Y-137800781D01*
X215328470Y-137773844D01*
X215382345Y-137773844D01*
X215463157Y-137800781D01*
X215543969Y-137881593D01*
X215570906Y-137962406D01*
X215570906Y-138016280D01*
X215543969Y-138097093D01*
X215328470Y-138312592D01*
X216459841Y-137719969D02*
X216136592Y-138043218D01*
X216298216Y-137881593D02*
X215732531Y-137315908D01*
X215759468Y-137450595D01*
X215759468Y-137558345D01*
X215732531Y-137639157D01*
X216729215Y-137450595D02*
X216836964Y-137342845D01*
X216863902Y-137262033D01*
X216863902Y-137208158D01*
X216836964Y-137073471D01*
X216756152Y-136938784D01*
X216540653Y-136723285D01*
X216459841Y-136696348D01*
X216405966Y-136696348D01*
X216325154Y-136723285D01*
X216217404Y-136831035D01*
X216190467Y-136911847D01*
X216190467Y-136965722D01*
X216217404Y-137046534D01*
X216352091Y-137181221D01*
X216432903Y-137208158D01*
X216486778Y-137208158D01*
X216567590Y-137181221D01*
X216675340Y-137073471D01*
X216702277Y-136992659D01*
X216702277Y-136938784D01*
X216675340Y-136857972D01*
X214789722Y-140852592D02*
X214708910Y-140879529D01*
X214628097Y-140960341D01*
X214574223Y-141068091D01*
X214574223Y-141175841D01*
X214601160Y-141256653D01*
X214681972Y-141391340D01*
X214762784Y-141472152D01*
X214897471Y-141552964D01*
X214978284Y-141579902D01*
X215086033Y-141579902D01*
X215193783Y-141526027D01*
X215247658Y-141472152D01*
X215301532Y-141364402D01*
X215301532Y-141310528D01*
X215112971Y-141121966D01*
X215005221Y-141229715D01*
X215597844Y-141121966D02*
X215032158Y-140556280D01*
X215247658Y-140340781D01*
X215328470Y-140313844D01*
X215382345Y-140313844D01*
X215463157Y-140340781D01*
X215543969Y-140421593D01*
X215570906Y-140502406D01*
X215570906Y-140556280D01*
X215543969Y-140637093D01*
X215328470Y-140852592D01*
X216459841Y-140259969D02*
X216136592Y-140583218D01*
X216298216Y-140421593D02*
X215732531Y-139855908D01*
X215759468Y-139990595D01*
X215759468Y-140098345D01*
X215732531Y-140179157D01*
X216459841Y-139613471D02*
X216379028Y-139640409D01*
X216325154Y-139640409D01*
X216244341Y-139613471D01*
X216217404Y-139586534D01*
X216190467Y-139505722D01*
X216190467Y-139451847D01*
X216217404Y-139371035D01*
X216325154Y-139263285D01*
X216405966Y-139236348D01*
X216459841Y-139236348D01*
X216540653Y-139263285D01*
X216567590Y-139290223D01*
X216594528Y-139371035D01*
X216594528Y-139424910D01*
X216567590Y-139505722D01*
X216459841Y-139613471D01*
X216432903Y-139694284D01*
X216432903Y-139748158D01*
X216459841Y-139828971D01*
X216567590Y-139936720D01*
X216648402Y-139963658D01*
X216702277Y-139963658D01*
X216783089Y-139936720D01*
X216890839Y-139828971D01*
X216917776Y-139748158D01*
X216917776Y-139694284D01*
X216890839Y-139613471D01*
X216783089Y-139505722D01*
X216702277Y-139478784D01*
X216648402Y-139478784D01*
X216567590Y-139505722D01*
X214789722Y-145932592D02*
X214708910Y-145959529D01*
X214628097Y-146040341D01*
X214574223Y-146148091D01*
X214574223Y-146255841D01*
X214601160Y-146336653D01*
X214681972Y-146471340D01*
X214762784Y-146552152D01*
X214897471Y-146632964D01*
X214978284Y-146659902D01*
X215086033Y-146659902D01*
X215193783Y-146606027D01*
X215247658Y-146552152D01*
X215301532Y-146444402D01*
X215301532Y-146390528D01*
X215112971Y-146201966D01*
X215005221Y-146309715D01*
X215597844Y-146201966D02*
X215032158Y-145636280D01*
X215247658Y-145420781D01*
X215328470Y-145393844D01*
X215382345Y-145393844D01*
X215463157Y-145420781D01*
X215543969Y-145501593D01*
X215570906Y-145582406D01*
X215570906Y-145636280D01*
X215543969Y-145717093D01*
X215328470Y-145932592D01*
X216459841Y-145339969D02*
X216136592Y-145663218D01*
X216298216Y-145501593D02*
X215732531Y-144935908D01*
X215759468Y-145070595D01*
X215759468Y-145178345D01*
X215732531Y-145259157D01*
X216082717Y-144585722D02*
X216459841Y-144208598D01*
X216783089Y-145016720D01*
X214789722Y-148472592D02*
X214708910Y-148499529D01*
X214628097Y-148580341D01*
X214574223Y-148688091D01*
X214574223Y-148795841D01*
X214601160Y-148876653D01*
X214681972Y-149011340D01*
X214762784Y-149092152D01*
X214897471Y-149172964D01*
X214978284Y-149199902D01*
X215086033Y-149199902D01*
X215193783Y-149146027D01*
X215247658Y-149092152D01*
X215301532Y-148984402D01*
X215301532Y-148930528D01*
X215112971Y-148741966D01*
X215005221Y-148849715D01*
X215597844Y-148741966D02*
X215032158Y-148176280D01*
X215247658Y-147960781D01*
X215328470Y-147933844D01*
X215382345Y-147933844D01*
X215463157Y-147960781D01*
X215543969Y-148041593D01*
X215570906Y-148122406D01*
X215570906Y-148176280D01*
X215543969Y-148257093D01*
X215328470Y-148472592D01*
X216459841Y-147879969D02*
X216136592Y-148203218D01*
X216298216Y-148041593D02*
X215732531Y-147475908D01*
X215759468Y-147610595D01*
X215759468Y-147718345D01*
X215732531Y-147799157D01*
X216379028Y-146829410D02*
X216271279Y-146937160D01*
X216244341Y-147017972D01*
X216244341Y-147071847D01*
X216271279Y-147206534D01*
X216352091Y-147341221D01*
X216567590Y-147556720D01*
X216648402Y-147583658D01*
X216702277Y-147583658D01*
X216783089Y-147556720D01*
X216890839Y-147448971D01*
X216917776Y-147368158D01*
X216917776Y-147314284D01*
X216890839Y-147233471D01*
X216756152Y-147098784D01*
X216675340Y-147071847D01*
X216621465Y-147071847D01*
X216540653Y-147098784D01*
X216432903Y-147206534D01*
X216405966Y-147287346D01*
X216405966Y-147341221D01*
X216432903Y-147422033D01*
X188681722Y-148472592D02*
X188600910Y-148499529D01*
X188520097Y-148580341D01*
X188466223Y-148688091D01*
X188466223Y-148795841D01*
X188493160Y-148876653D01*
X188573972Y-149011340D01*
X188654784Y-149092152D01*
X188789471Y-149172964D01*
X188870284Y-149199902D01*
X188978033Y-149199902D01*
X189085783Y-149146027D01*
X189139658Y-149092152D01*
X189193532Y-148984402D01*
X189193532Y-148930528D01*
X189004971Y-148741966D01*
X188897221Y-148849715D01*
X189489844Y-148741966D02*
X188924158Y-148176280D01*
X189139658Y-147960781D01*
X189220470Y-147933844D01*
X189274345Y-147933844D01*
X189355157Y-147960781D01*
X189435969Y-148041593D01*
X189462906Y-148122406D01*
X189462906Y-148176280D01*
X189435969Y-148257093D01*
X189220470Y-148472592D01*
X190351841Y-147879969D02*
X190028592Y-148203218D01*
X190190216Y-148041593D02*
X189624531Y-147475908D01*
X189651468Y-147610595D01*
X189651468Y-147718345D01*
X189624531Y-147799157D01*
X190297966Y-146802473D02*
X190028592Y-147071847D01*
X190271028Y-147368158D01*
X190271028Y-147314284D01*
X190297966Y-147233471D01*
X190432653Y-147098784D01*
X190513465Y-147071847D01*
X190567340Y-147071847D01*
X190648152Y-147098784D01*
X190782839Y-147233471D01*
X190809776Y-147314284D01*
X190809776Y-147368158D01*
X190782839Y-147448971D01*
X190648152Y-147583658D01*
X190567340Y-147610595D01*
X190513465Y-147610595D01*
X188635722Y-145932592D02*
X188554910Y-145959529D01*
X188474097Y-146040341D01*
X188420223Y-146148091D01*
X188420223Y-146255841D01*
X188447160Y-146336653D01*
X188527972Y-146471340D01*
X188608784Y-146552152D01*
X188743471Y-146632964D01*
X188824284Y-146659902D01*
X188932033Y-146659902D01*
X189039783Y-146606027D01*
X189093658Y-146552152D01*
X189147532Y-146444402D01*
X189147532Y-146390528D01*
X188958971Y-146201966D01*
X188851221Y-146309715D01*
X189443844Y-146201966D02*
X188878158Y-145636280D01*
X189093658Y-145420781D01*
X189174470Y-145393844D01*
X189228345Y-145393844D01*
X189309157Y-145420781D01*
X189389969Y-145501593D01*
X189416906Y-145582406D01*
X189416906Y-145636280D01*
X189389969Y-145717093D01*
X189174470Y-145932592D01*
X190305841Y-145339969D02*
X189982592Y-145663218D01*
X190144216Y-145501593D02*
X189578531Y-144935908D01*
X189605468Y-145070595D01*
X189605468Y-145178345D01*
X189578531Y-145259157D01*
X190413590Y-144477972D02*
X190790714Y-144855096D01*
X190063404Y-144397160D02*
X190332778Y-144935908D01*
X190682964Y-144585722D01*
X188681722Y-140852592D02*
X188600910Y-140879529D01*
X188520097Y-140960341D01*
X188466223Y-141068091D01*
X188466223Y-141175841D01*
X188493160Y-141256653D01*
X188573972Y-141391340D01*
X188654784Y-141472152D01*
X188789471Y-141552964D01*
X188870284Y-141579902D01*
X188978033Y-141579902D01*
X189085783Y-141526027D01*
X189139658Y-141472152D01*
X189193532Y-141364402D01*
X189193532Y-141310528D01*
X189004971Y-141121966D01*
X188897221Y-141229715D01*
X189489844Y-141121966D02*
X188924158Y-140556280D01*
X189139658Y-140340781D01*
X189220470Y-140313844D01*
X189274345Y-140313844D01*
X189355157Y-140340781D01*
X189435969Y-140421593D01*
X189462906Y-140502406D01*
X189462906Y-140556280D01*
X189435969Y-140637093D01*
X189220470Y-140852592D01*
X190351841Y-140259969D02*
X190028592Y-140583218D01*
X190190216Y-140421593D02*
X189624531Y-139855908D01*
X189651468Y-139990595D01*
X189651468Y-140098345D01*
X189624531Y-140179157D01*
X189974717Y-139505722D02*
X190324903Y-139155536D01*
X190351841Y-139559597D01*
X190432653Y-139478784D01*
X190513465Y-139451847D01*
X190567340Y-139451847D01*
X190648152Y-139478784D01*
X190782839Y-139613471D01*
X190809776Y-139694284D01*
X190809776Y-139748158D01*
X190782839Y-139828971D01*
X190621215Y-139990595D01*
X190540402Y-140017532D01*
X190486528Y-140017532D01*
X188535722Y-138312592D02*
X188454910Y-138339529D01*
X188374097Y-138420341D01*
X188320223Y-138528091D01*
X188320223Y-138635841D01*
X188347160Y-138716653D01*
X188427972Y-138851340D01*
X188508784Y-138932152D01*
X188643471Y-139012964D01*
X188724284Y-139039902D01*
X188832033Y-139039902D01*
X188939783Y-138986027D01*
X188993658Y-138932152D01*
X189047532Y-138824402D01*
X189047532Y-138770528D01*
X188858971Y-138581966D01*
X188751221Y-138689715D01*
X189343844Y-138581966D02*
X188778158Y-138016280D01*
X188993658Y-137800781D01*
X189074470Y-137773844D01*
X189128345Y-137773844D01*
X189209157Y-137800781D01*
X189289969Y-137881593D01*
X189316906Y-137962406D01*
X189316906Y-138016280D01*
X189289969Y-138097093D01*
X189074470Y-138312592D01*
X190205841Y-137719969D02*
X189882592Y-138043218D01*
X190044216Y-137881593D02*
X189478531Y-137315908D01*
X189505468Y-137450595D01*
X189505468Y-137558345D01*
X189478531Y-137639157D01*
X189909529Y-136992659D02*
X189909529Y-136938784D01*
X189936467Y-136857972D01*
X190071154Y-136723285D01*
X190151966Y-136696348D01*
X190205841Y-136696348D01*
X190286653Y-136723285D01*
X190340528Y-136777160D01*
X190394402Y-136884910D01*
X190394402Y-137531407D01*
X190744589Y-137181221D01*
X188535722Y-135772592D02*
X188454910Y-135799529D01*
X188374097Y-135880341D01*
X188320223Y-135988091D01*
X188320223Y-136095841D01*
X188347160Y-136176653D01*
X188427972Y-136311340D01*
X188508784Y-136392152D01*
X188643471Y-136472964D01*
X188724284Y-136499902D01*
X188832033Y-136499902D01*
X188939783Y-136446027D01*
X188993658Y-136392152D01*
X189047532Y-136284402D01*
X189047532Y-136230528D01*
X188858971Y-136041966D01*
X188751221Y-136149715D01*
X189343844Y-136041966D02*
X188778158Y-135476280D01*
X188993658Y-135260781D01*
X189074470Y-135233844D01*
X189128345Y-135233844D01*
X189209157Y-135260781D01*
X189289969Y-135341593D01*
X189316906Y-135422406D01*
X189316906Y-135476280D01*
X189289969Y-135557093D01*
X189074470Y-135772592D01*
X190205841Y-135179969D02*
X189882592Y-135503218D01*
X190044216Y-135341593D02*
X189478531Y-134775908D01*
X189505468Y-134910595D01*
X189505468Y-135018345D01*
X189478531Y-135099157D01*
X190744589Y-134641221D02*
X190421340Y-134964470D01*
X190582964Y-134802845D02*
X190017279Y-134237160D01*
X190044216Y-134371847D01*
X190044216Y-134479597D01*
X190017279Y-134560409D01*
X188681722Y-133232592D02*
X188600910Y-133259529D01*
X188520097Y-133340341D01*
X188466223Y-133448091D01*
X188466223Y-133555841D01*
X188493160Y-133636653D01*
X188573972Y-133771340D01*
X188654784Y-133852152D01*
X188789471Y-133932964D01*
X188870284Y-133959902D01*
X188978033Y-133959902D01*
X189085783Y-133906027D01*
X189139658Y-133852152D01*
X189193532Y-133744402D01*
X189193532Y-133690528D01*
X189004971Y-133501966D01*
X188897221Y-133609715D01*
X189489844Y-133501966D02*
X188924158Y-132936280D01*
X189139658Y-132720781D01*
X189220470Y-132693844D01*
X189274345Y-132693844D01*
X189355157Y-132720781D01*
X189435969Y-132801593D01*
X189462906Y-132882406D01*
X189462906Y-132936280D01*
X189435969Y-133017093D01*
X189220470Y-133232592D01*
X190351841Y-132639969D02*
X190028592Y-132963218D01*
X190190216Y-132801593D02*
X189624531Y-132235908D01*
X189651468Y-132370595D01*
X189651468Y-132478345D01*
X189624531Y-132559157D01*
X190136341Y-131724097D02*
X190190216Y-131670223D01*
X190271028Y-131643285D01*
X190324903Y-131643285D01*
X190405715Y-131670223D01*
X190540402Y-131751035D01*
X190675089Y-131885722D01*
X190755902Y-132020409D01*
X190782839Y-132101221D01*
X190782839Y-132155096D01*
X190755902Y-132235908D01*
X190702027Y-132289783D01*
X190621215Y-132316720D01*
X190567340Y-132316720D01*
X190486528Y-132289783D01*
X190351841Y-132208971D01*
X190217154Y-132074284D01*
X190136341Y-131939597D01*
X190109404Y-131858784D01*
X190109404Y-131804910D01*
X190136341Y-131724097D01*
X189205096Y-127883218D02*
X189124284Y-127910155D01*
X189043471Y-127990967D01*
X188989597Y-128098717D01*
X188989597Y-128206467D01*
X189016534Y-128287279D01*
X189097346Y-128421966D01*
X189178158Y-128502778D01*
X189312845Y-128583590D01*
X189393658Y-128610528D01*
X189501407Y-128610528D01*
X189609157Y-128556653D01*
X189663032Y-128502778D01*
X189716906Y-128395028D01*
X189716906Y-128341154D01*
X189528345Y-128152592D01*
X189420595Y-128260341D01*
X190013218Y-128152592D02*
X189447532Y-127586906D01*
X189663032Y-127371407D01*
X189743844Y-127344470D01*
X189797719Y-127344470D01*
X189878531Y-127371407D01*
X189959343Y-127452219D01*
X189986280Y-127533032D01*
X189986280Y-127586906D01*
X189959343Y-127667719D01*
X189743844Y-127883218D01*
X190605841Y-127559969D02*
X190713590Y-127452219D01*
X190740528Y-127371407D01*
X190740528Y-127317532D01*
X190713590Y-127182845D01*
X190632778Y-127048158D01*
X190417279Y-126832659D01*
X190336467Y-126805722D01*
X190282592Y-126805722D01*
X190201780Y-126832659D01*
X190094030Y-126940409D01*
X190067093Y-127021221D01*
X190067093Y-127075096D01*
X190094030Y-127155908D01*
X190228717Y-127290595D01*
X190309529Y-127317532D01*
X190363404Y-127317532D01*
X190444216Y-127290595D01*
X190551966Y-127182845D01*
X190578903Y-127102033D01*
X190578903Y-127048158D01*
X190551966Y-126967346D01*
X189205096Y-125343218D02*
X189124284Y-125370155D01*
X189043471Y-125450967D01*
X188989597Y-125558717D01*
X188989597Y-125666467D01*
X189016534Y-125747279D01*
X189097346Y-125881966D01*
X189178158Y-125962778D01*
X189312845Y-126043590D01*
X189393658Y-126070528D01*
X189501407Y-126070528D01*
X189609157Y-126016653D01*
X189663032Y-125962778D01*
X189716906Y-125855028D01*
X189716906Y-125801154D01*
X189528345Y-125612592D01*
X189420595Y-125720341D01*
X190013218Y-125612592D02*
X189447532Y-125046906D01*
X189663032Y-124831407D01*
X189743844Y-124804470D01*
X189797719Y-124804470D01*
X189878531Y-124831407D01*
X189959343Y-124912219D01*
X189986280Y-124993032D01*
X189986280Y-125046906D01*
X189959343Y-125127719D01*
X189743844Y-125343218D01*
X190336467Y-124642845D02*
X190255654Y-124669783D01*
X190201780Y-124669783D01*
X190120967Y-124642845D01*
X190094030Y-124615908D01*
X190067093Y-124535096D01*
X190067093Y-124481221D01*
X190094030Y-124400409D01*
X190201780Y-124292659D01*
X190282592Y-124265722D01*
X190336467Y-124265722D01*
X190417279Y-124292659D01*
X190444216Y-124319597D01*
X190471154Y-124400409D01*
X190471154Y-124454284D01*
X190444216Y-124535096D01*
X190336467Y-124642845D01*
X190309529Y-124723658D01*
X190309529Y-124777532D01*
X190336467Y-124858345D01*
X190444216Y-124966094D01*
X190525028Y-124993032D01*
X190578903Y-124993032D01*
X190659715Y-124966094D01*
X190767465Y-124858345D01*
X190794402Y-124777532D01*
X190794402Y-124723658D01*
X190767465Y-124642845D01*
X190659715Y-124535096D01*
X190578903Y-124508158D01*
X190525028Y-124508158D01*
X190444216Y-124535096D01*
X189305096Y-122773218D02*
X189224284Y-122800155D01*
X189143471Y-122880967D01*
X189089597Y-122988717D01*
X189089597Y-123096467D01*
X189116534Y-123177279D01*
X189197346Y-123311966D01*
X189278158Y-123392778D01*
X189412845Y-123473590D01*
X189493658Y-123500528D01*
X189601407Y-123500528D01*
X189709157Y-123446653D01*
X189763032Y-123392778D01*
X189816906Y-123285028D01*
X189816906Y-123231154D01*
X189628345Y-123042592D01*
X189520595Y-123150341D01*
X190113218Y-123042592D02*
X189547532Y-122476906D01*
X189763032Y-122261407D01*
X189843844Y-122234470D01*
X189897719Y-122234470D01*
X189978531Y-122261407D01*
X190059343Y-122342219D01*
X190086280Y-122423032D01*
X190086280Y-122476906D01*
X190059343Y-122557719D01*
X189843844Y-122773218D01*
X190059343Y-121965096D02*
X190436467Y-121587972D01*
X190759715Y-122396094D01*
X189205096Y-120263218D02*
X189124284Y-120290155D01*
X189043471Y-120370967D01*
X188989597Y-120478717D01*
X188989597Y-120586467D01*
X189016534Y-120667279D01*
X189097346Y-120801966D01*
X189178158Y-120882778D01*
X189312845Y-120963590D01*
X189393658Y-120990528D01*
X189501407Y-120990528D01*
X189609157Y-120936653D01*
X189663032Y-120882778D01*
X189716906Y-120775028D01*
X189716906Y-120721154D01*
X189528345Y-120532592D01*
X189420595Y-120640341D01*
X190013218Y-120532592D02*
X189447532Y-119966906D01*
X189663032Y-119751407D01*
X189743844Y-119724470D01*
X189797719Y-119724470D01*
X189878531Y-119751407D01*
X189959343Y-119832219D01*
X189986280Y-119913032D01*
X189986280Y-119966906D01*
X189959343Y-120047719D01*
X189743844Y-120263218D01*
X190255654Y-119158784D02*
X190147905Y-119266534D01*
X190120967Y-119347346D01*
X190120967Y-119401221D01*
X190147905Y-119535908D01*
X190228717Y-119670595D01*
X190444216Y-119886094D01*
X190525028Y-119913032D01*
X190578903Y-119913032D01*
X190659715Y-119886094D01*
X190767465Y-119778345D01*
X190794402Y-119697532D01*
X190794402Y-119643658D01*
X190767465Y-119562845D01*
X190632778Y-119428158D01*
X190551966Y-119401221D01*
X190498091Y-119401221D01*
X190417279Y-119428158D01*
X190309529Y-119535908D01*
X190282592Y-119616720D01*
X190282592Y-119670595D01*
X190309529Y-119751407D01*
X189205096Y-115183218D02*
X189124284Y-115210155D01*
X189043471Y-115290967D01*
X188989597Y-115398717D01*
X188989597Y-115506467D01*
X189016534Y-115587279D01*
X189097346Y-115721966D01*
X189178158Y-115802778D01*
X189312845Y-115883590D01*
X189393658Y-115910528D01*
X189501407Y-115910528D01*
X189609157Y-115856653D01*
X189663032Y-115802778D01*
X189716906Y-115695028D01*
X189716906Y-115641154D01*
X189528345Y-115452592D01*
X189420595Y-115560341D01*
X190013218Y-115452592D02*
X189447532Y-114886906D01*
X189663032Y-114671407D01*
X189743844Y-114644470D01*
X189797719Y-114644470D01*
X189878531Y-114671407D01*
X189959343Y-114752219D01*
X189986280Y-114833032D01*
X189986280Y-114886906D01*
X189959343Y-114967719D01*
X189743844Y-115183218D01*
X190282592Y-114051847D02*
X190013218Y-114321221D01*
X190255654Y-114617532D01*
X190255654Y-114563658D01*
X190282592Y-114482845D01*
X190417279Y-114348158D01*
X190498091Y-114321221D01*
X190551966Y-114321221D01*
X190632778Y-114348158D01*
X190767465Y-114482845D01*
X190794402Y-114563658D01*
X190794402Y-114617532D01*
X190767465Y-114698345D01*
X190632778Y-114833032D01*
X190551966Y-114859969D01*
X190498091Y-114859969D01*
X189205096Y-112643218D02*
X189124284Y-112670155D01*
X189043471Y-112750967D01*
X188989597Y-112858717D01*
X188989597Y-112966467D01*
X189016534Y-113047279D01*
X189097346Y-113181966D01*
X189178158Y-113262778D01*
X189312845Y-113343590D01*
X189393658Y-113370528D01*
X189501407Y-113370528D01*
X189609157Y-113316653D01*
X189663032Y-113262778D01*
X189716906Y-113155028D01*
X189716906Y-113101154D01*
X189528345Y-112912592D01*
X189420595Y-113020341D01*
X190013218Y-112912592D02*
X189447532Y-112346906D01*
X189663032Y-112131407D01*
X189743844Y-112104470D01*
X189797719Y-112104470D01*
X189878531Y-112131407D01*
X189959343Y-112212219D01*
X189986280Y-112293032D01*
X189986280Y-112346906D01*
X189959343Y-112427719D01*
X189743844Y-112643218D01*
X190444216Y-111727346D02*
X190821340Y-112104470D01*
X190094030Y-111646534D02*
X190363404Y-112185282D01*
X190713590Y-111835096D01*
X189205096Y-110103218D02*
X189124284Y-110130155D01*
X189043471Y-110210967D01*
X188989597Y-110318717D01*
X188989597Y-110426467D01*
X189016534Y-110507279D01*
X189097346Y-110641966D01*
X189178158Y-110722778D01*
X189312845Y-110803590D01*
X189393658Y-110830528D01*
X189501407Y-110830528D01*
X189609157Y-110776653D01*
X189663032Y-110722778D01*
X189716906Y-110615028D01*
X189716906Y-110561154D01*
X189528345Y-110372592D01*
X189420595Y-110480341D01*
X190013218Y-110372592D02*
X189447532Y-109806906D01*
X189663032Y-109591407D01*
X189743844Y-109564470D01*
X189797719Y-109564470D01*
X189878531Y-109591407D01*
X189959343Y-109672219D01*
X189986280Y-109753032D01*
X189986280Y-109806906D01*
X189959343Y-109887719D01*
X189743844Y-110103218D01*
X189959343Y-109295096D02*
X190309529Y-108944910D01*
X190336467Y-109348971D01*
X190417279Y-109268158D01*
X190498091Y-109241221D01*
X190551966Y-109241221D01*
X190632778Y-109268158D01*
X190767465Y-109402845D01*
X190794402Y-109483658D01*
X190794402Y-109537532D01*
X190767465Y-109618345D01*
X190605841Y-109779969D01*
X190525028Y-109806906D01*
X190471154Y-109806906D01*
X189205096Y-99943218D02*
X189124284Y-99970155D01*
X189043471Y-100050967D01*
X188989597Y-100158717D01*
X188989597Y-100266467D01*
X189016534Y-100347279D01*
X189097346Y-100481966D01*
X189178158Y-100562778D01*
X189312845Y-100643590D01*
X189393658Y-100670528D01*
X189501407Y-100670528D01*
X189609157Y-100616653D01*
X189663032Y-100562778D01*
X189716906Y-100455028D01*
X189716906Y-100401154D01*
X189528345Y-100212592D01*
X189420595Y-100320341D01*
X190013218Y-100212592D02*
X189447532Y-99646906D01*
X189663032Y-99431407D01*
X189743844Y-99404470D01*
X189797719Y-99404470D01*
X189878531Y-99431407D01*
X189959343Y-99512219D01*
X189986280Y-99593032D01*
X189986280Y-99646906D01*
X189959343Y-99727719D01*
X189743844Y-99943218D01*
X190120967Y-98973471D02*
X190174842Y-98919597D01*
X190255654Y-98892659D01*
X190309529Y-98892659D01*
X190390341Y-98919597D01*
X190525028Y-99000409D01*
X190659715Y-99135096D01*
X190740528Y-99269783D01*
X190767465Y-99350595D01*
X190767465Y-99404470D01*
X190740528Y-99485282D01*
X190686653Y-99539157D01*
X190605841Y-99566094D01*
X190551966Y-99566094D01*
X190471154Y-99539157D01*
X190336467Y-99458345D01*
X190201780Y-99323658D01*
X190120967Y-99188971D01*
X190094030Y-99108158D01*
X190094030Y-99054284D01*
X190120967Y-98973471D01*
X189105096Y-107563218D02*
X189024284Y-107590155D01*
X188943471Y-107670967D01*
X188889597Y-107778717D01*
X188889597Y-107886467D01*
X188916534Y-107967279D01*
X188997346Y-108101966D01*
X189078158Y-108182778D01*
X189212845Y-108263590D01*
X189293658Y-108290528D01*
X189401407Y-108290528D01*
X189509157Y-108236653D01*
X189563032Y-108182778D01*
X189616906Y-108075028D01*
X189616906Y-108021154D01*
X189428345Y-107832592D01*
X189320595Y-107940341D01*
X189913218Y-107832592D02*
X189347532Y-107266906D01*
X189563032Y-107051407D01*
X189643844Y-107024470D01*
X189697719Y-107024470D01*
X189778531Y-107051407D01*
X189859343Y-107132219D01*
X189886280Y-107213032D01*
X189886280Y-107266906D01*
X189859343Y-107347719D01*
X189643844Y-107563218D01*
X189940155Y-106782033D02*
X189940155Y-106728158D01*
X189967093Y-106647346D01*
X190101780Y-106512659D01*
X190182592Y-106485722D01*
X190236467Y-106485722D01*
X190317279Y-106512659D01*
X190371154Y-106566534D01*
X190425028Y-106674284D01*
X190425028Y-107320781D01*
X190775215Y-106970595D01*
X189105096Y-102473218D02*
X189024284Y-102500155D01*
X188943471Y-102580967D01*
X188889597Y-102688717D01*
X188889597Y-102796467D01*
X188916534Y-102877279D01*
X188997346Y-103011966D01*
X189078158Y-103092778D01*
X189212845Y-103173590D01*
X189293658Y-103200528D01*
X189401407Y-103200528D01*
X189509157Y-103146653D01*
X189563032Y-103092778D01*
X189616906Y-102985028D01*
X189616906Y-102931154D01*
X189428345Y-102742592D01*
X189320595Y-102850341D01*
X189913218Y-102742592D02*
X189347532Y-102176906D01*
X189563032Y-101961407D01*
X189643844Y-101934470D01*
X189697719Y-101934470D01*
X189778531Y-101961407D01*
X189859343Y-102042219D01*
X189886280Y-102123032D01*
X189886280Y-102176906D01*
X189859343Y-102257719D01*
X189643844Y-102473218D01*
X190775215Y-101880595D02*
X190451966Y-102203844D01*
X190613590Y-102042219D02*
X190047905Y-101476534D01*
X190074842Y-101611221D01*
X190074842Y-101718971D01*
X190047905Y-101799783D01*
X263144095Y-147915380D02*
X263144095Y-148724904D01*
X263191714Y-148820142D01*
X263239333Y-148867761D01*
X263334571Y-148915380D01*
X263525047Y-148915380D01*
X263620285Y-148867761D01*
X263667904Y-148820142D01*
X263715523Y-148724904D01*
X263715523Y-147915380D01*
X264620285Y-148248714D02*
X264620285Y-148915380D01*
X264382190Y-147867761D02*
X264144095Y-148582047D01*
X264763142Y-148582047D01*
X263144095Y-120737380D02*
X263144095Y-121546904D01*
X263191714Y-121642142D01*
X263239333Y-121689761D01*
X263334571Y-121737380D01*
X263525047Y-121737380D01*
X263620285Y-121689761D01*
X263667904Y-121642142D01*
X263715523Y-121546904D01*
X263715523Y-120737380D01*
X264667904Y-120737380D02*
X264191714Y-120737380D01*
X264144095Y-121213571D01*
X264191714Y-121165952D01*
X264286952Y-121118333D01*
X264525047Y-121118333D01*
X264620285Y-121165952D01*
X264667904Y-121213571D01*
X264715523Y-121308809D01*
X264715523Y-121546904D01*
X264667904Y-121642142D01*
X264620285Y-121689761D01*
X264525047Y-121737380D01*
X264286952Y-121737380D01*
X264191714Y-121689761D01*
X264144095Y-121642142D01*
X288798095Y-121166380D02*
X288798095Y-121975904D01*
X288845714Y-122071142D01*
X288893333Y-122118761D01*
X288988571Y-122166380D01*
X289179047Y-122166380D01*
X289274285Y-122118761D01*
X289321904Y-122071142D01*
X289369523Y-121975904D01*
X289369523Y-121166380D01*
X289750476Y-121166380D02*
X290369523Y-121166380D01*
X290036190Y-121547333D01*
X290179047Y-121547333D01*
X290274285Y-121594952D01*
X290321904Y-121642571D01*
X290369523Y-121737809D01*
X290369523Y-121975904D01*
X290321904Y-122071142D01*
X290274285Y-122118761D01*
X290179047Y-122166380D01*
X289893333Y-122166380D01*
X289798095Y-122118761D01*
X289750476Y-122071142D01*
X272327761Y-142565380D02*
X271994428Y-142089190D01*
X271756333Y-142565380D02*
X271756333Y-141565380D01*
X272137285Y-141565380D01*
X272232523Y-141613000D01*
X272280142Y-141660619D01*
X272327761Y-141755857D01*
X272327761Y-141898714D01*
X272280142Y-141993952D01*
X272232523Y-142041571D01*
X272137285Y-142089190D01*
X271756333Y-142089190D01*
X272613476Y-141565380D02*
X272946809Y-142565380D01*
X273280142Y-141565380D01*
X273565857Y-141660619D02*
X273613476Y-141613000D01*
X273708714Y-141565380D01*
X273946809Y-141565380D01*
X274042047Y-141613000D01*
X274089666Y-141660619D01*
X274137285Y-141755857D01*
X274137285Y-141851095D01*
X274089666Y-141993952D01*
X273518238Y-142565380D01*
X274137285Y-142565380D01*
X293028761Y-142311380D02*
X292695428Y-141835190D01*
X292457333Y-142311380D02*
X292457333Y-141311380D01*
X292838285Y-141311380D01*
X292933523Y-141359000D01*
X292981142Y-141406619D01*
X293028761Y-141501857D01*
X293028761Y-141644714D01*
X292981142Y-141739952D01*
X292933523Y-141787571D01*
X292838285Y-141835190D01*
X292457333Y-141835190D01*
X293314476Y-141311380D02*
X293647809Y-142311380D01*
X293981142Y-141311380D01*
X294838285Y-142311380D02*
X294266857Y-142311380D01*
X294552571Y-142311380D02*
X294552571Y-141311380D01*
X294457333Y-141454238D01*
X294362095Y-141549476D01*
X294266857Y-141597095D01*
X268819333Y-132405380D02*
X268486000Y-131929190D01*
X268247904Y-132405380D02*
X268247904Y-131405380D01*
X268628857Y-131405380D01*
X268724095Y-131453000D01*
X268771714Y-131500619D01*
X268819333Y-131595857D01*
X268819333Y-131738714D01*
X268771714Y-131833952D01*
X268724095Y-131881571D01*
X268628857Y-131929190D01*
X268247904Y-131929190D01*
X269200285Y-131500619D02*
X269247904Y-131453000D01*
X269343142Y-131405380D01*
X269581238Y-131405380D01*
X269676476Y-131453000D01*
X269724095Y-131500619D01*
X269771714Y-131595857D01*
X269771714Y-131691095D01*
X269724095Y-131833952D01*
X269152666Y-132405380D01*
X269771714Y-132405380D01*
X287869333Y-132659380D02*
X287536000Y-132183190D01*
X287297904Y-132659380D02*
X287297904Y-131659380D01*
X287678857Y-131659380D01*
X287774095Y-131707000D01*
X287821714Y-131754619D01*
X287869333Y-131849857D01*
X287869333Y-131992714D01*
X287821714Y-132087952D01*
X287774095Y-132135571D01*
X287678857Y-132183190D01*
X287297904Y-132183190D01*
X288821714Y-132659380D02*
X288250285Y-132659380D01*
X288536000Y-132659380D02*
X288536000Y-131659380D01*
X288440761Y-131802238D01*
X288345523Y-131897476D01*
X288250285Y-131945095D01*
X275248380Y-131294095D02*
X274248380Y-131294095D01*
X274248380Y-131056000D01*
X274296000Y-130913142D01*
X274391238Y-130817904D01*
X274486476Y-130770285D01*
X274676952Y-130722666D01*
X274819809Y-130722666D01*
X275010285Y-130770285D01*
X275105523Y-130817904D01*
X275200761Y-130913142D01*
X275248380Y-131056000D01*
X275248380Y-131294095D01*
X274343619Y-130341714D02*
X274296000Y-130294095D01*
X274248380Y-130198857D01*
X274248380Y-129960761D01*
X274296000Y-129865523D01*
X274343619Y-129817904D01*
X274438857Y-129770285D01*
X274534095Y-129770285D01*
X274676952Y-129817904D01*
X275248380Y-130389333D01*
X275248380Y-129770285D01*
X294552380Y-131802095D02*
X293552380Y-131802095D01*
X293552380Y-131564000D01*
X293600000Y-131421142D01*
X293695238Y-131325904D01*
X293790476Y-131278285D01*
X293980952Y-131230666D01*
X294123809Y-131230666D01*
X294314285Y-131278285D01*
X294409523Y-131325904D01*
X294504761Y-131421142D01*
X294552380Y-131564000D01*
X294552380Y-131802095D01*
X294552380Y-130278285D02*
X294552380Y-130849714D01*
X294552380Y-130564000D02*
X293552380Y-130564000D01*
X293695238Y-130659238D01*
X293790476Y-130754476D01*
X293838095Y-130849714D01*
X258405333Y-136501142D02*
X258357714Y-136548761D01*
X258214857Y-136596380D01*
X258119619Y-136596380D01*
X257976761Y-136548761D01*
X257881523Y-136453523D01*
X257833904Y-136358285D01*
X257786285Y-136167809D01*
X257786285Y-136024952D01*
X257833904Y-135834476D01*
X257881523Y-135739238D01*
X257976761Y-135644000D01*
X258119619Y-135596380D01*
X258214857Y-135596380D01*
X258357714Y-135644000D01*
X258405333Y-135691619D01*
X258976761Y-136024952D02*
X258881523Y-135977333D01*
X258833904Y-135929714D01*
X258786285Y-135834476D01*
X258786285Y-135786857D01*
X258833904Y-135691619D01*
X258881523Y-135644000D01*
X258976761Y-135596380D01*
X259167238Y-135596380D01*
X259262476Y-135644000D01*
X259310095Y-135691619D01*
X259357714Y-135786857D01*
X259357714Y-135834476D01*
X259310095Y-135929714D01*
X259262476Y-135977333D01*
X259167238Y-136024952D01*
X258976761Y-136024952D01*
X258881523Y-136072571D01*
X258833904Y-136120190D01*
X258786285Y-136215428D01*
X258786285Y-136405904D01*
X258833904Y-136501142D01*
X258881523Y-136548761D01*
X258976761Y-136596380D01*
X259167238Y-136596380D01*
X259262476Y-136548761D01*
X259310095Y-136501142D01*
X259357714Y-136405904D01*
X259357714Y-136215428D01*
X259310095Y-136120190D01*
X259262476Y-136072571D01*
X259167238Y-136024952D01*
X262358142Y-130341666D02*
X262405761Y-130389285D01*
X262453380Y-130532142D01*
X262453380Y-130627380D01*
X262405761Y-130770238D01*
X262310523Y-130865476D01*
X262215285Y-130913095D01*
X262024809Y-130960714D01*
X261881952Y-130960714D01*
X261691476Y-130913095D01*
X261596238Y-130865476D01*
X261501000Y-130770238D01*
X261453380Y-130627380D01*
X261453380Y-130532142D01*
X261501000Y-130389285D01*
X261548619Y-130341666D01*
X261453380Y-130008333D02*
X261453380Y-129341666D01*
X262453380Y-129770238D01*
X268713833Y-118946142D02*
X268666214Y-118993761D01*
X268523357Y-119041380D01*
X268428119Y-119041380D01*
X268285261Y-118993761D01*
X268190023Y-118898523D01*
X268142404Y-118803285D01*
X268094785Y-118612809D01*
X268094785Y-118469952D01*
X268142404Y-118279476D01*
X268190023Y-118184238D01*
X268285261Y-118089000D01*
X268428119Y-118041380D01*
X268523357Y-118041380D01*
X268666214Y-118089000D01*
X268713833Y-118136619D01*
X269570976Y-118041380D02*
X269380500Y-118041380D01*
X269285261Y-118089000D01*
X269237642Y-118136619D01*
X269142404Y-118279476D01*
X269094785Y-118469952D01*
X269094785Y-118850904D01*
X269142404Y-118946142D01*
X269190023Y-118993761D01*
X269285261Y-119041380D01*
X269475738Y-119041380D01*
X269570976Y-118993761D01*
X269618595Y-118946142D01*
X269666214Y-118850904D01*
X269666214Y-118612809D01*
X269618595Y-118517571D01*
X269570976Y-118469952D01*
X269475738Y-118422333D01*
X269285261Y-118422333D01*
X269190023Y-118469952D01*
X269142404Y-118517571D01*
X269094785Y-118612809D01*
X279659142Y-126531666D02*
X279706761Y-126579285D01*
X279754380Y-126722142D01*
X279754380Y-126817380D01*
X279706761Y-126960238D01*
X279611523Y-127055476D01*
X279516285Y-127103095D01*
X279325809Y-127150714D01*
X279182952Y-127150714D01*
X278992476Y-127103095D01*
X278897238Y-127055476D01*
X278802000Y-126960238D01*
X278754380Y-126817380D01*
X278754380Y-126722142D01*
X278802000Y-126579285D01*
X278849619Y-126531666D01*
X278754380Y-125626904D02*
X278754380Y-126103095D01*
X279230571Y-126150714D01*
X279182952Y-126103095D01*
X279135333Y-126007857D01*
X279135333Y-125769761D01*
X279182952Y-125674523D01*
X279230571Y-125626904D01*
X279325809Y-125579285D01*
X279563904Y-125579285D01*
X279659142Y-125626904D01*
X279706761Y-125674523D01*
X279754380Y-125769761D01*
X279754380Y-126007857D01*
X279706761Y-126103095D01*
X279659142Y-126150714D01*
X245070333Y-96623142D02*
X245022714Y-96670761D01*
X244879857Y-96718380D01*
X244784619Y-96718380D01*
X244641761Y-96670761D01*
X244546523Y-96575523D01*
X244498904Y-96480285D01*
X244451285Y-96289809D01*
X244451285Y-96146952D01*
X244498904Y-95956476D01*
X244546523Y-95861238D01*
X244641761Y-95766000D01*
X244784619Y-95718380D01*
X244879857Y-95718380D01*
X245022714Y-95766000D01*
X245070333Y-95813619D01*
X245927476Y-96051714D02*
X245927476Y-96718380D01*
X245689380Y-95670761D02*
X245451285Y-96385047D01*
X246070333Y-96385047D01*
X283313142Y-123864666D02*
X283360761Y-123912285D01*
X283408380Y-124055142D01*
X283408380Y-124150380D01*
X283360761Y-124293238D01*
X283265523Y-124388476D01*
X283170285Y-124436095D01*
X282979809Y-124483714D01*
X282836952Y-124483714D01*
X282646476Y-124436095D01*
X282551238Y-124388476D01*
X282456000Y-124293238D01*
X282408380Y-124150380D01*
X282408380Y-124055142D01*
X282456000Y-123912285D01*
X282503619Y-123864666D01*
X282408380Y-123531333D02*
X282408380Y-122912285D01*
X282789333Y-123245619D01*
X282789333Y-123102761D01*
X282836952Y-123007523D01*
X282884571Y-122959904D01*
X282979809Y-122912285D01*
X283217904Y-122912285D01*
X283313142Y-122959904D01*
X283360761Y-123007523D01*
X283408380Y-123102761D01*
X283408380Y-123388476D01*
X283360761Y-123483714D01*
X283313142Y-123531333D01*
X284567333Y-143486142D02*
X284519714Y-143533761D01*
X284376857Y-143581380D01*
X284281619Y-143581380D01*
X284138761Y-143533761D01*
X284043523Y-143438523D01*
X283995904Y-143343285D01*
X283948285Y-143152809D01*
X283948285Y-143009952D01*
X283995904Y-142819476D01*
X284043523Y-142724238D01*
X284138761Y-142629000D01*
X284281619Y-142581380D01*
X284376857Y-142581380D01*
X284519714Y-142629000D01*
X284567333Y-142676619D01*
X284948285Y-142676619D02*
X284995904Y-142629000D01*
X285091142Y-142581380D01*
X285329238Y-142581380D01*
X285424476Y-142629000D01*
X285472095Y-142676619D01*
X285519714Y-142771857D01*
X285519714Y-142867095D01*
X285472095Y-143009952D01*
X284900666Y-143581380D01*
X285519714Y-143581380D01*
X299471142Y-127293666D02*
X299518761Y-127341285D01*
X299566380Y-127484142D01*
X299566380Y-127579380D01*
X299518761Y-127722238D01*
X299423523Y-127817476D01*
X299328285Y-127865095D01*
X299137809Y-127912714D01*
X298994952Y-127912714D01*
X298804476Y-127865095D01*
X298709238Y-127817476D01*
X298614000Y-127722238D01*
X298566380Y-127579380D01*
X298566380Y-127484142D01*
X298614000Y-127341285D01*
X298661619Y-127293666D01*
X299566380Y-126341285D02*
X299566380Y-126912714D01*
X299566380Y-126627000D02*
X298566380Y-126627000D01*
X298709238Y-126722238D01*
X298804476Y-126817476D01*
X298852095Y-126912714D01*
M02*
