G04 #@! TF.GenerationSoftware,KiCad,Pcbnew,5.1.5+dfsg1-2build2*
G04 #@! TF.CreationDate,2023-06-05T14:25:05+01:00*
G04 #@! TF.ProjectId,dumper_3780,64756d70-6572-45f3-9337-38302e6b6963,rev?*
G04 #@! TF.SameCoordinates,Original*
G04 #@! TF.FileFunction,Copper,L1,Top*
G04 #@! TF.FilePolarity,Positive*
%FSLAX46Y46*%
G04 Gerber Fmt 4.6, Leading zero omitted, Abs format (unit mm)*
G04 Created by KiCad (PCBNEW 5.1.5+dfsg1-2build2) date 2023-06-05 14:25:05*
%MOMM*%
%LPD*%
G04 APERTURE LIST*
%ADD10O,1.700000X1.700000*%
%ADD11R,1.700000X1.700000*%
%ADD12O,1.600000X1.600000*%
%ADD13R,1.600000X1.600000*%
%ADD14R,1.700000X3.500000*%
%ADD15R,3.500000X1.700000*%
%ADD16C,0.100000*%
%ADD17O,1.905000X2.000000*%
%ADD18R,1.905000X2.000000*%
%ADD19C,1.440000*%
%ADD20R,1.200000X0.900000*%
%ADD21C,0.800000*%
%ADD22C,0.250000*%
%ADD23C,0.400000*%
G04 APERTURE END LIST*
D10*
X186182000Y-132334000D03*
X186182000Y-129794000D03*
D11*
X186182000Y-127254000D03*
D10*
X279400000Y-110490000D03*
X279400000Y-107950000D03*
X279400000Y-105410000D03*
D11*
X279400000Y-102870000D03*
D12*
X249428000Y-100076000D03*
X234188000Y-148336000D03*
X249428000Y-102616000D03*
X234188000Y-145796000D03*
X249428000Y-105156000D03*
X234188000Y-143256000D03*
X249428000Y-107696000D03*
X234188000Y-140716000D03*
X249428000Y-110236000D03*
X234188000Y-138176000D03*
X249428000Y-112776000D03*
X234188000Y-135636000D03*
X249428000Y-115316000D03*
X234188000Y-133096000D03*
X249428000Y-117856000D03*
X234188000Y-130556000D03*
X249428000Y-120396000D03*
X234188000Y-128016000D03*
X249428000Y-122936000D03*
X234188000Y-125476000D03*
X249428000Y-125476000D03*
X234188000Y-122936000D03*
X249428000Y-128016000D03*
X234188000Y-120396000D03*
X249428000Y-130556000D03*
X234188000Y-117856000D03*
X249428000Y-133096000D03*
X234188000Y-115316000D03*
X249428000Y-135636000D03*
X234188000Y-112776000D03*
X249428000Y-138176000D03*
X234188000Y-110236000D03*
X249428000Y-140716000D03*
X234188000Y-107696000D03*
X249428000Y-143256000D03*
X234188000Y-105156000D03*
X249428000Y-145796000D03*
X234188000Y-102616000D03*
X249428000Y-148336000D03*
D13*
X234188000Y-100076000D03*
D10*
X205232000Y-147852000D03*
D14*
X205232000Y-148752000D03*
D11*
X202692000Y-147852000D03*
D14*
X202692000Y-148752000D03*
D10*
X200152000Y-147852000D03*
D14*
X200152000Y-148752000D03*
D15*
X212482000Y-148082000D03*
X212482000Y-145542000D03*
X212482000Y-143002000D03*
X212482000Y-140462000D03*
X212482000Y-137922000D03*
X212482000Y-135382000D03*
X212482000Y-132842000D03*
X212482000Y-130302000D03*
X212482000Y-127762000D03*
X212482000Y-125222000D03*
X212482000Y-122682000D03*
X212482000Y-120142000D03*
X212482000Y-117602000D03*
X212482000Y-115062000D03*
X212482000Y-112522000D03*
X212482000Y-109982000D03*
X212482000Y-107442000D03*
X212482000Y-104902000D03*
X212482000Y-102362000D03*
X212482000Y-99822000D03*
X192902000Y-148082000D03*
X192902000Y-145542000D03*
X192902000Y-143002000D03*
X192902000Y-140462000D03*
X192902000Y-137922000D03*
X192902000Y-135382000D03*
X192902000Y-132842000D03*
X192902000Y-130302000D03*
X192902000Y-127762000D03*
X192902000Y-125222000D03*
X192902000Y-122682000D03*
X192902000Y-120142000D03*
X192902000Y-117602000D03*
X192902000Y-115062000D03*
X192902000Y-112522000D03*
X192902000Y-109982000D03*
X192902000Y-107442000D03*
X192902000Y-104902000D03*
X192902000Y-102362000D03*
X192902000Y-99822000D03*
D10*
X211582000Y-99822000D03*
X211582000Y-102362000D03*
D11*
X211582000Y-104902000D03*
D10*
X211582000Y-107442000D03*
X211582000Y-109982000D03*
X211582000Y-112522000D03*
X211582000Y-115062000D03*
D11*
X211582000Y-117602000D03*
D10*
X211582000Y-120142000D03*
X211582000Y-122682000D03*
X211582000Y-125222000D03*
X211582000Y-127762000D03*
D11*
X211582000Y-130302000D03*
D10*
X211582000Y-132842000D03*
X211582000Y-135382000D03*
X211582000Y-137922000D03*
X211582000Y-140462000D03*
D11*
X211582000Y-143002000D03*
D10*
X211582000Y-145542000D03*
X211582000Y-148082000D03*
X193802000Y-148082000D03*
X193802000Y-145542000D03*
D11*
X193802000Y-143002000D03*
D10*
X193802000Y-140462000D03*
X193802000Y-137922000D03*
X193802000Y-135382000D03*
X193802000Y-132842000D03*
D11*
X193802000Y-130302000D03*
D10*
X193802000Y-127762000D03*
X193802000Y-125222000D03*
X193802000Y-122682000D03*
X193802000Y-120142000D03*
D11*
X193802000Y-117602000D03*
D10*
X193802000Y-115062000D03*
X193802000Y-112522000D03*
X193802000Y-109982000D03*
X193802000Y-107442000D03*
D11*
X193802000Y-104902000D03*
D10*
X193802000Y-102362000D03*
X193802000Y-99822000D03*
G04 #@! TA.AperFunction,SMDPad,CuDef*
D16*
G36*
X261632703Y-140289722D02*
G01*
X261647264Y-140291882D01*
X261661543Y-140295459D01*
X261675403Y-140300418D01*
X261688710Y-140306712D01*
X261701336Y-140314280D01*
X261713159Y-140323048D01*
X261724066Y-140332934D01*
X261733952Y-140343841D01*
X261742720Y-140355664D01*
X261750288Y-140368290D01*
X261756582Y-140381597D01*
X261761541Y-140395457D01*
X261765118Y-140409736D01*
X261767278Y-140424297D01*
X261768000Y-140439000D01*
X261768000Y-140739000D01*
X261767278Y-140753703D01*
X261765118Y-140768264D01*
X261761541Y-140782543D01*
X261756582Y-140796403D01*
X261750288Y-140809710D01*
X261742720Y-140822336D01*
X261733952Y-140834159D01*
X261724066Y-140845066D01*
X261713159Y-140854952D01*
X261701336Y-140863720D01*
X261688710Y-140871288D01*
X261675403Y-140877582D01*
X261661543Y-140882541D01*
X261647264Y-140886118D01*
X261632703Y-140888278D01*
X261618000Y-140889000D01*
X259968000Y-140889000D01*
X259953297Y-140888278D01*
X259938736Y-140886118D01*
X259924457Y-140882541D01*
X259910597Y-140877582D01*
X259897290Y-140871288D01*
X259884664Y-140863720D01*
X259872841Y-140854952D01*
X259861934Y-140845066D01*
X259852048Y-140834159D01*
X259843280Y-140822336D01*
X259835712Y-140809710D01*
X259829418Y-140796403D01*
X259824459Y-140782543D01*
X259820882Y-140768264D01*
X259818722Y-140753703D01*
X259818000Y-140739000D01*
X259818000Y-140439000D01*
X259818722Y-140424297D01*
X259820882Y-140409736D01*
X259824459Y-140395457D01*
X259829418Y-140381597D01*
X259835712Y-140368290D01*
X259843280Y-140355664D01*
X259852048Y-140343841D01*
X259861934Y-140332934D01*
X259872841Y-140323048D01*
X259884664Y-140314280D01*
X259897290Y-140306712D01*
X259910597Y-140300418D01*
X259924457Y-140295459D01*
X259938736Y-140291882D01*
X259953297Y-140289722D01*
X259968000Y-140289000D01*
X261618000Y-140289000D01*
X261632703Y-140289722D01*
G37*
G04 #@! TD.AperFunction*
G04 #@! TA.AperFunction,SMDPad,CuDef*
G36*
X261632703Y-141559722D02*
G01*
X261647264Y-141561882D01*
X261661543Y-141565459D01*
X261675403Y-141570418D01*
X261688710Y-141576712D01*
X261701336Y-141584280D01*
X261713159Y-141593048D01*
X261724066Y-141602934D01*
X261733952Y-141613841D01*
X261742720Y-141625664D01*
X261750288Y-141638290D01*
X261756582Y-141651597D01*
X261761541Y-141665457D01*
X261765118Y-141679736D01*
X261767278Y-141694297D01*
X261768000Y-141709000D01*
X261768000Y-142009000D01*
X261767278Y-142023703D01*
X261765118Y-142038264D01*
X261761541Y-142052543D01*
X261756582Y-142066403D01*
X261750288Y-142079710D01*
X261742720Y-142092336D01*
X261733952Y-142104159D01*
X261724066Y-142115066D01*
X261713159Y-142124952D01*
X261701336Y-142133720D01*
X261688710Y-142141288D01*
X261675403Y-142147582D01*
X261661543Y-142152541D01*
X261647264Y-142156118D01*
X261632703Y-142158278D01*
X261618000Y-142159000D01*
X259968000Y-142159000D01*
X259953297Y-142158278D01*
X259938736Y-142156118D01*
X259924457Y-142152541D01*
X259910597Y-142147582D01*
X259897290Y-142141288D01*
X259884664Y-142133720D01*
X259872841Y-142124952D01*
X259861934Y-142115066D01*
X259852048Y-142104159D01*
X259843280Y-142092336D01*
X259835712Y-142079710D01*
X259829418Y-142066403D01*
X259824459Y-142052543D01*
X259820882Y-142038264D01*
X259818722Y-142023703D01*
X259818000Y-142009000D01*
X259818000Y-141709000D01*
X259818722Y-141694297D01*
X259820882Y-141679736D01*
X259824459Y-141665457D01*
X259829418Y-141651597D01*
X259835712Y-141638290D01*
X259843280Y-141625664D01*
X259852048Y-141613841D01*
X259861934Y-141602934D01*
X259872841Y-141593048D01*
X259884664Y-141584280D01*
X259897290Y-141576712D01*
X259910597Y-141570418D01*
X259924457Y-141565459D01*
X259938736Y-141561882D01*
X259953297Y-141559722D01*
X259968000Y-141559000D01*
X261618000Y-141559000D01*
X261632703Y-141559722D01*
G37*
G04 #@! TD.AperFunction*
G04 #@! TA.AperFunction,SMDPad,CuDef*
G36*
X261632703Y-142829722D02*
G01*
X261647264Y-142831882D01*
X261661543Y-142835459D01*
X261675403Y-142840418D01*
X261688710Y-142846712D01*
X261701336Y-142854280D01*
X261713159Y-142863048D01*
X261724066Y-142872934D01*
X261733952Y-142883841D01*
X261742720Y-142895664D01*
X261750288Y-142908290D01*
X261756582Y-142921597D01*
X261761541Y-142935457D01*
X261765118Y-142949736D01*
X261767278Y-142964297D01*
X261768000Y-142979000D01*
X261768000Y-143279000D01*
X261767278Y-143293703D01*
X261765118Y-143308264D01*
X261761541Y-143322543D01*
X261756582Y-143336403D01*
X261750288Y-143349710D01*
X261742720Y-143362336D01*
X261733952Y-143374159D01*
X261724066Y-143385066D01*
X261713159Y-143394952D01*
X261701336Y-143403720D01*
X261688710Y-143411288D01*
X261675403Y-143417582D01*
X261661543Y-143422541D01*
X261647264Y-143426118D01*
X261632703Y-143428278D01*
X261618000Y-143429000D01*
X259968000Y-143429000D01*
X259953297Y-143428278D01*
X259938736Y-143426118D01*
X259924457Y-143422541D01*
X259910597Y-143417582D01*
X259897290Y-143411288D01*
X259884664Y-143403720D01*
X259872841Y-143394952D01*
X259861934Y-143385066D01*
X259852048Y-143374159D01*
X259843280Y-143362336D01*
X259835712Y-143349710D01*
X259829418Y-143336403D01*
X259824459Y-143322543D01*
X259820882Y-143308264D01*
X259818722Y-143293703D01*
X259818000Y-143279000D01*
X259818000Y-142979000D01*
X259818722Y-142964297D01*
X259820882Y-142949736D01*
X259824459Y-142935457D01*
X259829418Y-142921597D01*
X259835712Y-142908290D01*
X259843280Y-142895664D01*
X259852048Y-142883841D01*
X259861934Y-142872934D01*
X259872841Y-142863048D01*
X259884664Y-142854280D01*
X259897290Y-142846712D01*
X259910597Y-142840418D01*
X259924457Y-142835459D01*
X259938736Y-142831882D01*
X259953297Y-142829722D01*
X259968000Y-142829000D01*
X261618000Y-142829000D01*
X261632703Y-142829722D01*
G37*
G04 #@! TD.AperFunction*
G04 #@! TA.AperFunction,SMDPad,CuDef*
G36*
X261632703Y-144099722D02*
G01*
X261647264Y-144101882D01*
X261661543Y-144105459D01*
X261675403Y-144110418D01*
X261688710Y-144116712D01*
X261701336Y-144124280D01*
X261713159Y-144133048D01*
X261724066Y-144142934D01*
X261733952Y-144153841D01*
X261742720Y-144165664D01*
X261750288Y-144178290D01*
X261756582Y-144191597D01*
X261761541Y-144205457D01*
X261765118Y-144219736D01*
X261767278Y-144234297D01*
X261768000Y-144249000D01*
X261768000Y-144549000D01*
X261767278Y-144563703D01*
X261765118Y-144578264D01*
X261761541Y-144592543D01*
X261756582Y-144606403D01*
X261750288Y-144619710D01*
X261742720Y-144632336D01*
X261733952Y-144644159D01*
X261724066Y-144655066D01*
X261713159Y-144664952D01*
X261701336Y-144673720D01*
X261688710Y-144681288D01*
X261675403Y-144687582D01*
X261661543Y-144692541D01*
X261647264Y-144696118D01*
X261632703Y-144698278D01*
X261618000Y-144699000D01*
X259968000Y-144699000D01*
X259953297Y-144698278D01*
X259938736Y-144696118D01*
X259924457Y-144692541D01*
X259910597Y-144687582D01*
X259897290Y-144681288D01*
X259884664Y-144673720D01*
X259872841Y-144664952D01*
X259861934Y-144655066D01*
X259852048Y-144644159D01*
X259843280Y-144632336D01*
X259835712Y-144619710D01*
X259829418Y-144606403D01*
X259824459Y-144592543D01*
X259820882Y-144578264D01*
X259818722Y-144563703D01*
X259818000Y-144549000D01*
X259818000Y-144249000D01*
X259818722Y-144234297D01*
X259820882Y-144219736D01*
X259824459Y-144205457D01*
X259829418Y-144191597D01*
X259835712Y-144178290D01*
X259843280Y-144165664D01*
X259852048Y-144153841D01*
X259861934Y-144142934D01*
X259872841Y-144133048D01*
X259884664Y-144124280D01*
X259897290Y-144116712D01*
X259910597Y-144110418D01*
X259924457Y-144105459D01*
X259938736Y-144101882D01*
X259953297Y-144099722D01*
X259968000Y-144099000D01*
X261618000Y-144099000D01*
X261632703Y-144099722D01*
G37*
G04 #@! TD.AperFunction*
G04 #@! TA.AperFunction,SMDPad,CuDef*
G36*
X261632703Y-145369722D02*
G01*
X261647264Y-145371882D01*
X261661543Y-145375459D01*
X261675403Y-145380418D01*
X261688710Y-145386712D01*
X261701336Y-145394280D01*
X261713159Y-145403048D01*
X261724066Y-145412934D01*
X261733952Y-145423841D01*
X261742720Y-145435664D01*
X261750288Y-145448290D01*
X261756582Y-145461597D01*
X261761541Y-145475457D01*
X261765118Y-145489736D01*
X261767278Y-145504297D01*
X261768000Y-145519000D01*
X261768000Y-145819000D01*
X261767278Y-145833703D01*
X261765118Y-145848264D01*
X261761541Y-145862543D01*
X261756582Y-145876403D01*
X261750288Y-145889710D01*
X261742720Y-145902336D01*
X261733952Y-145914159D01*
X261724066Y-145925066D01*
X261713159Y-145934952D01*
X261701336Y-145943720D01*
X261688710Y-145951288D01*
X261675403Y-145957582D01*
X261661543Y-145962541D01*
X261647264Y-145966118D01*
X261632703Y-145968278D01*
X261618000Y-145969000D01*
X259968000Y-145969000D01*
X259953297Y-145968278D01*
X259938736Y-145966118D01*
X259924457Y-145962541D01*
X259910597Y-145957582D01*
X259897290Y-145951288D01*
X259884664Y-145943720D01*
X259872841Y-145934952D01*
X259861934Y-145925066D01*
X259852048Y-145914159D01*
X259843280Y-145902336D01*
X259835712Y-145889710D01*
X259829418Y-145876403D01*
X259824459Y-145862543D01*
X259820882Y-145848264D01*
X259818722Y-145833703D01*
X259818000Y-145819000D01*
X259818000Y-145519000D01*
X259818722Y-145504297D01*
X259820882Y-145489736D01*
X259824459Y-145475457D01*
X259829418Y-145461597D01*
X259835712Y-145448290D01*
X259843280Y-145435664D01*
X259852048Y-145423841D01*
X259861934Y-145412934D01*
X259872841Y-145403048D01*
X259884664Y-145394280D01*
X259897290Y-145386712D01*
X259910597Y-145380418D01*
X259924457Y-145375459D01*
X259938736Y-145371882D01*
X259953297Y-145369722D01*
X259968000Y-145369000D01*
X261618000Y-145369000D01*
X261632703Y-145369722D01*
G37*
G04 #@! TD.AperFunction*
G04 #@! TA.AperFunction,SMDPad,CuDef*
G36*
X261632703Y-146639722D02*
G01*
X261647264Y-146641882D01*
X261661543Y-146645459D01*
X261675403Y-146650418D01*
X261688710Y-146656712D01*
X261701336Y-146664280D01*
X261713159Y-146673048D01*
X261724066Y-146682934D01*
X261733952Y-146693841D01*
X261742720Y-146705664D01*
X261750288Y-146718290D01*
X261756582Y-146731597D01*
X261761541Y-146745457D01*
X261765118Y-146759736D01*
X261767278Y-146774297D01*
X261768000Y-146789000D01*
X261768000Y-147089000D01*
X261767278Y-147103703D01*
X261765118Y-147118264D01*
X261761541Y-147132543D01*
X261756582Y-147146403D01*
X261750288Y-147159710D01*
X261742720Y-147172336D01*
X261733952Y-147184159D01*
X261724066Y-147195066D01*
X261713159Y-147204952D01*
X261701336Y-147213720D01*
X261688710Y-147221288D01*
X261675403Y-147227582D01*
X261661543Y-147232541D01*
X261647264Y-147236118D01*
X261632703Y-147238278D01*
X261618000Y-147239000D01*
X259968000Y-147239000D01*
X259953297Y-147238278D01*
X259938736Y-147236118D01*
X259924457Y-147232541D01*
X259910597Y-147227582D01*
X259897290Y-147221288D01*
X259884664Y-147213720D01*
X259872841Y-147204952D01*
X259861934Y-147195066D01*
X259852048Y-147184159D01*
X259843280Y-147172336D01*
X259835712Y-147159710D01*
X259829418Y-147146403D01*
X259824459Y-147132543D01*
X259820882Y-147118264D01*
X259818722Y-147103703D01*
X259818000Y-147089000D01*
X259818000Y-146789000D01*
X259818722Y-146774297D01*
X259820882Y-146759736D01*
X259824459Y-146745457D01*
X259829418Y-146731597D01*
X259835712Y-146718290D01*
X259843280Y-146705664D01*
X259852048Y-146693841D01*
X259861934Y-146682934D01*
X259872841Y-146673048D01*
X259884664Y-146664280D01*
X259897290Y-146656712D01*
X259910597Y-146650418D01*
X259924457Y-146645459D01*
X259938736Y-146641882D01*
X259953297Y-146639722D01*
X259968000Y-146639000D01*
X261618000Y-146639000D01*
X261632703Y-146639722D01*
G37*
G04 #@! TD.AperFunction*
G04 #@! TA.AperFunction,SMDPad,CuDef*
G36*
X261632703Y-147909722D02*
G01*
X261647264Y-147911882D01*
X261661543Y-147915459D01*
X261675403Y-147920418D01*
X261688710Y-147926712D01*
X261701336Y-147934280D01*
X261713159Y-147943048D01*
X261724066Y-147952934D01*
X261733952Y-147963841D01*
X261742720Y-147975664D01*
X261750288Y-147988290D01*
X261756582Y-148001597D01*
X261761541Y-148015457D01*
X261765118Y-148029736D01*
X261767278Y-148044297D01*
X261768000Y-148059000D01*
X261768000Y-148359000D01*
X261767278Y-148373703D01*
X261765118Y-148388264D01*
X261761541Y-148402543D01*
X261756582Y-148416403D01*
X261750288Y-148429710D01*
X261742720Y-148442336D01*
X261733952Y-148454159D01*
X261724066Y-148465066D01*
X261713159Y-148474952D01*
X261701336Y-148483720D01*
X261688710Y-148491288D01*
X261675403Y-148497582D01*
X261661543Y-148502541D01*
X261647264Y-148506118D01*
X261632703Y-148508278D01*
X261618000Y-148509000D01*
X259968000Y-148509000D01*
X259953297Y-148508278D01*
X259938736Y-148506118D01*
X259924457Y-148502541D01*
X259910597Y-148497582D01*
X259897290Y-148491288D01*
X259884664Y-148483720D01*
X259872841Y-148474952D01*
X259861934Y-148465066D01*
X259852048Y-148454159D01*
X259843280Y-148442336D01*
X259835712Y-148429710D01*
X259829418Y-148416403D01*
X259824459Y-148402543D01*
X259820882Y-148388264D01*
X259818722Y-148373703D01*
X259818000Y-148359000D01*
X259818000Y-148059000D01*
X259818722Y-148044297D01*
X259820882Y-148029736D01*
X259824459Y-148015457D01*
X259829418Y-148001597D01*
X259835712Y-147988290D01*
X259843280Y-147975664D01*
X259852048Y-147963841D01*
X259861934Y-147952934D01*
X259872841Y-147943048D01*
X259884664Y-147934280D01*
X259897290Y-147926712D01*
X259910597Y-147920418D01*
X259924457Y-147915459D01*
X259938736Y-147911882D01*
X259953297Y-147909722D01*
X259968000Y-147909000D01*
X261618000Y-147909000D01*
X261632703Y-147909722D01*
G37*
G04 #@! TD.AperFunction*
G04 #@! TA.AperFunction,SMDPad,CuDef*
G36*
X256682703Y-147909722D02*
G01*
X256697264Y-147911882D01*
X256711543Y-147915459D01*
X256725403Y-147920418D01*
X256738710Y-147926712D01*
X256751336Y-147934280D01*
X256763159Y-147943048D01*
X256774066Y-147952934D01*
X256783952Y-147963841D01*
X256792720Y-147975664D01*
X256800288Y-147988290D01*
X256806582Y-148001597D01*
X256811541Y-148015457D01*
X256815118Y-148029736D01*
X256817278Y-148044297D01*
X256818000Y-148059000D01*
X256818000Y-148359000D01*
X256817278Y-148373703D01*
X256815118Y-148388264D01*
X256811541Y-148402543D01*
X256806582Y-148416403D01*
X256800288Y-148429710D01*
X256792720Y-148442336D01*
X256783952Y-148454159D01*
X256774066Y-148465066D01*
X256763159Y-148474952D01*
X256751336Y-148483720D01*
X256738710Y-148491288D01*
X256725403Y-148497582D01*
X256711543Y-148502541D01*
X256697264Y-148506118D01*
X256682703Y-148508278D01*
X256668000Y-148509000D01*
X255018000Y-148509000D01*
X255003297Y-148508278D01*
X254988736Y-148506118D01*
X254974457Y-148502541D01*
X254960597Y-148497582D01*
X254947290Y-148491288D01*
X254934664Y-148483720D01*
X254922841Y-148474952D01*
X254911934Y-148465066D01*
X254902048Y-148454159D01*
X254893280Y-148442336D01*
X254885712Y-148429710D01*
X254879418Y-148416403D01*
X254874459Y-148402543D01*
X254870882Y-148388264D01*
X254868722Y-148373703D01*
X254868000Y-148359000D01*
X254868000Y-148059000D01*
X254868722Y-148044297D01*
X254870882Y-148029736D01*
X254874459Y-148015457D01*
X254879418Y-148001597D01*
X254885712Y-147988290D01*
X254893280Y-147975664D01*
X254902048Y-147963841D01*
X254911934Y-147952934D01*
X254922841Y-147943048D01*
X254934664Y-147934280D01*
X254947290Y-147926712D01*
X254960597Y-147920418D01*
X254974457Y-147915459D01*
X254988736Y-147911882D01*
X255003297Y-147909722D01*
X255018000Y-147909000D01*
X256668000Y-147909000D01*
X256682703Y-147909722D01*
G37*
G04 #@! TD.AperFunction*
G04 #@! TA.AperFunction,SMDPad,CuDef*
G36*
X256682703Y-146639722D02*
G01*
X256697264Y-146641882D01*
X256711543Y-146645459D01*
X256725403Y-146650418D01*
X256738710Y-146656712D01*
X256751336Y-146664280D01*
X256763159Y-146673048D01*
X256774066Y-146682934D01*
X256783952Y-146693841D01*
X256792720Y-146705664D01*
X256800288Y-146718290D01*
X256806582Y-146731597D01*
X256811541Y-146745457D01*
X256815118Y-146759736D01*
X256817278Y-146774297D01*
X256818000Y-146789000D01*
X256818000Y-147089000D01*
X256817278Y-147103703D01*
X256815118Y-147118264D01*
X256811541Y-147132543D01*
X256806582Y-147146403D01*
X256800288Y-147159710D01*
X256792720Y-147172336D01*
X256783952Y-147184159D01*
X256774066Y-147195066D01*
X256763159Y-147204952D01*
X256751336Y-147213720D01*
X256738710Y-147221288D01*
X256725403Y-147227582D01*
X256711543Y-147232541D01*
X256697264Y-147236118D01*
X256682703Y-147238278D01*
X256668000Y-147239000D01*
X255018000Y-147239000D01*
X255003297Y-147238278D01*
X254988736Y-147236118D01*
X254974457Y-147232541D01*
X254960597Y-147227582D01*
X254947290Y-147221288D01*
X254934664Y-147213720D01*
X254922841Y-147204952D01*
X254911934Y-147195066D01*
X254902048Y-147184159D01*
X254893280Y-147172336D01*
X254885712Y-147159710D01*
X254879418Y-147146403D01*
X254874459Y-147132543D01*
X254870882Y-147118264D01*
X254868722Y-147103703D01*
X254868000Y-147089000D01*
X254868000Y-146789000D01*
X254868722Y-146774297D01*
X254870882Y-146759736D01*
X254874459Y-146745457D01*
X254879418Y-146731597D01*
X254885712Y-146718290D01*
X254893280Y-146705664D01*
X254902048Y-146693841D01*
X254911934Y-146682934D01*
X254922841Y-146673048D01*
X254934664Y-146664280D01*
X254947290Y-146656712D01*
X254960597Y-146650418D01*
X254974457Y-146645459D01*
X254988736Y-146641882D01*
X255003297Y-146639722D01*
X255018000Y-146639000D01*
X256668000Y-146639000D01*
X256682703Y-146639722D01*
G37*
G04 #@! TD.AperFunction*
G04 #@! TA.AperFunction,SMDPad,CuDef*
G36*
X256682703Y-145369722D02*
G01*
X256697264Y-145371882D01*
X256711543Y-145375459D01*
X256725403Y-145380418D01*
X256738710Y-145386712D01*
X256751336Y-145394280D01*
X256763159Y-145403048D01*
X256774066Y-145412934D01*
X256783952Y-145423841D01*
X256792720Y-145435664D01*
X256800288Y-145448290D01*
X256806582Y-145461597D01*
X256811541Y-145475457D01*
X256815118Y-145489736D01*
X256817278Y-145504297D01*
X256818000Y-145519000D01*
X256818000Y-145819000D01*
X256817278Y-145833703D01*
X256815118Y-145848264D01*
X256811541Y-145862543D01*
X256806582Y-145876403D01*
X256800288Y-145889710D01*
X256792720Y-145902336D01*
X256783952Y-145914159D01*
X256774066Y-145925066D01*
X256763159Y-145934952D01*
X256751336Y-145943720D01*
X256738710Y-145951288D01*
X256725403Y-145957582D01*
X256711543Y-145962541D01*
X256697264Y-145966118D01*
X256682703Y-145968278D01*
X256668000Y-145969000D01*
X255018000Y-145969000D01*
X255003297Y-145968278D01*
X254988736Y-145966118D01*
X254974457Y-145962541D01*
X254960597Y-145957582D01*
X254947290Y-145951288D01*
X254934664Y-145943720D01*
X254922841Y-145934952D01*
X254911934Y-145925066D01*
X254902048Y-145914159D01*
X254893280Y-145902336D01*
X254885712Y-145889710D01*
X254879418Y-145876403D01*
X254874459Y-145862543D01*
X254870882Y-145848264D01*
X254868722Y-145833703D01*
X254868000Y-145819000D01*
X254868000Y-145519000D01*
X254868722Y-145504297D01*
X254870882Y-145489736D01*
X254874459Y-145475457D01*
X254879418Y-145461597D01*
X254885712Y-145448290D01*
X254893280Y-145435664D01*
X254902048Y-145423841D01*
X254911934Y-145412934D01*
X254922841Y-145403048D01*
X254934664Y-145394280D01*
X254947290Y-145386712D01*
X254960597Y-145380418D01*
X254974457Y-145375459D01*
X254988736Y-145371882D01*
X255003297Y-145369722D01*
X255018000Y-145369000D01*
X256668000Y-145369000D01*
X256682703Y-145369722D01*
G37*
G04 #@! TD.AperFunction*
G04 #@! TA.AperFunction,SMDPad,CuDef*
G36*
X256682703Y-144099722D02*
G01*
X256697264Y-144101882D01*
X256711543Y-144105459D01*
X256725403Y-144110418D01*
X256738710Y-144116712D01*
X256751336Y-144124280D01*
X256763159Y-144133048D01*
X256774066Y-144142934D01*
X256783952Y-144153841D01*
X256792720Y-144165664D01*
X256800288Y-144178290D01*
X256806582Y-144191597D01*
X256811541Y-144205457D01*
X256815118Y-144219736D01*
X256817278Y-144234297D01*
X256818000Y-144249000D01*
X256818000Y-144549000D01*
X256817278Y-144563703D01*
X256815118Y-144578264D01*
X256811541Y-144592543D01*
X256806582Y-144606403D01*
X256800288Y-144619710D01*
X256792720Y-144632336D01*
X256783952Y-144644159D01*
X256774066Y-144655066D01*
X256763159Y-144664952D01*
X256751336Y-144673720D01*
X256738710Y-144681288D01*
X256725403Y-144687582D01*
X256711543Y-144692541D01*
X256697264Y-144696118D01*
X256682703Y-144698278D01*
X256668000Y-144699000D01*
X255018000Y-144699000D01*
X255003297Y-144698278D01*
X254988736Y-144696118D01*
X254974457Y-144692541D01*
X254960597Y-144687582D01*
X254947290Y-144681288D01*
X254934664Y-144673720D01*
X254922841Y-144664952D01*
X254911934Y-144655066D01*
X254902048Y-144644159D01*
X254893280Y-144632336D01*
X254885712Y-144619710D01*
X254879418Y-144606403D01*
X254874459Y-144592543D01*
X254870882Y-144578264D01*
X254868722Y-144563703D01*
X254868000Y-144549000D01*
X254868000Y-144249000D01*
X254868722Y-144234297D01*
X254870882Y-144219736D01*
X254874459Y-144205457D01*
X254879418Y-144191597D01*
X254885712Y-144178290D01*
X254893280Y-144165664D01*
X254902048Y-144153841D01*
X254911934Y-144142934D01*
X254922841Y-144133048D01*
X254934664Y-144124280D01*
X254947290Y-144116712D01*
X254960597Y-144110418D01*
X254974457Y-144105459D01*
X254988736Y-144101882D01*
X255003297Y-144099722D01*
X255018000Y-144099000D01*
X256668000Y-144099000D01*
X256682703Y-144099722D01*
G37*
G04 #@! TD.AperFunction*
G04 #@! TA.AperFunction,SMDPad,CuDef*
G36*
X256682703Y-142829722D02*
G01*
X256697264Y-142831882D01*
X256711543Y-142835459D01*
X256725403Y-142840418D01*
X256738710Y-142846712D01*
X256751336Y-142854280D01*
X256763159Y-142863048D01*
X256774066Y-142872934D01*
X256783952Y-142883841D01*
X256792720Y-142895664D01*
X256800288Y-142908290D01*
X256806582Y-142921597D01*
X256811541Y-142935457D01*
X256815118Y-142949736D01*
X256817278Y-142964297D01*
X256818000Y-142979000D01*
X256818000Y-143279000D01*
X256817278Y-143293703D01*
X256815118Y-143308264D01*
X256811541Y-143322543D01*
X256806582Y-143336403D01*
X256800288Y-143349710D01*
X256792720Y-143362336D01*
X256783952Y-143374159D01*
X256774066Y-143385066D01*
X256763159Y-143394952D01*
X256751336Y-143403720D01*
X256738710Y-143411288D01*
X256725403Y-143417582D01*
X256711543Y-143422541D01*
X256697264Y-143426118D01*
X256682703Y-143428278D01*
X256668000Y-143429000D01*
X255018000Y-143429000D01*
X255003297Y-143428278D01*
X254988736Y-143426118D01*
X254974457Y-143422541D01*
X254960597Y-143417582D01*
X254947290Y-143411288D01*
X254934664Y-143403720D01*
X254922841Y-143394952D01*
X254911934Y-143385066D01*
X254902048Y-143374159D01*
X254893280Y-143362336D01*
X254885712Y-143349710D01*
X254879418Y-143336403D01*
X254874459Y-143322543D01*
X254870882Y-143308264D01*
X254868722Y-143293703D01*
X254868000Y-143279000D01*
X254868000Y-142979000D01*
X254868722Y-142964297D01*
X254870882Y-142949736D01*
X254874459Y-142935457D01*
X254879418Y-142921597D01*
X254885712Y-142908290D01*
X254893280Y-142895664D01*
X254902048Y-142883841D01*
X254911934Y-142872934D01*
X254922841Y-142863048D01*
X254934664Y-142854280D01*
X254947290Y-142846712D01*
X254960597Y-142840418D01*
X254974457Y-142835459D01*
X254988736Y-142831882D01*
X255003297Y-142829722D01*
X255018000Y-142829000D01*
X256668000Y-142829000D01*
X256682703Y-142829722D01*
G37*
G04 #@! TD.AperFunction*
G04 #@! TA.AperFunction,SMDPad,CuDef*
G36*
X256682703Y-141559722D02*
G01*
X256697264Y-141561882D01*
X256711543Y-141565459D01*
X256725403Y-141570418D01*
X256738710Y-141576712D01*
X256751336Y-141584280D01*
X256763159Y-141593048D01*
X256774066Y-141602934D01*
X256783952Y-141613841D01*
X256792720Y-141625664D01*
X256800288Y-141638290D01*
X256806582Y-141651597D01*
X256811541Y-141665457D01*
X256815118Y-141679736D01*
X256817278Y-141694297D01*
X256818000Y-141709000D01*
X256818000Y-142009000D01*
X256817278Y-142023703D01*
X256815118Y-142038264D01*
X256811541Y-142052543D01*
X256806582Y-142066403D01*
X256800288Y-142079710D01*
X256792720Y-142092336D01*
X256783952Y-142104159D01*
X256774066Y-142115066D01*
X256763159Y-142124952D01*
X256751336Y-142133720D01*
X256738710Y-142141288D01*
X256725403Y-142147582D01*
X256711543Y-142152541D01*
X256697264Y-142156118D01*
X256682703Y-142158278D01*
X256668000Y-142159000D01*
X255018000Y-142159000D01*
X255003297Y-142158278D01*
X254988736Y-142156118D01*
X254974457Y-142152541D01*
X254960597Y-142147582D01*
X254947290Y-142141288D01*
X254934664Y-142133720D01*
X254922841Y-142124952D01*
X254911934Y-142115066D01*
X254902048Y-142104159D01*
X254893280Y-142092336D01*
X254885712Y-142079710D01*
X254879418Y-142066403D01*
X254874459Y-142052543D01*
X254870882Y-142038264D01*
X254868722Y-142023703D01*
X254868000Y-142009000D01*
X254868000Y-141709000D01*
X254868722Y-141694297D01*
X254870882Y-141679736D01*
X254874459Y-141665457D01*
X254879418Y-141651597D01*
X254885712Y-141638290D01*
X254893280Y-141625664D01*
X254902048Y-141613841D01*
X254911934Y-141602934D01*
X254922841Y-141593048D01*
X254934664Y-141584280D01*
X254947290Y-141576712D01*
X254960597Y-141570418D01*
X254974457Y-141565459D01*
X254988736Y-141561882D01*
X255003297Y-141559722D01*
X255018000Y-141559000D01*
X256668000Y-141559000D01*
X256682703Y-141559722D01*
G37*
G04 #@! TD.AperFunction*
G04 #@! TA.AperFunction,SMDPad,CuDef*
G36*
X256682703Y-140289722D02*
G01*
X256697264Y-140291882D01*
X256711543Y-140295459D01*
X256725403Y-140300418D01*
X256738710Y-140306712D01*
X256751336Y-140314280D01*
X256763159Y-140323048D01*
X256774066Y-140332934D01*
X256783952Y-140343841D01*
X256792720Y-140355664D01*
X256800288Y-140368290D01*
X256806582Y-140381597D01*
X256811541Y-140395457D01*
X256815118Y-140409736D01*
X256817278Y-140424297D01*
X256818000Y-140439000D01*
X256818000Y-140739000D01*
X256817278Y-140753703D01*
X256815118Y-140768264D01*
X256811541Y-140782543D01*
X256806582Y-140796403D01*
X256800288Y-140809710D01*
X256792720Y-140822336D01*
X256783952Y-140834159D01*
X256774066Y-140845066D01*
X256763159Y-140854952D01*
X256751336Y-140863720D01*
X256738710Y-140871288D01*
X256725403Y-140877582D01*
X256711543Y-140882541D01*
X256697264Y-140886118D01*
X256682703Y-140888278D01*
X256668000Y-140889000D01*
X255018000Y-140889000D01*
X255003297Y-140888278D01*
X254988736Y-140886118D01*
X254974457Y-140882541D01*
X254960597Y-140877582D01*
X254947290Y-140871288D01*
X254934664Y-140863720D01*
X254922841Y-140854952D01*
X254911934Y-140845066D01*
X254902048Y-140834159D01*
X254893280Y-140822336D01*
X254885712Y-140809710D01*
X254879418Y-140796403D01*
X254874459Y-140782543D01*
X254870882Y-140768264D01*
X254868722Y-140753703D01*
X254868000Y-140739000D01*
X254868000Y-140439000D01*
X254868722Y-140424297D01*
X254870882Y-140409736D01*
X254874459Y-140395457D01*
X254879418Y-140381597D01*
X254885712Y-140368290D01*
X254893280Y-140355664D01*
X254902048Y-140343841D01*
X254911934Y-140332934D01*
X254922841Y-140323048D01*
X254934664Y-140314280D01*
X254947290Y-140306712D01*
X254960597Y-140300418D01*
X254974457Y-140295459D01*
X254988736Y-140291882D01*
X255003297Y-140289722D01*
X255018000Y-140289000D01*
X256668000Y-140289000D01*
X256682703Y-140289722D01*
G37*
G04 #@! TD.AperFunction*
D17*
X272796000Y-125476000D03*
X270256000Y-125476000D03*
D18*
X267716000Y-125476000D03*
D17*
X292100000Y-125984000D03*
X289560000Y-125984000D03*
D18*
X287020000Y-125984000D03*
D19*
X272796000Y-138684000D03*
X270256000Y-138684000D03*
X267716000Y-138684000D03*
X292100000Y-138684000D03*
X289560000Y-138684000D03*
X287020000Y-138684000D03*
G04 #@! TA.AperFunction,SMDPad,CuDef*
D16*
G36*
X267725505Y-129222204D02*
G01*
X267749773Y-129225804D01*
X267773572Y-129231765D01*
X267796671Y-129240030D01*
X267818850Y-129250520D01*
X267839893Y-129263132D01*
X267859599Y-129277747D01*
X267877777Y-129294223D01*
X267894253Y-129312401D01*
X267908868Y-129332107D01*
X267921480Y-129353150D01*
X267931970Y-129375329D01*
X267940235Y-129398428D01*
X267946196Y-129422227D01*
X267949796Y-129446495D01*
X267951000Y-129470999D01*
X267951000Y-130371001D01*
X267949796Y-130395505D01*
X267946196Y-130419773D01*
X267940235Y-130443572D01*
X267931970Y-130466671D01*
X267921480Y-130488850D01*
X267908868Y-130509893D01*
X267894253Y-130529599D01*
X267877777Y-130547777D01*
X267859599Y-130564253D01*
X267839893Y-130578868D01*
X267818850Y-130591480D01*
X267796671Y-130601970D01*
X267773572Y-130610235D01*
X267749773Y-130616196D01*
X267725505Y-130619796D01*
X267701001Y-130621000D01*
X267000999Y-130621000D01*
X266976495Y-130619796D01*
X266952227Y-130616196D01*
X266928428Y-130610235D01*
X266905329Y-130601970D01*
X266883150Y-130591480D01*
X266862107Y-130578868D01*
X266842401Y-130564253D01*
X266824223Y-130547777D01*
X266807747Y-130529599D01*
X266793132Y-130509893D01*
X266780520Y-130488850D01*
X266770030Y-130466671D01*
X266761765Y-130443572D01*
X266755804Y-130419773D01*
X266752204Y-130395505D01*
X266751000Y-130371001D01*
X266751000Y-129470999D01*
X266752204Y-129446495D01*
X266755804Y-129422227D01*
X266761765Y-129398428D01*
X266770030Y-129375329D01*
X266780520Y-129353150D01*
X266793132Y-129332107D01*
X266807747Y-129312401D01*
X266824223Y-129294223D01*
X266842401Y-129277747D01*
X266862107Y-129263132D01*
X266883150Y-129250520D01*
X266905329Y-129240030D01*
X266928428Y-129231765D01*
X266952227Y-129225804D01*
X266976495Y-129222204D01*
X267000999Y-129221000D01*
X267701001Y-129221000D01*
X267725505Y-129222204D01*
G37*
G04 #@! TD.AperFunction*
G04 #@! TA.AperFunction,SMDPad,CuDef*
G36*
X269725505Y-129222204D02*
G01*
X269749773Y-129225804D01*
X269773572Y-129231765D01*
X269796671Y-129240030D01*
X269818850Y-129250520D01*
X269839893Y-129263132D01*
X269859599Y-129277747D01*
X269877777Y-129294223D01*
X269894253Y-129312401D01*
X269908868Y-129332107D01*
X269921480Y-129353150D01*
X269931970Y-129375329D01*
X269940235Y-129398428D01*
X269946196Y-129422227D01*
X269949796Y-129446495D01*
X269951000Y-129470999D01*
X269951000Y-130371001D01*
X269949796Y-130395505D01*
X269946196Y-130419773D01*
X269940235Y-130443572D01*
X269931970Y-130466671D01*
X269921480Y-130488850D01*
X269908868Y-130509893D01*
X269894253Y-130529599D01*
X269877777Y-130547777D01*
X269859599Y-130564253D01*
X269839893Y-130578868D01*
X269818850Y-130591480D01*
X269796671Y-130601970D01*
X269773572Y-130610235D01*
X269749773Y-130616196D01*
X269725505Y-130619796D01*
X269701001Y-130621000D01*
X269000999Y-130621000D01*
X268976495Y-130619796D01*
X268952227Y-130616196D01*
X268928428Y-130610235D01*
X268905329Y-130601970D01*
X268883150Y-130591480D01*
X268862107Y-130578868D01*
X268842401Y-130564253D01*
X268824223Y-130547777D01*
X268807747Y-130529599D01*
X268793132Y-130509893D01*
X268780520Y-130488850D01*
X268770030Y-130466671D01*
X268761765Y-130443572D01*
X268755804Y-130419773D01*
X268752204Y-130395505D01*
X268751000Y-130371001D01*
X268751000Y-129470999D01*
X268752204Y-129446495D01*
X268755804Y-129422227D01*
X268761765Y-129398428D01*
X268770030Y-129375329D01*
X268780520Y-129353150D01*
X268793132Y-129332107D01*
X268807747Y-129312401D01*
X268824223Y-129294223D01*
X268842401Y-129277747D01*
X268862107Y-129263132D01*
X268883150Y-129250520D01*
X268905329Y-129240030D01*
X268928428Y-129231765D01*
X268952227Y-129225804D01*
X268976495Y-129222204D01*
X269000999Y-129221000D01*
X269701001Y-129221000D01*
X269725505Y-129222204D01*
G37*
G04 #@! TD.AperFunction*
G04 #@! TA.AperFunction,SMDPad,CuDef*
G36*
X287156505Y-129730204D02*
G01*
X287180773Y-129733804D01*
X287204572Y-129739765D01*
X287227671Y-129748030D01*
X287249850Y-129758520D01*
X287270893Y-129771132D01*
X287290599Y-129785747D01*
X287308777Y-129802223D01*
X287325253Y-129820401D01*
X287339868Y-129840107D01*
X287352480Y-129861150D01*
X287362970Y-129883329D01*
X287371235Y-129906428D01*
X287377196Y-129930227D01*
X287380796Y-129954495D01*
X287382000Y-129978999D01*
X287382000Y-130879001D01*
X287380796Y-130903505D01*
X287377196Y-130927773D01*
X287371235Y-130951572D01*
X287362970Y-130974671D01*
X287352480Y-130996850D01*
X287339868Y-131017893D01*
X287325253Y-131037599D01*
X287308777Y-131055777D01*
X287290599Y-131072253D01*
X287270893Y-131086868D01*
X287249850Y-131099480D01*
X287227671Y-131109970D01*
X287204572Y-131118235D01*
X287180773Y-131124196D01*
X287156505Y-131127796D01*
X287132001Y-131129000D01*
X286431999Y-131129000D01*
X286407495Y-131127796D01*
X286383227Y-131124196D01*
X286359428Y-131118235D01*
X286336329Y-131109970D01*
X286314150Y-131099480D01*
X286293107Y-131086868D01*
X286273401Y-131072253D01*
X286255223Y-131055777D01*
X286238747Y-131037599D01*
X286224132Y-131017893D01*
X286211520Y-130996850D01*
X286201030Y-130974671D01*
X286192765Y-130951572D01*
X286186804Y-130927773D01*
X286183204Y-130903505D01*
X286182000Y-130879001D01*
X286182000Y-129978999D01*
X286183204Y-129954495D01*
X286186804Y-129930227D01*
X286192765Y-129906428D01*
X286201030Y-129883329D01*
X286211520Y-129861150D01*
X286224132Y-129840107D01*
X286238747Y-129820401D01*
X286255223Y-129802223D01*
X286273401Y-129785747D01*
X286293107Y-129771132D01*
X286314150Y-129758520D01*
X286336329Y-129748030D01*
X286359428Y-129739765D01*
X286383227Y-129733804D01*
X286407495Y-129730204D01*
X286431999Y-129729000D01*
X287132001Y-129729000D01*
X287156505Y-129730204D01*
G37*
G04 #@! TD.AperFunction*
G04 #@! TA.AperFunction,SMDPad,CuDef*
G36*
X289156505Y-129730204D02*
G01*
X289180773Y-129733804D01*
X289204572Y-129739765D01*
X289227671Y-129748030D01*
X289249850Y-129758520D01*
X289270893Y-129771132D01*
X289290599Y-129785747D01*
X289308777Y-129802223D01*
X289325253Y-129820401D01*
X289339868Y-129840107D01*
X289352480Y-129861150D01*
X289362970Y-129883329D01*
X289371235Y-129906428D01*
X289377196Y-129930227D01*
X289380796Y-129954495D01*
X289382000Y-129978999D01*
X289382000Y-130879001D01*
X289380796Y-130903505D01*
X289377196Y-130927773D01*
X289371235Y-130951572D01*
X289362970Y-130974671D01*
X289352480Y-130996850D01*
X289339868Y-131017893D01*
X289325253Y-131037599D01*
X289308777Y-131055777D01*
X289290599Y-131072253D01*
X289270893Y-131086868D01*
X289249850Y-131099480D01*
X289227671Y-131109970D01*
X289204572Y-131118235D01*
X289180773Y-131124196D01*
X289156505Y-131127796D01*
X289132001Y-131129000D01*
X288431999Y-131129000D01*
X288407495Y-131127796D01*
X288383227Y-131124196D01*
X288359428Y-131118235D01*
X288336329Y-131109970D01*
X288314150Y-131099480D01*
X288293107Y-131086868D01*
X288273401Y-131072253D01*
X288255223Y-131055777D01*
X288238747Y-131037599D01*
X288224132Y-131017893D01*
X288211520Y-130996850D01*
X288201030Y-130974671D01*
X288192765Y-130951572D01*
X288186804Y-130927773D01*
X288183204Y-130903505D01*
X288182000Y-130879001D01*
X288182000Y-129978999D01*
X288183204Y-129954495D01*
X288186804Y-129930227D01*
X288192765Y-129906428D01*
X288201030Y-129883329D01*
X288211520Y-129861150D01*
X288224132Y-129840107D01*
X288238747Y-129820401D01*
X288255223Y-129802223D01*
X288273401Y-129785747D01*
X288293107Y-129771132D01*
X288314150Y-129758520D01*
X288336329Y-129748030D01*
X288359428Y-129739765D01*
X288383227Y-129733804D01*
X288407495Y-129730204D01*
X288431999Y-129729000D01*
X289132001Y-129729000D01*
X289156505Y-129730204D01*
G37*
G04 #@! TD.AperFunction*
D20*
X272796000Y-132206000D03*
X272796000Y-128906000D03*
X292100000Y-132714000D03*
X292100000Y-129414000D03*
G04 #@! TA.AperFunction,SMDPad,CuDef*
D16*
G36*
X257388504Y-137198204D02*
G01*
X257412773Y-137201804D01*
X257436571Y-137207765D01*
X257459671Y-137216030D01*
X257481849Y-137226520D01*
X257502893Y-137239133D01*
X257522598Y-137253747D01*
X257540777Y-137270223D01*
X257557253Y-137288402D01*
X257571867Y-137308107D01*
X257584480Y-137329151D01*
X257594970Y-137351329D01*
X257603235Y-137374429D01*
X257609196Y-137398227D01*
X257612796Y-137422496D01*
X257614000Y-137447000D01*
X257614000Y-138397000D01*
X257612796Y-138421504D01*
X257609196Y-138445773D01*
X257603235Y-138469571D01*
X257594970Y-138492671D01*
X257584480Y-138514849D01*
X257571867Y-138535893D01*
X257557253Y-138555598D01*
X257540777Y-138573777D01*
X257522598Y-138590253D01*
X257502893Y-138604867D01*
X257481849Y-138617480D01*
X257459671Y-138627970D01*
X257436571Y-138636235D01*
X257412773Y-138642196D01*
X257388504Y-138645796D01*
X257364000Y-138647000D01*
X256689000Y-138647000D01*
X256664496Y-138645796D01*
X256640227Y-138642196D01*
X256616429Y-138636235D01*
X256593329Y-138627970D01*
X256571151Y-138617480D01*
X256550107Y-138604867D01*
X256530402Y-138590253D01*
X256512223Y-138573777D01*
X256495747Y-138555598D01*
X256481133Y-138535893D01*
X256468520Y-138514849D01*
X256458030Y-138492671D01*
X256449765Y-138469571D01*
X256443804Y-138445773D01*
X256440204Y-138421504D01*
X256439000Y-138397000D01*
X256439000Y-137447000D01*
X256440204Y-137422496D01*
X256443804Y-137398227D01*
X256449765Y-137374429D01*
X256458030Y-137351329D01*
X256468520Y-137329151D01*
X256481133Y-137308107D01*
X256495747Y-137288402D01*
X256512223Y-137270223D01*
X256530402Y-137253747D01*
X256550107Y-137239133D01*
X256571151Y-137226520D01*
X256593329Y-137216030D01*
X256616429Y-137207765D01*
X256640227Y-137201804D01*
X256664496Y-137198204D01*
X256689000Y-137197000D01*
X257364000Y-137197000D01*
X257388504Y-137198204D01*
G37*
G04 #@! TD.AperFunction*
G04 #@! TA.AperFunction,SMDPad,CuDef*
G36*
X259463504Y-137198204D02*
G01*
X259487773Y-137201804D01*
X259511571Y-137207765D01*
X259534671Y-137216030D01*
X259556849Y-137226520D01*
X259577893Y-137239133D01*
X259597598Y-137253747D01*
X259615777Y-137270223D01*
X259632253Y-137288402D01*
X259646867Y-137308107D01*
X259659480Y-137329151D01*
X259669970Y-137351329D01*
X259678235Y-137374429D01*
X259684196Y-137398227D01*
X259687796Y-137422496D01*
X259689000Y-137447000D01*
X259689000Y-138397000D01*
X259687796Y-138421504D01*
X259684196Y-138445773D01*
X259678235Y-138469571D01*
X259669970Y-138492671D01*
X259659480Y-138514849D01*
X259646867Y-138535893D01*
X259632253Y-138555598D01*
X259615777Y-138573777D01*
X259597598Y-138590253D01*
X259577893Y-138604867D01*
X259556849Y-138617480D01*
X259534671Y-138627970D01*
X259511571Y-138636235D01*
X259487773Y-138642196D01*
X259463504Y-138645796D01*
X259439000Y-138647000D01*
X258764000Y-138647000D01*
X258739496Y-138645796D01*
X258715227Y-138642196D01*
X258691429Y-138636235D01*
X258668329Y-138627970D01*
X258646151Y-138617480D01*
X258625107Y-138604867D01*
X258605402Y-138590253D01*
X258587223Y-138573777D01*
X258570747Y-138555598D01*
X258556133Y-138535893D01*
X258543520Y-138514849D01*
X258533030Y-138492671D01*
X258524765Y-138469571D01*
X258518804Y-138445773D01*
X258515204Y-138421504D01*
X258514000Y-138397000D01*
X258514000Y-137447000D01*
X258515204Y-137422496D01*
X258518804Y-137398227D01*
X258524765Y-137374429D01*
X258533030Y-137351329D01*
X258543520Y-137329151D01*
X258556133Y-137308107D01*
X258570747Y-137288402D01*
X258587223Y-137270223D01*
X258605402Y-137253747D01*
X258625107Y-137239133D01*
X258646151Y-137226520D01*
X258668329Y-137216030D01*
X258691429Y-137207765D01*
X258715227Y-137201804D01*
X258739496Y-137198204D01*
X258764000Y-137197000D01*
X259439000Y-137197000D01*
X259463504Y-137198204D01*
G37*
G04 #@! TD.AperFunction*
G04 #@! TA.AperFunction,SMDPad,CuDef*
G36*
X262754504Y-127070204D02*
G01*
X262778773Y-127073804D01*
X262802571Y-127079765D01*
X262825671Y-127088030D01*
X262847849Y-127098520D01*
X262868893Y-127111133D01*
X262888598Y-127125747D01*
X262906777Y-127142223D01*
X262923253Y-127160402D01*
X262937867Y-127180107D01*
X262950480Y-127201151D01*
X262960970Y-127223329D01*
X262969235Y-127246429D01*
X262975196Y-127270227D01*
X262978796Y-127294496D01*
X262980000Y-127319000D01*
X262980000Y-127994000D01*
X262978796Y-128018504D01*
X262975196Y-128042773D01*
X262969235Y-128066571D01*
X262960970Y-128089671D01*
X262950480Y-128111849D01*
X262937867Y-128132893D01*
X262923253Y-128152598D01*
X262906777Y-128170777D01*
X262888598Y-128187253D01*
X262868893Y-128201867D01*
X262847849Y-128214480D01*
X262825671Y-128224970D01*
X262802571Y-128233235D01*
X262778773Y-128239196D01*
X262754504Y-128242796D01*
X262730000Y-128244000D01*
X261780000Y-128244000D01*
X261755496Y-128242796D01*
X261731227Y-128239196D01*
X261707429Y-128233235D01*
X261684329Y-128224970D01*
X261662151Y-128214480D01*
X261641107Y-128201867D01*
X261621402Y-128187253D01*
X261603223Y-128170777D01*
X261586747Y-128152598D01*
X261572133Y-128132893D01*
X261559520Y-128111849D01*
X261549030Y-128089671D01*
X261540765Y-128066571D01*
X261534804Y-128042773D01*
X261531204Y-128018504D01*
X261530000Y-127994000D01*
X261530000Y-127319000D01*
X261531204Y-127294496D01*
X261534804Y-127270227D01*
X261540765Y-127246429D01*
X261549030Y-127223329D01*
X261559520Y-127201151D01*
X261572133Y-127180107D01*
X261586747Y-127160402D01*
X261603223Y-127142223D01*
X261621402Y-127125747D01*
X261641107Y-127111133D01*
X261662151Y-127098520D01*
X261684329Y-127088030D01*
X261707429Y-127079765D01*
X261731227Y-127073804D01*
X261755496Y-127070204D01*
X261780000Y-127069000D01*
X262730000Y-127069000D01*
X262754504Y-127070204D01*
G37*
G04 #@! TD.AperFunction*
G04 #@! TA.AperFunction,SMDPad,CuDef*
G36*
X262754504Y-124995204D02*
G01*
X262778773Y-124998804D01*
X262802571Y-125004765D01*
X262825671Y-125013030D01*
X262847849Y-125023520D01*
X262868893Y-125036133D01*
X262888598Y-125050747D01*
X262906777Y-125067223D01*
X262923253Y-125085402D01*
X262937867Y-125105107D01*
X262950480Y-125126151D01*
X262960970Y-125148329D01*
X262969235Y-125171429D01*
X262975196Y-125195227D01*
X262978796Y-125219496D01*
X262980000Y-125244000D01*
X262980000Y-125919000D01*
X262978796Y-125943504D01*
X262975196Y-125967773D01*
X262969235Y-125991571D01*
X262960970Y-126014671D01*
X262950480Y-126036849D01*
X262937867Y-126057893D01*
X262923253Y-126077598D01*
X262906777Y-126095777D01*
X262888598Y-126112253D01*
X262868893Y-126126867D01*
X262847849Y-126139480D01*
X262825671Y-126149970D01*
X262802571Y-126158235D01*
X262778773Y-126164196D01*
X262754504Y-126167796D01*
X262730000Y-126169000D01*
X261780000Y-126169000D01*
X261755496Y-126167796D01*
X261731227Y-126164196D01*
X261707429Y-126158235D01*
X261684329Y-126149970D01*
X261662151Y-126139480D01*
X261641107Y-126126867D01*
X261621402Y-126112253D01*
X261603223Y-126095777D01*
X261586747Y-126077598D01*
X261572133Y-126057893D01*
X261559520Y-126036849D01*
X261549030Y-126014671D01*
X261540765Y-125991571D01*
X261534804Y-125967773D01*
X261531204Y-125943504D01*
X261530000Y-125919000D01*
X261530000Y-125244000D01*
X261531204Y-125219496D01*
X261534804Y-125195227D01*
X261540765Y-125171429D01*
X261549030Y-125148329D01*
X261559520Y-125126151D01*
X261572133Y-125105107D01*
X261586747Y-125085402D01*
X261603223Y-125067223D01*
X261621402Y-125050747D01*
X261641107Y-125036133D01*
X261662151Y-125023520D01*
X261684329Y-125013030D01*
X261707429Y-125004765D01*
X261731227Y-124998804D01*
X261755496Y-124995204D01*
X261780000Y-124994000D01*
X262730000Y-124994000D01*
X262754504Y-124995204D01*
G37*
G04 #@! TD.AperFunction*
G04 #@! TA.AperFunction,SMDPad,CuDef*
G36*
X270280004Y-119545204D02*
G01*
X270304273Y-119548804D01*
X270328071Y-119554765D01*
X270351171Y-119563030D01*
X270373349Y-119573520D01*
X270394393Y-119586133D01*
X270414098Y-119600747D01*
X270432277Y-119617223D01*
X270448753Y-119635402D01*
X270463367Y-119655107D01*
X270475980Y-119676151D01*
X270486470Y-119698329D01*
X270494735Y-119721429D01*
X270500696Y-119745227D01*
X270504296Y-119769496D01*
X270505500Y-119794000D01*
X270505500Y-120744000D01*
X270504296Y-120768504D01*
X270500696Y-120792773D01*
X270494735Y-120816571D01*
X270486470Y-120839671D01*
X270475980Y-120861849D01*
X270463367Y-120882893D01*
X270448753Y-120902598D01*
X270432277Y-120920777D01*
X270414098Y-120937253D01*
X270394393Y-120951867D01*
X270373349Y-120964480D01*
X270351171Y-120974970D01*
X270328071Y-120983235D01*
X270304273Y-120989196D01*
X270280004Y-120992796D01*
X270255500Y-120994000D01*
X269580500Y-120994000D01*
X269555996Y-120992796D01*
X269531727Y-120989196D01*
X269507929Y-120983235D01*
X269484829Y-120974970D01*
X269462651Y-120964480D01*
X269441607Y-120951867D01*
X269421902Y-120937253D01*
X269403723Y-120920777D01*
X269387247Y-120902598D01*
X269372633Y-120882893D01*
X269360020Y-120861849D01*
X269349530Y-120839671D01*
X269341265Y-120816571D01*
X269335304Y-120792773D01*
X269331704Y-120768504D01*
X269330500Y-120744000D01*
X269330500Y-119794000D01*
X269331704Y-119769496D01*
X269335304Y-119745227D01*
X269341265Y-119721429D01*
X269349530Y-119698329D01*
X269360020Y-119676151D01*
X269372633Y-119655107D01*
X269387247Y-119635402D01*
X269403723Y-119617223D01*
X269421902Y-119600747D01*
X269441607Y-119586133D01*
X269462651Y-119573520D01*
X269484829Y-119563030D01*
X269507929Y-119554765D01*
X269531727Y-119548804D01*
X269555996Y-119545204D01*
X269580500Y-119544000D01*
X270255500Y-119544000D01*
X270280004Y-119545204D01*
G37*
G04 #@! TD.AperFunction*
G04 #@! TA.AperFunction,SMDPad,CuDef*
G36*
X268205004Y-119545204D02*
G01*
X268229273Y-119548804D01*
X268253071Y-119554765D01*
X268276171Y-119563030D01*
X268298349Y-119573520D01*
X268319393Y-119586133D01*
X268339098Y-119600747D01*
X268357277Y-119617223D01*
X268373753Y-119635402D01*
X268388367Y-119655107D01*
X268400980Y-119676151D01*
X268411470Y-119698329D01*
X268419735Y-119721429D01*
X268425696Y-119745227D01*
X268429296Y-119769496D01*
X268430500Y-119794000D01*
X268430500Y-120744000D01*
X268429296Y-120768504D01*
X268425696Y-120792773D01*
X268419735Y-120816571D01*
X268411470Y-120839671D01*
X268400980Y-120861849D01*
X268388367Y-120882893D01*
X268373753Y-120902598D01*
X268357277Y-120920777D01*
X268339098Y-120937253D01*
X268319393Y-120951867D01*
X268298349Y-120964480D01*
X268276171Y-120974970D01*
X268253071Y-120983235D01*
X268229273Y-120989196D01*
X268205004Y-120992796D01*
X268180500Y-120994000D01*
X267505500Y-120994000D01*
X267480996Y-120992796D01*
X267456727Y-120989196D01*
X267432929Y-120983235D01*
X267409829Y-120974970D01*
X267387651Y-120964480D01*
X267366607Y-120951867D01*
X267346902Y-120937253D01*
X267328723Y-120920777D01*
X267312247Y-120902598D01*
X267297633Y-120882893D01*
X267285020Y-120861849D01*
X267274530Y-120839671D01*
X267266265Y-120816571D01*
X267260304Y-120792773D01*
X267256704Y-120768504D01*
X267255500Y-120744000D01*
X267255500Y-119794000D01*
X267256704Y-119769496D01*
X267260304Y-119745227D01*
X267266265Y-119721429D01*
X267274530Y-119698329D01*
X267285020Y-119676151D01*
X267297633Y-119655107D01*
X267312247Y-119635402D01*
X267328723Y-119617223D01*
X267346902Y-119600747D01*
X267366607Y-119586133D01*
X267387651Y-119573520D01*
X267409829Y-119563030D01*
X267432929Y-119554765D01*
X267456727Y-119548804D01*
X267480996Y-119545204D01*
X267505500Y-119544000D01*
X268180500Y-119544000D01*
X268205004Y-119545204D01*
G37*
G04 #@! TD.AperFunction*
G04 #@! TA.AperFunction,SMDPad,CuDef*
G36*
X278121504Y-126816204D02*
G01*
X278145773Y-126819804D01*
X278169571Y-126825765D01*
X278192671Y-126834030D01*
X278214849Y-126844520D01*
X278235893Y-126857133D01*
X278255598Y-126871747D01*
X278273777Y-126888223D01*
X278290253Y-126906402D01*
X278304867Y-126926107D01*
X278317480Y-126947151D01*
X278327970Y-126969329D01*
X278336235Y-126992429D01*
X278342196Y-127016227D01*
X278345796Y-127040496D01*
X278347000Y-127065000D01*
X278347000Y-127740000D01*
X278345796Y-127764504D01*
X278342196Y-127788773D01*
X278336235Y-127812571D01*
X278327970Y-127835671D01*
X278317480Y-127857849D01*
X278304867Y-127878893D01*
X278290253Y-127898598D01*
X278273777Y-127916777D01*
X278255598Y-127933253D01*
X278235893Y-127947867D01*
X278214849Y-127960480D01*
X278192671Y-127970970D01*
X278169571Y-127979235D01*
X278145773Y-127985196D01*
X278121504Y-127988796D01*
X278097000Y-127990000D01*
X277147000Y-127990000D01*
X277122496Y-127988796D01*
X277098227Y-127985196D01*
X277074429Y-127979235D01*
X277051329Y-127970970D01*
X277029151Y-127960480D01*
X277008107Y-127947867D01*
X276988402Y-127933253D01*
X276970223Y-127916777D01*
X276953747Y-127898598D01*
X276939133Y-127878893D01*
X276926520Y-127857849D01*
X276916030Y-127835671D01*
X276907765Y-127812571D01*
X276901804Y-127788773D01*
X276898204Y-127764504D01*
X276897000Y-127740000D01*
X276897000Y-127065000D01*
X276898204Y-127040496D01*
X276901804Y-127016227D01*
X276907765Y-126992429D01*
X276916030Y-126969329D01*
X276926520Y-126947151D01*
X276939133Y-126926107D01*
X276953747Y-126906402D01*
X276970223Y-126888223D01*
X276988402Y-126871747D01*
X277008107Y-126857133D01*
X277029151Y-126844520D01*
X277051329Y-126834030D01*
X277074429Y-126825765D01*
X277098227Y-126819804D01*
X277122496Y-126816204D01*
X277147000Y-126815000D01*
X278097000Y-126815000D01*
X278121504Y-126816204D01*
G37*
G04 #@! TD.AperFunction*
G04 #@! TA.AperFunction,SMDPad,CuDef*
G36*
X278121504Y-124741204D02*
G01*
X278145773Y-124744804D01*
X278169571Y-124750765D01*
X278192671Y-124759030D01*
X278214849Y-124769520D01*
X278235893Y-124782133D01*
X278255598Y-124796747D01*
X278273777Y-124813223D01*
X278290253Y-124831402D01*
X278304867Y-124851107D01*
X278317480Y-124872151D01*
X278327970Y-124894329D01*
X278336235Y-124917429D01*
X278342196Y-124941227D01*
X278345796Y-124965496D01*
X278347000Y-124990000D01*
X278347000Y-125665000D01*
X278345796Y-125689504D01*
X278342196Y-125713773D01*
X278336235Y-125737571D01*
X278327970Y-125760671D01*
X278317480Y-125782849D01*
X278304867Y-125803893D01*
X278290253Y-125823598D01*
X278273777Y-125841777D01*
X278255598Y-125858253D01*
X278235893Y-125872867D01*
X278214849Y-125885480D01*
X278192671Y-125895970D01*
X278169571Y-125904235D01*
X278145773Y-125910196D01*
X278121504Y-125913796D01*
X278097000Y-125915000D01*
X277147000Y-125915000D01*
X277122496Y-125913796D01*
X277098227Y-125910196D01*
X277074429Y-125904235D01*
X277051329Y-125895970D01*
X277029151Y-125885480D01*
X277008107Y-125872867D01*
X276988402Y-125858253D01*
X276970223Y-125841777D01*
X276953747Y-125823598D01*
X276939133Y-125803893D01*
X276926520Y-125782849D01*
X276916030Y-125760671D01*
X276907765Y-125737571D01*
X276901804Y-125713773D01*
X276898204Y-125689504D01*
X276897000Y-125665000D01*
X276897000Y-124990000D01*
X276898204Y-124965496D01*
X276901804Y-124941227D01*
X276907765Y-124917429D01*
X276916030Y-124894329D01*
X276926520Y-124872151D01*
X276939133Y-124851107D01*
X276953747Y-124831402D01*
X276970223Y-124813223D01*
X276988402Y-124796747D01*
X277008107Y-124782133D01*
X277029151Y-124769520D01*
X277051329Y-124759030D01*
X277074429Y-124750765D01*
X277098227Y-124744804D01*
X277122496Y-124741204D01*
X277147000Y-124740000D01*
X278097000Y-124740000D01*
X278121504Y-124741204D01*
G37*
G04 #@! TD.AperFunction*
G04 #@! TA.AperFunction,SMDPad,CuDef*
G36*
X241111004Y-95288204D02*
G01*
X241135273Y-95291804D01*
X241159071Y-95297765D01*
X241182171Y-95306030D01*
X241204349Y-95316520D01*
X241225393Y-95329133D01*
X241245098Y-95343747D01*
X241263277Y-95360223D01*
X241279753Y-95378402D01*
X241294367Y-95398107D01*
X241306980Y-95419151D01*
X241317470Y-95441329D01*
X241325735Y-95464429D01*
X241331696Y-95488227D01*
X241335296Y-95512496D01*
X241336500Y-95537000D01*
X241336500Y-96487000D01*
X241335296Y-96511504D01*
X241331696Y-96535773D01*
X241325735Y-96559571D01*
X241317470Y-96582671D01*
X241306980Y-96604849D01*
X241294367Y-96625893D01*
X241279753Y-96645598D01*
X241263277Y-96663777D01*
X241245098Y-96680253D01*
X241225393Y-96694867D01*
X241204349Y-96707480D01*
X241182171Y-96717970D01*
X241159071Y-96726235D01*
X241135273Y-96732196D01*
X241111004Y-96735796D01*
X241086500Y-96737000D01*
X240411500Y-96737000D01*
X240386996Y-96735796D01*
X240362727Y-96732196D01*
X240338929Y-96726235D01*
X240315829Y-96717970D01*
X240293651Y-96707480D01*
X240272607Y-96694867D01*
X240252902Y-96680253D01*
X240234723Y-96663777D01*
X240218247Y-96645598D01*
X240203633Y-96625893D01*
X240191020Y-96604849D01*
X240180530Y-96582671D01*
X240172265Y-96559571D01*
X240166304Y-96535773D01*
X240162704Y-96511504D01*
X240161500Y-96487000D01*
X240161500Y-95537000D01*
X240162704Y-95512496D01*
X240166304Y-95488227D01*
X240172265Y-95464429D01*
X240180530Y-95441329D01*
X240191020Y-95419151D01*
X240203633Y-95398107D01*
X240218247Y-95378402D01*
X240234723Y-95360223D01*
X240252902Y-95343747D01*
X240272607Y-95329133D01*
X240293651Y-95316520D01*
X240315829Y-95306030D01*
X240338929Y-95297765D01*
X240362727Y-95291804D01*
X240386996Y-95288204D01*
X240411500Y-95287000D01*
X241086500Y-95287000D01*
X241111004Y-95288204D01*
G37*
G04 #@! TD.AperFunction*
G04 #@! TA.AperFunction,SMDPad,CuDef*
G36*
X243186004Y-95288204D02*
G01*
X243210273Y-95291804D01*
X243234071Y-95297765D01*
X243257171Y-95306030D01*
X243279349Y-95316520D01*
X243300393Y-95329133D01*
X243320098Y-95343747D01*
X243338277Y-95360223D01*
X243354753Y-95378402D01*
X243369367Y-95398107D01*
X243381980Y-95419151D01*
X243392470Y-95441329D01*
X243400735Y-95464429D01*
X243406696Y-95488227D01*
X243410296Y-95512496D01*
X243411500Y-95537000D01*
X243411500Y-96487000D01*
X243410296Y-96511504D01*
X243406696Y-96535773D01*
X243400735Y-96559571D01*
X243392470Y-96582671D01*
X243381980Y-96604849D01*
X243369367Y-96625893D01*
X243354753Y-96645598D01*
X243338277Y-96663777D01*
X243320098Y-96680253D01*
X243300393Y-96694867D01*
X243279349Y-96707480D01*
X243257171Y-96717970D01*
X243234071Y-96726235D01*
X243210273Y-96732196D01*
X243186004Y-96735796D01*
X243161500Y-96737000D01*
X242486500Y-96737000D01*
X242461996Y-96735796D01*
X242437727Y-96732196D01*
X242413929Y-96726235D01*
X242390829Y-96717970D01*
X242368651Y-96707480D01*
X242347607Y-96694867D01*
X242327902Y-96680253D01*
X242309723Y-96663777D01*
X242293247Y-96645598D01*
X242278633Y-96625893D01*
X242266020Y-96604849D01*
X242255530Y-96582671D01*
X242247265Y-96559571D01*
X242241304Y-96535773D01*
X242237704Y-96511504D01*
X242236500Y-96487000D01*
X242236500Y-95537000D01*
X242237704Y-95512496D01*
X242241304Y-95488227D01*
X242247265Y-95464429D01*
X242255530Y-95441329D01*
X242266020Y-95419151D01*
X242278633Y-95398107D01*
X242293247Y-95378402D01*
X242309723Y-95360223D01*
X242327902Y-95343747D01*
X242347607Y-95329133D01*
X242368651Y-95316520D01*
X242390829Y-95306030D01*
X242413929Y-95297765D01*
X242437727Y-95291804D01*
X242461996Y-95288204D01*
X242486500Y-95287000D01*
X243161500Y-95287000D01*
X243186004Y-95288204D01*
G37*
G04 #@! TD.AperFunction*
G04 #@! TA.AperFunction,SMDPad,CuDef*
G36*
X283455504Y-127324204D02*
G01*
X283479773Y-127327804D01*
X283503571Y-127333765D01*
X283526671Y-127342030D01*
X283548849Y-127352520D01*
X283569893Y-127365133D01*
X283589598Y-127379747D01*
X283607777Y-127396223D01*
X283624253Y-127414402D01*
X283638867Y-127434107D01*
X283651480Y-127455151D01*
X283661970Y-127477329D01*
X283670235Y-127500429D01*
X283676196Y-127524227D01*
X283679796Y-127548496D01*
X283681000Y-127573000D01*
X283681000Y-128248000D01*
X283679796Y-128272504D01*
X283676196Y-128296773D01*
X283670235Y-128320571D01*
X283661970Y-128343671D01*
X283651480Y-128365849D01*
X283638867Y-128386893D01*
X283624253Y-128406598D01*
X283607777Y-128424777D01*
X283589598Y-128441253D01*
X283569893Y-128455867D01*
X283548849Y-128468480D01*
X283526671Y-128478970D01*
X283503571Y-128487235D01*
X283479773Y-128493196D01*
X283455504Y-128496796D01*
X283431000Y-128498000D01*
X282481000Y-128498000D01*
X282456496Y-128496796D01*
X282432227Y-128493196D01*
X282408429Y-128487235D01*
X282385329Y-128478970D01*
X282363151Y-128468480D01*
X282342107Y-128455867D01*
X282322402Y-128441253D01*
X282304223Y-128424777D01*
X282287747Y-128406598D01*
X282273133Y-128386893D01*
X282260520Y-128365849D01*
X282250030Y-128343671D01*
X282241765Y-128320571D01*
X282235804Y-128296773D01*
X282232204Y-128272504D01*
X282231000Y-128248000D01*
X282231000Y-127573000D01*
X282232204Y-127548496D01*
X282235804Y-127524227D01*
X282241765Y-127500429D01*
X282250030Y-127477329D01*
X282260520Y-127455151D01*
X282273133Y-127434107D01*
X282287747Y-127414402D01*
X282304223Y-127396223D01*
X282322402Y-127379747D01*
X282342107Y-127365133D01*
X282363151Y-127352520D01*
X282385329Y-127342030D01*
X282408429Y-127333765D01*
X282432227Y-127327804D01*
X282456496Y-127324204D01*
X282481000Y-127323000D01*
X283431000Y-127323000D01*
X283455504Y-127324204D01*
G37*
G04 #@! TD.AperFunction*
G04 #@! TA.AperFunction,SMDPad,CuDef*
G36*
X283455504Y-125249204D02*
G01*
X283479773Y-125252804D01*
X283503571Y-125258765D01*
X283526671Y-125267030D01*
X283548849Y-125277520D01*
X283569893Y-125290133D01*
X283589598Y-125304747D01*
X283607777Y-125321223D01*
X283624253Y-125339402D01*
X283638867Y-125359107D01*
X283651480Y-125380151D01*
X283661970Y-125402329D01*
X283670235Y-125425429D01*
X283676196Y-125449227D01*
X283679796Y-125473496D01*
X283681000Y-125498000D01*
X283681000Y-126173000D01*
X283679796Y-126197504D01*
X283676196Y-126221773D01*
X283670235Y-126245571D01*
X283661970Y-126268671D01*
X283651480Y-126290849D01*
X283638867Y-126311893D01*
X283624253Y-126331598D01*
X283607777Y-126349777D01*
X283589598Y-126366253D01*
X283569893Y-126380867D01*
X283548849Y-126393480D01*
X283526671Y-126403970D01*
X283503571Y-126412235D01*
X283479773Y-126418196D01*
X283455504Y-126421796D01*
X283431000Y-126423000D01*
X282481000Y-126423000D01*
X282456496Y-126421796D01*
X282432227Y-126418196D01*
X282408429Y-126412235D01*
X282385329Y-126403970D01*
X282363151Y-126393480D01*
X282342107Y-126380867D01*
X282322402Y-126366253D01*
X282304223Y-126349777D01*
X282287747Y-126331598D01*
X282273133Y-126311893D01*
X282260520Y-126290849D01*
X282250030Y-126268671D01*
X282241765Y-126245571D01*
X282235804Y-126221773D01*
X282232204Y-126197504D01*
X282231000Y-126173000D01*
X282231000Y-125498000D01*
X282232204Y-125473496D01*
X282235804Y-125449227D01*
X282241765Y-125425429D01*
X282250030Y-125402329D01*
X282260520Y-125380151D01*
X282273133Y-125359107D01*
X282287747Y-125339402D01*
X282304223Y-125321223D01*
X282322402Y-125304747D01*
X282342107Y-125290133D01*
X282363151Y-125277520D01*
X282385329Y-125267030D01*
X282408429Y-125258765D01*
X282432227Y-125252804D01*
X282456496Y-125249204D01*
X282481000Y-125248000D01*
X283431000Y-125248000D01*
X283455504Y-125249204D01*
G37*
G04 #@! TD.AperFunction*
G04 #@! TA.AperFunction,SMDPad,CuDef*
G36*
X289541004Y-142532204D02*
G01*
X289565273Y-142535804D01*
X289589071Y-142541765D01*
X289612171Y-142550030D01*
X289634349Y-142560520D01*
X289655393Y-142573133D01*
X289675098Y-142587747D01*
X289693277Y-142604223D01*
X289709753Y-142622402D01*
X289724367Y-142642107D01*
X289736980Y-142663151D01*
X289747470Y-142685329D01*
X289755735Y-142708429D01*
X289761696Y-142732227D01*
X289765296Y-142756496D01*
X289766500Y-142781000D01*
X289766500Y-143731000D01*
X289765296Y-143755504D01*
X289761696Y-143779773D01*
X289755735Y-143803571D01*
X289747470Y-143826671D01*
X289736980Y-143848849D01*
X289724367Y-143869893D01*
X289709753Y-143889598D01*
X289693277Y-143907777D01*
X289675098Y-143924253D01*
X289655393Y-143938867D01*
X289634349Y-143951480D01*
X289612171Y-143961970D01*
X289589071Y-143970235D01*
X289565273Y-143976196D01*
X289541004Y-143979796D01*
X289516500Y-143981000D01*
X288841500Y-143981000D01*
X288816996Y-143979796D01*
X288792727Y-143976196D01*
X288768929Y-143970235D01*
X288745829Y-143961970D01*
X288723651Y-143951480D01*
X288702607Y-143938867D01*
X288682902Y-143924253D01*
X288664723Y-143907777D01*
X288648247Y-143889598D01*
X288633633Y-143869893D01*
X288621020Y-143848849D01*
X288610530Y-143826671D01*
X288602265Y-143803571D01*
X288596304Y-143779773D01*
X288592704Y-143755504D01*
X288591500Y-143731000D01*
X288591500Y-142781000D01*
X288592704Y-142756496D01*
X288596304Y-142732227D01*
X288602265Y-142708429D01*
X288610530Y-142685329D01*
X288621020Y-142663151D01*
X288633633Y-142642107D01*
X288648247Y-142622402D01*
X288664723Y-142604223D01*
X288682902Y-142587747D01*
X288702607Y-142573133D01*
X288723651Y-142560520D01*
X288745829Y-142550030D01*
X288768929Y-142541765D01*
X288792727Y-142535804D01*
X288816996Y-142532204D01*
X288841500Y-142531000D01*
X289516500Y-142531000D01*
X289541004Y-142532204D01*
G37*
G04 #@! TD.AperFunction*
G04 #@! TA.AperFunction,SMDPad,CuDef*
G36*
X287466004Y-142532204D02*
G01*
X287490273Y-142535804D01*
X287514071Y-142541765D01*
X287537171Y-142550030D01*
X287559349Y-142560520D01*
X287580393Y-142573133D01*
X287600098Y-142587747D01*
X287618277Y-142604223D01*
X287634753Y-142622402D01*
X287649367Y-142642107D01*
X287661980Y-142663151D01*
X287672470Y-142685329D01*
X287680735Y-142708429D01*
X287686696Y-142732227D01*
X287690296Y-142756496D01*
X287691500Y-142781000D01*
X287691500Y-143731000D01*
X287690296Y-143755504D01*
X287686696Y-143779773D01*
X287680735Y-143803571D01*
X287672470Y-143826671D01*
X287661980Y-143848849D01*
X287649367Y-143869893D01*
X287634753Y-143889598D01*
X287618277Y-143907777D01*
X287600098Y-143924253D01*
X287580393Y-143938867D01*
X287559349Y-143951480D01*
X287537171Y-143961970D01*
X287514071Y-143970235D01*
X287490273Y-143976196D01*
X287466004Y-143979796D01*
X287441500Y-143981000D01*
X286766500Y-143981000D01*
X286741996Y-143979796D01*
X286717727Y-143976196D01*
X286693929Y-143970235D01*
X286670829Y-143961970D01*
X286648651Y-143951480D01*
X286627607Y-143938867D01*
X286607902Y-143924253D01*
X286589723Y-143907777D01*
X286573247Y-143889598D01*
X286558633Y-143869893D01*
X286546020Y-143848849D01*
X286535530Y-143826671D01*
X286527265Y-143803571D01*
X286521304Y-143779773D01*
X286517704Y-143755504D01*
X286516500Y-143731000D01*
X286516500Y-142781000D01*
X286517704Y-142756496D01*
X286521304Y-142732227D01*
X286527265Y-142708429D01*
X286535530Y-142685329D01*
X286546020Y-142663151D01*
X286558633Y-142642107D01*
X286573247Y-142622402D01*
X286589723Y-142604223D01*
X286607902Y-142587747D01*
X286627607Y-142573133D01*
X286648651Y-142560520D01*
X286670829Y-142550030D01*
X286693929Y-142541765D01*
X286717727Y-142535804D01*
X286741996Y-142532204D01*
X286766500Y-142531000D01*
X287441500Y-142531000D01*
X287466004Y-142532204D01*
G37*
G04 #@! TD.AperFunction*
G04 #@! TA.AperFunction,SMDPad,CuDef*
G36*
X297933504Y-127578204D02*
G01*
X297957773Y-127581804D01*
X297981571Y-127587765D01*
X298004671Y-127596030D01*
X298026849Y-127606520D01*
X298047893Y-127619133D01*
X298067598Y-127633747D01*
X298085777Y-127650223D01*
X298102253Y-127668402D01*
X298116867Y-127688107D01*
X298129480Y-127709151D01*
X298139970Y-127731329D01*
X298148235Y-127754429D01*
X298154196Y-127778227D01*
X298157796Y-127802496D01*
X298159000Y-127827000D01*
X298159000Y-128502000D01*
X298157796Y-128526504D01*
X298154196Y-128550773D01*
X298148235Y-128574571D01*
X298139970Y-128597671D01*
X298129480Y-128619849D01*
X298116867Y-128640893D01*
X298102253Y-128660598D01*
X298085777Y-128678777D01*
X298067598Y-128695253D01*
X298047893Y-128709867D01*
X298026849Y-128722480D01*
X298004671Y-128732970D01*
X297981571Y-128741235D01*
X297957773Y-128747196D01*
X297933504Y-128750796D01*
X297909000Y-128752000D01*
X296959000Y-128752000D01*
X296934496Y-128750796D01*
X296910227Y-128747196D01*
X296886429Y-128741235D01*
X296863329Y-128732970D01*
X296841151Y-128722480D01*
X296820107Y-128709867D01*
X296800402Y-128695253D01*
X296782223Y-128678777D01*
X296765747Y-128660598D01*
X296751133Y-128640893D01*
X296738520Y-128619849D01*
X296728030Y-128597671D01*
X296719765Y-128574571D01*
X296713804Y-128550773D01*
X296710204Y-128526504D01*
X296709000Y-128502000D01*
X296709000Y-127827000D01*
X296710204Y-127802496D01*
X296713804Y-127778227D01*
X296719765Y-127754429D01*
X296728030Y-127731329D01*
X296738520Y-127709151D01*
X296751133Y-127688107D01*
X296765747Y-127668402D01*
X296782223Y-127650223D01*
X296800402Y-127633747D01*
X296820107Y-127619133D01*
X296841151Y-127606520D01*
X296863329Y-127596030D01*
X296886429Y-127587765D01*
X296910227Y-127581804D01*
X296934496Y-127578204D01*
X296959000Y-127577000D01*
X297909000Y-127577000D01*
X297933504Y-127578204D01*
G37*
G04 #@! TD.AperFunction*
G04 #@! TA.AperFunction,SMDPad,CuDef*
G36*
X297933504Y-125503204D02*
G01*
X297957773Y-125506804D01*
X297981571Y-125512765D01*
X298004671Y-125521030D01*
X298026849Y-125531520D01*
X298047893Y-125544133D01*
X298067598Y-125558747D01*
X298085777Y-125575223D01*
X298102253Y-125593402D01*
X298116867Y-125613107D01*
X298129480Y-125634151D01*
X298139970Y-125656329D01*
X298148235Y-125679429D01*
X298154196Y-125703227D01*
X298157796Y-125727496D01*
X298159000Y-125752000D01*
X298159000Y-126427000D01*
X298157796Y-126451504D01*
X298154196Y-126475773D01*
X298148235Y-126499571D01*
X298139970Y-126522671D01*
X298129480Y-126544849D01*
X298116867Y-126565893D01*
X298102253Y-126585598D01*
X298085777Y-126603777D01*
X298067598Y-126620253D01*
X298047893Y-126634867D01*
X298026849Y-126647480D01*
X298004671Y-126657970D01*
X297981571Y-126666235D01*
X297957773Y-126672196D01*
X297933504Y-126675796D01*
X297909000Y-126677000D01*
X296959000Y-126677000D01*
X296934496Y-126675796D01*
X296910227Y-126672196D01*
X296886429Y-126666235D01*
X296863329Y-126657970D01*
X296841151Y-126647480D01*
X296820107Y-126634867D01*
X296800402Y-126620253D01*
X296782223Y-126603777D01*
X296765747Y-126585598D01*
X296751133Y-126565893D01*
X296738520Y-126544849D01*
X296728030Y-126522671D01*
X296719765Y-126499571D01*
X296713804Y-126475773D01*
X296710204Y-126451504D01*
X296709000Y-126427000D01*
X296709000Y-125752000D01*
X296710204Y-125727496D01*
X296713804Y-125703227D01*
X296719765Y-125679429D01*
X296728030Y-125656329D01*
X296738520Y-125634151D01*
X296751133Y-125613107D01*
X296765747Y-125593402D01*
X296782223Y-125575223D01*
X296800402Y-125558747D01*
X296820107Y-125544133D01*
X296841151Y-125531520D01*
X296863329Y-125521030D01*
X296886429Y-125512765D01*
X296910227Y-125506804D01*
X296934496Y-125503204D01*
X296959000Y-125502000D01*
X297909000Y-125502000D01*
X297933504Y-125503204D01*
G37*
G04 #@! TD.AperFunction*
D21*
X217297000Y-148844000D03*
X216916000Y-143002000D03*
X238887000Y-96012000D03*
X257302000Y-135255000D03*
X257175000Y-127889000D03*
X279019000Y-120015000D03*
X277622000Y-128524000D03*
X277368000Y-138684000D03*
X294513000Y-138684000D03*
X297561000Y-130048000D03*
X283083000Y-129286000D03*
X279654000Y-124587000D03*
X262382000Y-140462000D03*
X262509000Y-138049000D03*
X291846000Y-122682000D03*
X281305000Y-122936000D03*
X274828000Y-125476000D03*
X273939000Y-137160000D03*
X286639000Y-132461000D03*
X243205000Y-99060000D03*
X242824000Y-94234000D03*
X266446000Y-138519000D03*
X267081000Y-131699000D03*
X272288000Y-133350000D03*
X270637000Y-141986000D03*
X257683000Y-139319000D03*
X257810000Y-141958990D03*
X258318000Y-143256000D03*
X258191000Y-150114000D03*
X275082000Y-149860000D03*
X275209000Y-128905000D03*
X209550000Y-101473000D03*
X217043000Y-104521000D03*
X217297000Y-127508000D03*
X222377000Y-106807000D03*
X222123000Y-114808000D03*
X221234000Y-109220000D03*
X221361000Y-119888000D03*
X219329000Y-113792000D03*
X219075000Y-122555000D03*
X229616000Y-135636000D03*
X230251000Y-149479000D03*
X228092000Y-133223000D03*
X228092000Y-151638000D03*
X195124734Y-151427478D03*
X195326000Y-145415000D03*
X195707000Y-116078000D03*
X236474000Y-130683000D03*
X236728000Y-152654000D03*
X196342000Y-152363000D03*
X196342000Y-140970000D03*
X203327000Y-118745000D03*
X203581000Y-104775000D03*
X237744000Y-128270000D03*
X237744000Y-153924000D03*
X187706000Y-153797000D03*
X187706000Y-137922000D03*
X202184000Y-121285000D03*
X202438000Y-107696000D03*
X238887000Y-125857000D03*
X239268000Y-152400000D03*
X229997000Y-151384000D03*
X228820505Y-149318505D03*
X197866000Y-146304000D03*
X197485000Y-135509000D03*
X197231000Y-123952000D03*
X196977000Y-109982000D03*
X240411000Y-122809000D03*
X240030000Y-141224000D03*
X201930000Y-141732000D03*
X201422000Y-132842000D03*
X200914000Y-126492000D03*
X201549000Y-113919000D03*
X241427000Y-120396000D03*
X241046000Y-114300000D03*
X224663000Y-114427000D03*
X224663000Y-110236000D03*
X204597000Y-111379000D03*
X204216000Y-128143000D03*
X200115000Y-128651000D03*
X200025000Y-115316000D03*
X230759000Y-117856000D03*
X230759000Y-139446000D03*
X195707000Y-139192000D03*
X198665000Y-133985000D03*
X198247000Y-120142000D03*
X228727000Y-115316000D03*
X226568000Y-145923000D03*
X200152000Y-136525000D03*
X199390000Y-122936000D03*
X231267000Y-102870000D03*
X231599347Y-140614346D03*
X251841000Y-148209000D03*
X252222000Y-144018000D03*
X252222000Y-140589000D03*
X227965000Y-100622000D03*
X227367000Y-135255000D03*
X216804154Y-135270154D03*
X216916000Y-130810000D03*
X219075000Y-144399000D03*
X219202000Y-137795000D03*
X220345000Y-142113000D03*
X220472000Y-133223000D03*
X204978000Y-144653000D03*
X185674000Y-144653000D03*
X200152000Y-153088000D03*
X184404000Y-153035000D03*
D22*
X234987999Y-149135999D02*
X234188000Y-148336000D01*
X235313001Y-149461001D02*
X234987999Y-149135999D01*
X254590999Y-149461001D02*
X235313001Y-149461001D01*
X255843000Y-148209000D02*
X254590999Y-149461001D01*
X217805000Y-148336000D02*
X217297000Y-148844000D01*
X234188000Y-148336000D02*
X217805000Y-148336000D01*
X211981999Y-143401999D02*
X211582000Y-143002000D01*
X216516001Y-143401999D02*
X211981999Y-143401999D01*
X216916000Y-143002000D02*
X216516001Y-143401999D01*
D23*
X240749000Y-96012000D02*
X238887000Y-96012000D01*
X270256000Y-138684000D02*
X272796000Y-138684000D01*
X289560000Y-142875000D02*
X289179000Y-143256000D01*
X289560000Y-138684000D02*
X289560000Y-142875000D01*
X289560000Y-138684000D02*
X292100000Y-138684000D01*
X257026500Y-135530500D02*
X257302000Y-135255000D01*
X257026500Y-137922000D02*
X257026500Y-135530500D01*
X262022500Y-127889000D02*
X262255000Y-127656500D01*
X257175000Y-127889000D02*
X262022500Y-127889000D01*
X278765000Y-120269000D02*
X279019000Y-120015000D01*
X269918000Y-120269000D02*
X278765000Y-120269000D01*
X277622000Y-127402500D02*
X277622000Y-128524000D01*
X277368000Y-138684000D02*
X272796000Y-138684000D01*
X286497254Y-144381010D02*
X281940000Y-139823756D01*
X288778990Y-144381010D02*
X286497254Y-144381010D01*
X289179000Y-143981000D02*
X288778990Y-144381010D01*
X289179000Y-143256000D02*
X289179000Y-143981000D01*
X278507756Y-139823756D02*
X277368000Y-138684000D01*
X281940000Y-139823756D02*
X278507756Y-139823756D01*
X292100000Y-138684000D02*
X294513000Y-138684000D01*
X297434000Y-129921000D02*
X297561000Y-130048000D01*
X297434000Y-128164500D02*
X297434000Y-129921000D01*
X282448000Y-127402500D02*
X282956000Y-127910500D01*
X277622000Y-127402500D02*
X282448000Y-127402500D01*
X282956000Y-129159000D02*
X283083000Y-129286000D01*
X282956000Y-127910500D02*
X282956000Y-129159000D01*
X278913500Y-125327500D02*
X279654000Y-124587000D01*
X277622000Y-125327500D02*
X278913500Y-125327500D01*
X297328500Y-125984000D02*
X297434000Y-126089500D01*
X292100000Y-125984000D02*
X297328500Y-125984000D01*
X262255000Y-140589000D02*
X262382000Y-140462000D01*
X260793000Y-140589000D02*
X262255000Y-140589000D01*
X259228500Y-138049000D02*
X259101500Y-137922000D01*
X262509000Y-138049000D02*
X259228500Y-138049000D01*
X291846000Y-122682000D02*
X281432000Y-122682000D01*
X281305000Y-122809000D02*
X281305000Y-122936000D01*
X281432000Y-122682000D02*
X281305000Y-122809000D01*
X272796000Y-125476000D02*
X274828000Y-125476000D01*
X277622000Y-125327500D02*
X274828000Y-125476000D01*
X263398000Y-137160000D02*
X262509000Y-138049000D01*
X273939000Y-137160000D02*
X263398000Y-137160000D01*
X287020000Y-143172000D02*
X287104000Y-143256000D01*
X287020000Y-138684000D02*
X287020000Y-143172000D01*
X287020000Y-130191000D02*
X286782000Y-130429000D01*
X287020000Y-125984000D02*
X287020000Y-130191000D01*
X291100000Y-132714000D02*
X292100000Y-132714000D01*
X288367000Y-132714000D02*
X291100000Y-132714000D01*
X286782000Y-131129000D02*
X288367000Y-132714000D01*
X286782000Y-130429000D02*
X286782000Y-131129000D01*
X286871500Y-125835500D02*
X287020000Y-125984000D01*
X282956000Y-125835500D02*
X286871500Y-125835500D01*
X286892000Y-132714000D02*
X286639000Y-132461000D01*
X288367000Y-132714000D02*
X286892000Y-132714000D01*
X249428000Y-100076000D02*
X278765000Y-100076000D01*
X279400000Y-100711000D02*
X279400000Y-102870000D01*
X278765000Y-100076000D02*
X279400000Y-100711000D01*
X245364000Y-96012000D02*
X249428000Y-100076000D01*
X242824000Y-96012000D02*
X245364000Y-96012000D01*
X233102001Y-98875999D02*
X242385999Y-98875999D01*
X232156000Y-99822000D02*
X233102001Y-98875999D01*
X211582000Y-99822000D02*
X232156000Y-99822000D01*
X242570000Y-99060000D02*
X243205000Y-99060000D01*
X242385999Y-98875999D02*
X242570000Y-99060000D01*
X242824000Y-94234000D02*
X242824000Y-96012000D01*
X267843000Y-125349000D02*
X267716000Y-125476000D01*
X267843000Y-120269000D02*
X267843000Y-125349000D01*
X267610500Y-125581500D02*
X267716000Y-125476000D01*
X262255000Y-125581500D02*
X267610500Y-125581500D01*
X267351000Y-125841000D02*
X267716000Y-125476000D01*
X267351000Y-129921000D02*
X267351000Y-125841000D01*
X267351000Y-130621000D02*
X267351000Y-129921000D01*
X268936000Y-132206000D02*
X267351000Y-130621000D01*
X272796000Y-132206000D02*
X269241000Y-132206000D01*
X269241000Y-132206000D02*
X268936000Y-132206000D01*
X266611000Y-138684000D02*
X266446000Y-138519000D01*
X267716000Y-138684000D02*
X266611000Y-138684000D01*
X267081000Y-130191000D02*
X267351000Y-129921000D01*
X267081000Y-131699000D02*
X267081000Y-130191000D01*
X292100000Y-130264000D02*
X292100000Y-129414000D01*
X291935000Y-130429000D02*
X292100000Y-130264000D01*
X288782000Y-130429000D02*
X291935000Y-130429000D01*
X289560000Y-127384000D02*
X289560000Y-125984000D01*
X289560000Y-127874000D02*
X289560000Y-127384000D01*
X291100000Y-129414000D02*
X289560000Y-127874000D01*
X292100000Y-129414000D02*
X291100000Y-129414000D01*
X289382000Y-130429000D02*
X288782000Y-130429000D01*
X289560000Y-130251000D02*
X289382000Y-130429000D01*
X289560000Y-125984000D02*
X289560000Y-130251000D01*
X293020001Y-133564001D02*
X272502001Y-133564001D01*
X293100001Y-133484001D02*
X293020001Y-133564001D01*
X272502001Y-133564001D02*
X272288000Y-133350000D01*
X293100001Y-131943999D02*
X293100001Y-133484001D01*
X291585002Y-130429000D02*
X293100001Y-131943999D01*
X288782000Y-130429000D02*
X291585002Y-130429000D01*
X266693398Y-139319000D02*
X257683000Y-139319000D01*
X269360398Y-141986000D02*
X266693398Y-139319000D01*
X270637000Y-141986000D02*
X269360398Y-141986000D01*
X255942990Y-141958990D02*
X255843000Y-141859000D01*
X257810000Y-141958990D02*
X255942990Y-141958990D01*
X272796000Y-129756000D02*
X272796000Y-128906000D01*
X272631000Y-129921000D02*
X272796000Y-129756000D01*
X269351000Y-129921000D02*
X272631000Y-129921000D01*
X272286000Y-128906000D02*
X272796000Y-128906000D01*
X270256000Y-126876000D02*
X272286000Y-128906000D01*
X270256000Y-125476000D02*
X270256000Y-126876000D01*
X269951000Y-129921000D02*
X269351000Y-129921000D01*
X270256000Y-129616000D02*
X269951000Y-129921000D01*
X270256000Y-125476000D02*
X270256000Y-129616000D01*
X258191000Y-143129000D02*
X258318000Y-143256000D01*
X255843000Y-143129000D02*
X258191000Y-143129000D01*
X274828000Y-150114000D02*
X275082000Y-149860000D01*
X258191000Y-150114000D02*
X274828000Y-150114000D01*
X272797000Y-128905000D02*
X272796000Y-128906000D01*
X275209000Y-128905000D02*
X272797000Y-128905000D01*
D22*
X209550000Y-102615002D02*
X209550000Y-101473000D01*
X210471999Y-103537001D02*
X209550000Y-102615002D01*
X214492001Y-103537001D02*
X210471999Y-103537001D01*
X216538003Y-101490999D02*
X214492001Y-103537001D01*
X248302999Y-101490999D02*
X216538003Y-101490999D01*
X249428000Y-102616000D02*
X248302999Y-101490999D01*
X217533001Y-104030999D02*
X217043000Y-104521000D01*
X248302999Y-104030999D02*
X217533001Y-104030999D01*
X249428000Y-105156000D02*
X248302999Y-104030999D01*
X211836000Y-127508000D02*
X211582000Y-127762000D01*
X217297000Y-127508000D02*
X211836000Y-127508000D01*
X222613001Y-106570999D02*
X222377000Y-106807000D01*
X248302999Y-106570999D02*
X222613001Y-106570999D01*
X249428000Y-107696000D02*
X248302999Y-106570999D01*
X211836000Y-114808000D02*
X211582000Y-115062000D01*
X222123000Y-114808000D02*
X211836000Y-114808000D01*
X221343001Y-109110999D02*
X221234000Y-109220000D01*
X248302999Y-109110999D02*
X221343001Y-109110999D01*
X249428000Y-110236000D02*
X248302999Y-109110999D01*
X211836000Y-119888000D02*
X211582000Y-120142000D01*
X221361000Y-119888000D02*
X211836000Y-119888000D01*
X221470001Y-111650999D02*
X219329000Y-113792000D01*
X248302999Y-111650999D02*
X221470001Y-111650999D01*
X249428000Y-112776000D02*
X248302999Y-111650999D01*
X211709000Y-122555000D02*
X211582000Y-122682000D01*
X219075000Y-122555000D02*
X211709000Y-122555000D01*
X234188000Y-135636000D02*
X229616000Y-135636000D01*
X229685315Y-149479000D02*
X228337314Y-150827001D01*
X228337314Y-150827001D02*
X195531001Y-150827001D01*
X230251000Y-149479000D02*
X229685315Y-149479000D01*
X193802000Y-149098000D02*
X193802000Y-148082000D01*
X195531001Y-150827001D02*
X193802000Y-149098000D01*
X228219000Y-133096000D02*
X228092000Y-133223000D01*
X234188000Y-133096000D02*
X228219000Y-133096000D01*
X195335256Y-151638000D02*
X195124734Y-151427478D01*
X228092000Y-151638000D02*
X195335256Y-151638000D01*
X193929000Y-145415000D02*
X193802000Y-145542000D01*
X195326000Y-145415000D02*
X193929000Y-145415000D01*
X196055999Y-116426999D02*
X195707000Y-116078000D01*
X214492001Y-116426999D02*
X196055999Y-116426999D01*
X214557001Y-116491999D02*
X214492001Y-116426999D01*
X248063999Y-116491999D02*
X214557001Y-116491999D01*
X249428000Y-117856000D02*
X248063999Y-116491999D01*
X236347000Y-130556000D02*
X236474000Y-130683000D01*
X234188000Y-130556000D02*
X236347000Y-130556000D01*
X236728000Y-152654000D02*
X226879990Y-152654000D01*
X226588990Y-152363000D02*
X196342000Y-152363000D01*
X226879990Y-152654000D02*
X226588990Y-152363000D01*
X195268315Y-140462000D02*
X193802000Y-140462000D01*
X195776315Y-140970000D02*
X195268315Y-140462000D01*
X196342000Y-140970000D02*
X195776315Y-140970000D01*
X203359001Y-118777001D02*
X203327000Y-118745000D01*
X214302003Y-118777001D02*
X203359001Y-118777001D01*
X214557001Y-119031999D02*
X214302003Y-118777001D01*
X248063999Y-119031999D02*
X214557001Y-119031999D01*
X249428000Y-120396000D02*
X248063999Y-119031999D01*
X198055998Y-102362000D02*
X193802000Y-102362000D01*
X200468998Y-104775000D02*
X198055998Y-102362000D01*
X203581000Y-104775000D02*
X200468998Y-104775000D01*
X237490000Y-128016000D02*
X237744000Y-128270000D01*
X234188000Y-128016000D02*
X237490000Y-128016000D01*
X187833000Y-153924000D02*
X187706000Y-153797000D01*
X237744000Y-153924000D02*
X187833000Y-153924000D01*
X187706000Y-137922000D02*
X193802000Y-137922000D01*
X202405999Y-121506999D02*
X202184000Y-121285000D01*
X214492001Y-121506999D02*
X202405999Y-121506999D01*
X214557001Y-121571999D02*
X214492001Y-121506999D01*
X248063999Y-121571999D02*
X214557001Y-121571999D01*
X249428000Y-122936000D02*
X248063999Y-121571999D01*
X194056000Y-107696000D02*
X193802000Y-107442000D01*
X202438000Y-107696000D02*
X194056000Y-107696000D01*
X238506000Y-125476000D02*
X238887000Y-125857000D01*
X234188000Y-125476000D02*
X238506000Y-125476000D01*
X238252000Y-151384000D02*
X229997000Y-151384000D01*
X239268000Y-152400000D02*
X238252000Y-151384000D01*
X210058998Y-146304000D02*
X197866000Y-146304000D01*
X210471999Y-146717001D02*
X210058998Y-146304000D01*
X214492001Y-146717001D02*
X210471999Y-146717001D01*
X214557001Y-146782001D02*
X214492001Y-146717001D01*
X217098502Y-149718504D02*
X214557001Y-147177003D01*
X214557001Y-147177003D02*
X214557001Y-146782001D01*
X228420506Y-149718504D02*
X217098502Y-149718504D01*
X228820505Y-149318505D02*
X228420506Y-149718504D01*
X193929000Y-135509000D02*
X193802000Y-135382000D01*
X197485000Y-135509000D02*
X193929000Y-135509000D01*
X233249000Y-123952000D02*
X197231000Y-123952000D01*
X233647999Y-124350999D02*
X233249000Y-123952000D01*
X248302999Y-124350999D02*
X233647999Y-124350999D01*
X249428000Y-125476000D02*
X248302999Y-124350999D01*
X196977000Y-109982000D02*
X193802000Y-109982000D01*
X240284000Y-122936000D02*
X240411000Y-122809000D01*
X234188000Y-122936000D02*
X240284000Y-122936000D01*
X219652998Y-141732000D02*
X201930000Y-141732000D01*
X231850999Y-141387999D02*
X219996999Y-141387999D01*
X233647999Y-139590999D02*
X231850999Y-141387999D01*
X219996999Y-141387999D02*
X219652998Y-141732000D01*
X238396999Y-139590999D02*
X233647999Y-139590999D01*
X240030000Y-141224000D02*
X238396999Y-139590999D01*
X201422000Y-132842000D02*
X193802000Y-132842000D01*
X233249000Y-126492000D02*
X200914000Y-126492000D01*
X233647999Y-126890999D02*
X233249000Y-126492000D01*
X248302999Y-126890999D02*
X233647999Y-126890999D01*
X249428000Y-128016000D02*
X248302999Y-126890999D01*
X200152000Y-112522000D02*
X193802000Y-112522000D01*
X201549000Y-113919000D02*
X200152000Y-112522000D01*
X234188000Y-120396000D02*
X241427000Y-120396000D01*
X224899001Y-114190999D02*
X224663000Y-114427000D01*
X240480315Y-114300000D02*
X240371314Y-114190999D01*
X240371314Y-114190999D02*
X224899001Y-114190999D01*
X241046000Y-114300000D02*
X240480315Y-114300000D01*
X204818999Y-111157001D02*
X204597000Y-111379000D01*
X223741999Y-111157001D02*
X204818999Y-111157001D01*
X224663000Y-110236000D02*
X223741999Y-111157001D01*
X193820999Y-127743001D02*
X193802000Y-127762000D01*
X203816001Y-127743001D02*
X193820999Y-127743001D01*
X204216000Y-128143000D02*
X203816001Y-127743001D01*
X202941001Y-131477001D02*
X200115000Y-128651000D01*
X214492001Y-131477001D02*
X202941001Y-131477001D01*
X216538003Y-129430999D02*
X214492001Y-131477001D01*
X248302999Y-129430999D02*
X216538003Y-129430999D01*
X249428000Y-130556000D02*
X248302999Y-129430999D01*
X193947999Y-114916001D02*
X193802000Y-115062000D01*
X199625001Y-114916001D02*
X193947999Y-114916001D01*
X200025000Y-115316000D02*
X199625001Y-114916001D01*
X234188000Y-117856000D02*
X230759000Y-117856000D01*
X229939315Y-139192000D02*
X195707000Y-139192000D01*
X230193315Y-139446000D02*
X229939315Y-139192000D01*
X230759000Y-139446000D02*
X230193315Y-139446000D01*
X198697001Y-134017001D02*
X198665000Y-133985000D01*
X214492001Y-134017001D02*
X198697001Y-134017001D01*
X216538003Y-131970999D02*
X214492001Y-134017001D01*
X248302999Y-131970999D02*
X216538003Y-131970999D01*
X249428000Y-133096000D02*
X248302999Y-131970999D01*
X198247000Y-120142000D02*
X193802000Y-120142000D01*
X234188000Y-115316000D02*
X228727000Y-115316000D01*
X211963000Y-145923000D02*
X211582000Y-145542000D01*
X226568000Y-145923000D02*
X211963000Y-145923000D01*
X200184001Y-136557001D02*
X200152000Y-136525000D01*
X214492001Y-136557001D02*
X200184001Y-136557001D01*
X216538003Y-134510999D02*
X214492001Y-136557001D01*
X248302999Y-134510999D02*
X216538003Y-134510999D01*
X249428000Y-135636000D02*
X248302999Y-134510999D01*
X198570315Y-122682000D02*
X193802000Y-122682000D01*
X198824315Y-122936000D02*
X198570315Y-122682000D01*
X199390000Y-122936000D02*
X198824315Y-122936000D01*
X231521000Y-102616000D02*
X231267000Y-102870000D01*
X234188000Y-102616000D02*
X231521000Y-102616000D01*
X230881316Y-140462000D02*
X211582000Y-140462000D01*
X231033662Y-140614346D02*
X230881316Y-140462000D01*
X231599347Y-140614346D02*
X231033662Y-140614346D01*
X251714000Y-148336000D02*
X251841000Y-148209000D01*
X249428000Y-148336000D02*
X251714000Y-148336000D01*
X255462000Y-144018000D02*
X255843000Y-144399000D01*
X252222000Y-144018000D02*
X255462000Y-144018000D01*
X255843000Y-140589000D02*
X252222000Y-140589000D01*
X232592000Y-100622000D02*
X227965000Y-100622000D01*
X233138000Y-100076000D02*
X232592000Y-100622000D01*
X234188000Y-100076000D02*
X233138000Y-100076000D01*
X216819308Y-135255000D02*
X216804154Y-135270154D01*
X227367000Y-135255000D02*
X216819308Y-135255000D01*
X214318315Y-132842000D02*
X211582000Y-132842000D01*
X216350315Y-130810000D02*
X214318315Y-132842000D01*
X216916000Y-130810000D02*
X216350315Y-130810000D01*
X250966002Y-145669000D02*
X249696002Y-144399000D01*
X249696002Y-144399000D02*
X219075000Y-144399000D01*
X255843000Y-145669000D02*
X250966002Y-145669000D01*
X211709000Y-137795000D02*
X211582000Y-137922000D01*
X219202000Y-137795000D02*
X211709000Y-137795000D01*
X253942232Y-142113000D02*
X220345000Y-142113000D01*
X254821242Y-141233990D02*
X253942232Y-142113000D01*
X260167990Y-141233990D02*
X254821242Y-141233990D01*
X260793000Y-141859000D02*
X260167990Y-141233990D01*
X213763412Y-135382000D02*
X211582000Y-135382000D01*
X215922412Y-133223000D02*
X213763412Y-135382000D01*
X220472000Y-133223000D02*
X215922412Y-133223000D01*
X186073999Y-144253001D02*
X185674000Y-144653000D01*
X204578001Y-144253001D02*
X186073999Y-144253001D01*
X204978000Y-144653000D02*
X204578001Y-144253001D01*
X188017002Y-153035000D02*
X184404000Y-153035000D01*
X188070002Y-153088000D02*
X188017002Y-153035000D01*
X200152000Y-153088000D02*
X188070002Y-153088000D01*
M02*
