G04 #@! TF.GenerationSoftware,KiCad,Pcbnew,5.1.5+dfsg1-2build2*
G04 #@! TF.CreationDate,2023-06-05T14:25:05+01:00*
G04 #@! TF.ProjectId,dumper_3780,64756d70-6572-45f3-9337-38302e6b6963,rev?*
G04 #@! TF.SameCoordinates,Original*
G04 #@! TF.FileFunction,Soldermask,Top*
G04 #@! TF.FilePolarity,Negative*
%FSLAX46Y46*%
G04 Gerber Fmt 4.6, Leading zero omitted, Abs format (unit mm)*
G04 Created by KiCad (PCBNEW 5.1.5+dfsg1-2build2) date 2023-06-05 14:25:05*
%MOMM*%
%LPD*%
G04 APERTURE LIST*
%ADD10C,0.100000*%
G04 APERTURE END LIST*
D10*
G36*
X206133000Y-150553000D02*
G01*
X204331000Y-150553000D01*
X204331000Y-146951000D01*
X206133000Y-146951000D01*
X206133000Y-150553000D01*
G37*
G36*
X203593000Y-150553000D02*
G01*
X201791000Y-150553000D01*
X201791000Y-146951000D01*
X203593000Y-146951000D01*
X203593000Y-150553000D01*
G37*
G36*
X201053000Y-150553000D02*
G01*
X199251000Y-150553000D01*
X199251000Y-146951000D01*
X201053000Y-146951000D01*
X201053000Y-150553000D01*
G37*
G36*
X234436228Y-147517703D02*
G01*
X234591100Y-147581853D01*
X234730481Y-147674985D01*
X234849015Y-147793519D01*
X234942147Y-147932900D01*
X235006297Y-148087772D01*
X235039000Y-148252184D01*
X235039000Y-148419816D01*
X235006297Y-148584228D01*
X234942147Y-148739100D01*
X234849015Y-148878481D01*
X234730481Y-148997015D01*
X234591100Y-149090147D01*
X234436228Y-149154297D01*
X234271816Y-149187000D01*
X234104184Y-149187000D01*
X233939772Y-149154297D01*
X233784900Y-149090147D01*
X233645519Y-148997015D01*
X233526985Y-148878481D01*
X233433853Y-148739100D01*
X233369703Y-148584228D01*
X233337000Y-148419816D01*
X233337000Y-148252184D01*
X233369703Y-148087772D01*
X233433853Y-147932900D01*
X233526985Y-147793519D01*
X233645519Y-147674985D01*
X233784900Y-147581853D01*
X233939772Y-147517703D01*
X234104184Y-147485000D01*
X234271816Y-147485000D01*
X234436228Y-147517703D01*
G37*
G36*
X249676228Y-147517703D02*
G01*
X249831100Y-147581853D01*
X249970481Y-147674985D01*
X250089015Y-147793519D01*
X250182147Y-147932900D01*
X250246297Y-148087772D01*
X250279000Y-148252184D01*
X250279000Y-148419816D01*
X250246297Y-148584228D01*
X250182147Y-148739100D01*
X250089015Y-148878481D01*
X249970481Y-148997015D01*
X249831100Y-149090147D01*
X249676228Y-149154297D01*
X249511816Y-149187000D01*
X249344184Y-149187000D01*
X249179772Y-149154297D01*
X249024900Y-149090147D01*
X248885519Y-148997015D01*
X248766985Y-148878481D01*
X248673853Y-148739100D01*
X248609703Y-148584228D01*
X248577000Y-148419816D01*
X248577000Y-148252184D01*
X248609703Y-148087772D01*
X248673853Y-147932900D01*
X248766985Y-147793519D01*
X248885519Y-147674985D01*
X249024900Y-147581853D01*
X249179772Y-147517703D01*
X249344184Y-147485000D01*
X249511816Y-147485000D01*
X249676228Y-147517703D01*
G37*
G36*
X194703000Y-148983000D02*
G01*
X191101000Y-148983000D01*
X191101000Y-147181000D01*
X194703000Y-147181000D01*
X194703000Y-148983000D01*
G37*
G36*
X214283000Y-148983000D02*
G01*
X210681000Y-148983000D01*
X210681000Y-147181000D01*
X214283000Y-147181000D01*
X214283000Y-148983000D01*
G37*
G36*
X256777928Y-147860764D02*
G01*
X256799009Y-147867160D01*
X256818445Y-147877548D01*
X256835476Y-147891524D01*
X256849452Y-147908555D01*
X256859840Y-147927991D01*
X256866236Y-147949072D01*
X256869000Y-147977140D01*
X256869000Y-148440860D01*
X256866236Y-148468928D01*
X256859840Y-148490009D01*
X256849452Y-148509445D01*
X256835476Y-148526476D01*
X256818445Y-148540452D01*
X256799009Y-148550840D01*
X256777928Y-148557236D01*
X256749860Y-148560000D01*
X254936140Y-148560000D01*
X254908072Y-148557236D01*
X254886991Y-148550840D01*
X254867555Y-148540452D01*
X254850524Y-148526476D01*
X254836548Y-148509445D01*
X254826160Y-148490009D01*
X254819764Y-148468928D01*
X254817000Y-148440860D01*
X254817000Y-147977140D01*
X254819764Y-147949072D01*
X254826160Y-147927991D01*
X254836548Y-147908555D01*
X254850524Y-147891524D01*
X254867555Y-147877548D01*
X254886991Y-147867160D01*
X254908072Y-147860764D01*
X254936140Y-147858000D01*
X256749860Y-147858000D01*
X256777928Y-147860764D01*
G37*
G36*
X261727928Y-147860764D02*
G01*
X261749009Y-147867160D01*
X261768445Y-147877548D01*
X261785476Y-147891524D01*
X261799452Y-147908555D01*
X261809840Y-147927991D01*
X261816236Y-147949072D01*
X261819000Y-147977140D01*
X261819000Y-148440860D01*
X261816236Y-148468928D01*
X261809840Y-148490009D01*
X261799452Y-148509445D01*
X261785476Y-148526476D01*
X261768445Y-148540452D01*
X261749009Y-148550840D01*
X261727928Y-148557236D01*
X261699860Y-148560000D01*
X259886140Y-148560000D01*
X259858072Y-148557236D01*
X259836991Y-148550840D01*
X259817555Y-148540452D01*
X259800524Y-148526476D01*
X259786548Y-148509445D01*
X259776160Y-148490009D01*
X259769764Y-148468928D01*
X259767000Y-148440860D01*
X259767000Y-147977140D01*
X259769764Y-147949072D01*
X259776160Y-147927991D01*
X259786548Y-147908555D01*
X259800524Y-147891524D01*
X259817555Y-147877548D01*
X259836991Y-147867160D01*
X259858072Y-147860764D01*
X259886140Y-147858000D01*
X261699860Y-147858000D01*
X261727928Y-147860764D01*
G37*
G36*
X261727928Y-146590764D02*
G01*
X261749009Y-146597160D01*
X261768445Y-146607548D01*
X261785476Y-146621524D01*
X261799452Y-146638555D01*
X261809840Y-146657991D01*
X261816236Y-146679072D01*
X261819000Y-146707140D01*
X261819000Y-147170860D01*
X261816236Y-147198928D01*
X261809840Y-147220009D01*
X261799452Y-147239445D01*
X261785476Y-147256476D01*
X261768445Y-147270452D01*
X261749009Y-147280840D01*
X261727928Y-147287236D01*
X261699860Y-147290000D01*
X259886140Y-147290000D01*
X259858072Y-147287236D01*
X259836991Y-147280840D01*
X259817555Y-147270452D01*
X259800524Y-147256476D01*
X259786548Y-147239445D01*
X259776160Y-147220009D01*
X259769764Y-147198928D01*
X259767000Y-147170860D01*
X259767000Y-146707140D01*
X259769764Y-146679072D01*
X259776160Y-146657991D01*
X259786548Y-146638555D01*
X259800524Y-146621524D01*
X259817555Y-146607548D01*
X259836991Y-146597160D01*
X259858072Y-146590764D01*
X259886140Y-146588000D01*
X261699860Y-146588000D01*
X261727928Y-146590764D01*
G37*
G36*
X256777928Y-146590764D02*
G01*
X256799009Y-146597160D01*
X256818445Y-146607548D01*
X256835476Y-146621524D01*
X256849452Y-146638555D01*
X256859840Y-146657991D01*
X256866236Y-146679072D01*
X256869000Y-146707140D01*
X256869000Y-147170860D01*
X256866236Y-147198928D01*
X256859840Y-147220009D01*
X256849452Y-147239445D01*
X256835476Y-147256476D01*
X256818445Y-147270452D01*
X256799009Y-147280840D01*
X256777928Y-147287236D01*
X256749860Y-147290000D01*
X254936140Y-147290000D01*
X254908072Y-147287236D01*
X254886991Y-147280840D01*
X254867555Y-147270452D01*
X254850524Y-147256476D01*
X254836548Y-147239445D01*
X254826160Y-147220009D01*
X254819764Y-147198928D01*
X254817000Y-147170860D01*
X254817000Y-146707140D01*
X254819764Y-146679072D01*
X254826160Y-146657991D01*
X254836548Y-146638555D01*
X254850524Y-146621524D01*
X254867555Y-146607548D01*
X254886991Y-146597160D01*
X254908072Y-146590764D01*
X254936140Y-146588000D01*
X256749860Y-146588000D01*
X256777928Y-146590764D01*
G37*
G36*
X249676228Y-144977703D02*
G01*
X249831100Y-145041853D01*
X249970481Y-145134985D01*
X250089015Y-145253519D01*
X250182147Y-145392900D01*
X250246297Y-145547772D01*
X250279000Y-145712184D01*
X250279000Y-145879816D01*
X250246297Y-146044228D01*
X250182147Y-146199100D01*
X250089015Y-146338481D01*
X249970481Y-146457015D01*
X249831100Y-146550147D01*
X249676228Y-146614297D01*
X249511816Y-146647000D01*
X249344184Y-146647000D01*
X249179772Y-146614297D01*
X249024900Y-146550147D01*
X248885519Y-146457015D01*
X248766985Y-146338481D01*
X248673853Y-146199100D01*
X248609703Y-146044228D01*
X248577000Y-145879816D01*
X248577000Y-145712184D01*
X248609703Y-145547772D01*
X248673853Y-145392900D01*
X248766985Y-145253519D01*
X248885519Y-145134985D01*
X249024900Y-145041853D01*
X249179772Y-144977703D01*
X249344184Y-144945000D01*
X249511816Y-144945000D01*
X249676228Y-144977703D01*
G37*
G36*
X234436228Y-144977703D02*
G01*
X234591100Y-145041853D01*
X234730481Y-145134985D01*
X234849015Y-145253519D01*
X234942147Y-145392900D01*
X235006297Y-145547772D01*
X235039000Y-145712184D01*
X235039000Y-145879816D01*
X235006297Y-146044228D01*
X234942147Y-146199100D01*
X234849015Y-146338481D01*
X234730481Y-146457015D01*
X234591100Y-146550147D01*
X234436228Y-146614297D01*
X234271816Y-146647000D01*
X234104184Y-146647000D01*
X233939772Y-146614297D01*
X233784900Y-146550147D01*
X233645519Y-146457015D01*
X233526985Y-146338481D01*
X233433853Y-146199100D01*
X233369703Y-146044228D01*
X233337000Y-145879816D01*
X233337000Y-145712184D01*
X233369703Y-145547772D01*
X233433853Y-145392900D01*
X233526985Y-145253519D01*
X233645519Y-145134985D01*
X233784900Y-145041853D01*
X233939772Y-144977703D01*
X234104184Y-144945000D01*
X234271816Y-144945000D01*
X234436228Y-144977703D01*
G37*
G36*
X194703000Y-146443000D02*
G01*
X191101000Y-146443000D01*
X191101000Y-144641000D01*
X194703000Y-144641000D01*
X194703000Y-146443000D01*
G37*
G36*
X214283000Y-146443000D02*
G01*
X210681000Y-146443000D01*
X210681000Y-144641000D01*
X214283000Y-144641000D01*
X214283000Y-146443000D01*
G37*
G36*
X261727928Y-145320764D02*
G01*
X261749009Y-145327160D01*
X261768445Y-145337548D01*
X261785476Y-145351524D01*
X261799452Y-145368555D01*
X261809840Y-145387991D01*
X261816236Y-145409072D01*
X261819000Y-145437140D01*
X261819000Y-145900860D01*
X261816236Y-145928928D01*
X261809840Y-145950009D01*
X261799452Y-145969445D01*
X261785476Y-145986476D01*
X261768445Y-146000452D01*
X261749009Y-146010840D01*
X261727928Y-146017236D01*
X261699860Y-146020000D01*
X259886140Y-146020000D01*
X259858072Y-146017236D01*
X259836991Y-146010840D01*
X259817555Y-146000452D01*
X259800524Y-145986476D01*
X259786548Y-145969445D01*
X259776160Y-145950009D01*
X259769764Y-145928928D01*
X259767000Y-145900860D01*
X259767000Y-145437140D01*
X259769764Y-145409072D01*
X259776160Y-145387991D01*
X259786548Y-145368555D01*
X259800524Y-145351524D01*
X259817555Y-145337548D01*
X259836991Y-145327160D01*
X259858072Y-145320764D01*
X259886140Y-145318000D01*
X261699860Y-145318000D01*
X261727928Y-145320764D01*
G37*
G36*
X256777928Y-145320764D02*
G01*
X256799009Y-145327160D01*
X256818445Y-145337548D01*
X256835476Y-145351524D01*
X256849452Y-145368555D01*
X256859840Y-145387991D01*
X256866236Y-145409072D01*
X256869000Y-145437140D01*
X256869000Y-145900860D01*
X256866236Y-145928928D01*
X256859840Y-145950009D01*
X256849452Y-145969445D01*
X256835476Y-145986476D01*
X256818445Y-146000452D01*
X256799009Y-146010840D01*
X256777928Y-146017236D01*
X256749860Y-146020000D01*
X254936140Y-146020000D01*
X254908072Y-146017236D01*
X254886991Y-146010840D01*
X254867555Y-146000452D01*
X254850524Y-145986476D01*
X254836548Y-145969445D01*
X254826160Y-145950009D01*
X254819764Y-145928928D01*
X254817000Y-145900860D01*
X254817000Y-145437140D01*
X254819764Y-145409072D01*
X254826160Y-145387991D01*
X254836548Y-145368555D01*
X254850524Y-145351524D01*
X254867555Y-145337548D01*
X254886991Y-145327160D01*
X254908072Y-145320764D01*
X254936140Y-145318000D01*
X256749860Y-145318000D01*
X256777928Y-145320764D01*
G37*
G36*
X261727928Y-144050764D02*
G01*
X261749009Y-144057160D01*
X261768445Y-144067548D01*
X261785476Y-144081524D01*
X261799452Y-144098555D01*
X261809840Y-144117991D01*
X261816236Y-144139072D01*
X261819000Y-144167140D01*
X261819000Y-144630860D01*
X261816236Y-144658928D01*
X261809840Y-144680009D01*
X261799452Y-144699445D01*
X261785476Y-144716476D01*
X261768445Y-144730452D01*
X261749009Y-144740840D01*
X261727928Y-144747236D01*
X261699860Y-144750000D01*
X259886140Y-144750000D01*
X259858072Y-144747236D01*
X259836991Y-144740840D01*
X259817555Y-144730452D01*
X259800524Y-144716476D01*
X259786548Y-144699445D01*
X259776160Y-144680009D01*
X259769764Y-144658928D01*
X259767000Y-144630860D01*
X259767000Y-144167140D01*
X259769764Y-144139072D01*
X259776160Y-144117991D01*
X259786548Y-144098555D01*
X259800524Y-144081524D01*
X259817555Y-144067548D01*
X259836991Y-144057160D01*
X259858072Y-144050764D01*
X259886140Y-144048000D01*
X261699860Y-144048000D01*
X261727928Y-144050764D01*
G37*
G36*
X256777928Y-144050764D02*
G01*
X256799009Y-144057160D01*
X256818445Y-144067548D01*
X256835476Y-144081524D01*
X256849452Y-144098555D01*
X256859840Y-144117991D01*
X256866236Y-144139072D01*
X256869000Y-144167140D01*
X256869000Y-144630860D01*
X256866236Y-144658928D01*
X256859840Y-144680009D01*
X256849452Y-144699445D01*
X256835476Y-144716476D01*
X256818445Y-144730452D01*
X256799009Y-144740840D01*
X256777928Y-144747236D01*
X256749860Y-144750000D01*
X254936140Y-144750000D01*
X254908072Y-144747236D01*
X254886991Y-144740840D01*
X254867555Y-144730452D01*
X254850524Y-144716476D01*
X254836548Y-144699445D01*
X254826160Y-144680009D01*
X254819764Y-144658928D01*
X254817000Y-144630860D01*
X254817000Y-144167140D01*
X254819764Y-144139072D01*
X254826160Y-144117991D01*
X254836548Y-144098555D01*
X254850524Y-144081524D01*
X254867555Y-144067548D01*
X254886991Y-144057160D01*
X254908072Y-144050764D01*
X254936140Y-144048000D01*
X256749860Y-144048000D01*
X256777928Y-144050764D01*
G37*
G36*
X234436228Y-142437703D02*
G01*
X234591100Y-142501853D01*
X234730481Y-142594985D01*
X234849015Y-142713519D01*
X234942147Y-142852900D01*
X235006297Y-143007772D01*
X235039000Y-143172184D01*
X235039000Y-143339816D01*
X235006297Y-143504228D01*
X234942147Y-143659100D01*
X234849015Y-143798481D01*
X234730481Y-143917015D01*
X234591100Y-144010147D01*
X234436228Y-144074297D01*
X234271816Y-144107000D01*
X234104184Y-144107000D01*
X233939772Y-144074297D01*
X233784900Y-144010147D01*
X233645519Y-143917015D01*
X233526985Y-143798481D01*
X233433853Y-143659100D01*
X233369703Y-143504228D01*
X233337000Y-143339816D01*
X233337000Y-143172184D01*
X233369703Y-143007772D01*
X233433853Y-142852900D01*
X233526985Y-142713519D01*
X233645519Y-142594985D01*
X233784900Y-142501853D01*
X233939772Y-142437703D01*
X234104184Y-142405000D01*
X234271816Y-142405000D01*
X234436228Y-142437703D01*
G37*
G36*
X249676228Y-142437703D02*
G01*
X249831100Y-142501853D01*
X249970481Y-142594985D01*
X250089015Y-142713519D01*
X250182147Y-142852900D01*
X250246297Y-143007772D01*
X250279000Y-143172184D01*
X250279000Y-143339816D01*
X250246297Y-143504228D01*
X250182147Y-143659100D01*
X250089015Y-143798481D01*
X249970481Y-143917015D01*
X249831100Y-144010147D01*
X249676228Y-144074297D01*
X249511816Y-144107000D01*
X249344184Y-144107000D01*
X249179772Y-144074297D01*
X249024900Y-144010147D01*
X248885519Y-143917015D01*
X248766985Y-143798481D01*
X248673853Y-143659100D01*
X248609703Y-143504228D01*
X248577000Y-143339816D01*
X248577000Y-143172184D01*
X248609703Y-143007772D01*
X248673853Y-142852900D01*
X248766985Y-142713519D01*
X248885519Y-142594985D01*
X249024900Y-142501853D01*
X249179772Y-142437703D01*
X249344184Y-142405000D01*
X249511816Y-142405000D01*
X249676228Y-142437703D01*
G37*
G36*
X287581483Y-142484434D02*
G01*
X287618872Y-142495776D01*
X287653326Y-142514191D01*
X287683525Y-142538975D01*
X287708309Y-142569174D01*
X287726724Y-142603628D01*
X287738066Y-142641017D01*
X287742500Y-142686035D01*
X287742500Y-143825965D01*
X287738066Y-143870983D01*
X287726724Y-143908372D01*
X287708309Y-143942826D01*
X287683525Y-143973025D01*
X287653326Y-143997809D01*
X287618872Y-144016224D01*
X287581483Y-144027566D01*
X287536465Y-144032000D01*
X286671535Y-144032000D01*
X286626517Y-144027566D01*
X286589128Y-144016224D01*
X286554674Y-143997809D01*
X286524475Y-143973025D01*
X286499691Y-143942826D01*
X286481276Y-143908372D01*
X286469934Y-143870983D01*
X286465500Y-143825965D01*
X286465500Y-142686035D01*
X286469934Y-142641017D01*
X286481276Y-142603628D01*
X286499691Y-142569174D01*
X286524475Y-142538975D01*
X286554674Y-142514191D01*
X286589128Y-142495776D01*
X286626517Y-142484434D01*
X286671535Y-142480000D01*
X287536465Y-142480000D01*
X287581483Y-142484434D01*
G37*
G36*
X289656483Y-142484434D02*
G01*
X289693872Y-142495776D01*
X289728326Y-142514191D01*
X289758525Y-142538975D01*
X289783309Y-142569174D01*
X289801724Y-142603628D01*
X289813066Y-142641017D01*
X289817500Y-142686035D01*
X289817500Y-143825965D01*
X289813066Y-143870983D01*
X289801724Y-143908372D01*
X289783309Y-143942826D01*
X289758525Y-143973025D01*
X289728326Y-143997809D01*
X289693872Y-144016224D01*
X289656483Y-144027566D01*
X289611465Y-144032000D01*
X288746535Y-144032000D01*
X288701517Y-144027566D01*
X288664128Y-144016224D01*
X288629674Y-143997809D01*
X288599475Y-143973025D01*
X288574691Y-143942826D01*
X288556276Y-143908372D01*
X288544934Y-143870983D01*
X288540500Y-143825965D01*
X288540500Y-142686035D01*
X288544934Y-142641017D01*
X288556276Y-142603628D01*
X288574691Y-142569174D01*
X288599475Y-142538975D01*
X288629674Y-142514191D01*
X288664128Y-142495776D01*
X288701517Y-142484434D01*
X288746535Y-142480000D01*
X289611465Y-142480000D01*
X289656483Y-142484434D01*
G37*
G36*
X194703000Y-143903000D02*
G01*
X191101000Y-143903000D01*
X191101000Y-142101000D01*
X194703000Y-142101000D01*
X194703000Y-143903000D01*
G37*
G36*
X214283000Y-143903000D02*
G01*
X210681000Y-143903000D01*
X210681000Y-142101000D01*
X214283000Y-142101000D01*
X214283000Y-143903000D01*
G37*
G36*
X261727928Y-142780764D02*
G01*
X261749009Y-142787160D01*
X261768445Y-142797548D01*
X261785476Y-142811524D01*
X261799452Y-142828555D01*
X261809840Y-142847991D01*
X261816236Y-142869072D01*
X261819000Y-142897140D01*
X261819000Y-143360860D01*
X261816236Y-143388928D01*
X261809840Y-143410009D01*
X261799452Y-143429445D01*
X261785476Y-143446476D01*
X261768445Y-143460452D01*
X261749009Y-143470840D01*
X261727928Y-143477236D01*
X261699860Y-143480000D01*
X259886140Y-143480000D01*
X259858072Y-143477236D01*
X259836991Y-143470840D01*
X259817555Y-143460452D01*
X259800524Y-143446476D01*
X259786548Y-143429445D01*
X259776160Y-143410009D01*
X259769764Y-143388928D01*
X259767000Y-143360860D01*
X259767000Y-142897140D01*
X259769764Y-142869072D01*
X259776160Y-142847991D01*
X259786548Y-142828555D01*
X259800524Y-142811524D01*
X259817555Y-142797548D01*
X259836991Y-142787160D01*
X259858072Y-142780764D01*
X259886140Y-142778000D01*
X261699860Y-142778000D01*
X261727928Y-142780764D01*
G37*
G36*
X256777928Y-142780764D02*
G01*
X256799009Y-142787160D01*
X256818445Y-142797548D01*
X256835476Y-142811524D01*
X256849452Y-142828555D01*
X256859840Y-142847991D01*
X256866236Y-142869072D01*
X256869000Y-142897140D01*
X256869000Y-143360860D01*
X256866236Y-143388928D01*
X256859840Y-143410009D01*
X256849452Y-143429445D01*
X256835476Y-143446476D01*
X256818445Y-143460452D01*
X256799009Y-143470840D01*
X256777928Y-143477236D01*
X256749860Y-143480000D01*
X254936140Y-143480000D01*
X254908072Y-143477236D01*
X254886991Y-143470840D01*
X254867555Y-143460452D01*
X254850524Y-143446476D01*
X254836548Y-143429445D01*
X254826160Y-143410009D01*
X254819764Y-143388928D01*
X254817000Y-143360860D01*
X254817000Y-142897140D01*
X254819764Y-142869072D01*
X254826160Y-142847991D01*
X254836548Y-142828555D01*
X254850524Y-142811524D01*
X254867555Y-142797548D01*
X254886991Y-142787160D01*
X254908072Y-142780764D01*
X254936140Y-142778000D01*
X256749860Y-142778000D01*
X256777928Y-142780764D01*
G37*
G36*
X261727928Y-141510764D02*
G01*
X261749009Y-141517160D01*
X261768445Y-141527548D01*
X261785476Y-141541524D01*
X261799452Y-141558555D01*
X261809840Y-141577991D01*
X261816236Y-141599072D01*
X261819000Y-141627140D01*
X261819000Y-142090860D01*
X261816236Y-142118928D01*
X261809840Y-142140009D01*
X261799452Y-142159445D01*
X261785476Y-142176476D01*
X261768445Y-142190452D01*
X261749009Y-142200840D01*
X261727928Y-142207236D01*
X261699860Y-142210000D01*
X259886140Y-142210000D01*
X259858072Y-142207236D01*
X259836991Y-142200840D01*
X259817555Y-142190452D01*
X259800524Y-142176476D01*
X259786548Y-142159445D01*
X259776160Y-142140009D01*
X259769764Y-142118928D01*
X259767000Y-142090860D01*
X259767000Y-141627140D01*
X259769764Y-141599072D01*
X259776160Y-141577991D01*
X259786548Y-141558555D01*
X259800524Y-141541524D01*
X259817555Y-141527548D01*
X259836991Y-141517160D01*
X259858072Y-141510764D01*
X259886140Y-141508000D01*
X261699860Y-141508000D01*
X261727928Y-141510764D01*
G37*
G36*
X256777928Y-141510764D02*
G01*
X256799009Y-141517160D01*
X256818445Y-141527548D01*
X256835476Y-141541524D01*
X256849452Y-141558555D01*
X256859840Y-141577991D01*
X256866236Y-141599072D01*
X256869000Y-141627140D01*
X256869000Y-142090860D01*
X256866236Y-142118928D01*
X256859840Y-142140009D01*
X256849452Y-142159445D01*
X256835476Y-142176476D01*
X256818445Y-142190452D01*
X256799009Y-142200840D01*
X256777928Y-142207236D01*
X256749860Y-142210000D01*
X254936140Y-142210000D01*
X254908072Y-142207236D01*
X254886991Y-142200840D01*
X254867555Y-142190452D01*
X254850524Y-142176476D01*
X254836548Y-142159445D01*
X254826160Y-142140009D01*
X254819764Y-142118928D01*
X254817000Y-142090860D01*
X254817000Y-141627140D01*
X254819764Y-141599072D01*
X254826160Y-141577991D01*
X254836548Y-141558555D01*
X254850524Y-141541524D01*
X254867555Y-141527548D01*
X254886991Y-141517160D01*
X254908072Y-141510764D01*
X254936140Y-141508000D01*
X256749860Y-141508000D01*
X256777928Y-141510764D01*
G37*
G36*
X234436228Y-139897703D02*
G01*
X234591100Y-139961853D01*
X234730481Y-140054985D01*
X234849015Y-140173519D01*
X234942147Y-140312900D01*
X235006297Y-140467772D01*
X235039000Y-140632184D01*
X235039000Y-140799816D01*
X235006297Y-140964228D01*
X234942147Y-141119100D01*
X234849015Y-141258481D01*
X234730481Y-141377015D01*
X234591100Y-141470147D01*
X234436228Y-141534297D01*
X234271816Y-141567000D01*
X234104184Y-141567000D01*
X233939772Y-141534297D01*
X233784900Y-141470147D01*
X233645519Y-141377015D01*
X233526985Y-141258481D01*
X233433853Y-141119100D01*
X233369703Y-140964228D01*
X233337000Y-140799816D01*
X233337000Y-140632184D01*
X233369703Y-140467772D01*
X233433853Y-140312900D01*
X233526985Y-140173519D01*
X233645519Y-140054985D01*
X233784900Y-139961853D01*
X233939772Y-139897703D01*
X234104184Y-139865000D01*
X234271816Y-139865000D01*
X234436228Y-139897703D01*
G37*
G36*
X249676228Y-139897703D02*
G01*
X249831100Y-139961853D01*
X249970481Y-140054985D01*
X250089015Y-140173519D01*
X250182147Y-140312900D01*
X250246297Y-140467772D01*
X250279000Y-140632184D01*
X250279000Y-140799816D01*
X250246297Y-140964228D01*
X250182147Y-141119100D01*
X250089015Y-141258481D01*
X249970481Y-141377015D01*
X249831100Y-141470147D01*
X249676228Y-141534297D01*
X249511816Y-141567000D01*
X249344184Y-141567000D01*
X249179772Y-141534297D01*
X249024900Y-141470147D01*
X248885519Y-141377015D01*
X248766985Y-141258481D01*
X248673853Y-141119100D01*
X248609703Y-140964228D01*
X248577000Y-140799816D01*
X248577000Y-140632184D01*
X248609703Y-140467772D01*
X248673853Y-140312900D01*
X248766985Y-140173519D01*
X248885519Y-140054985D01*
X249024900Y-139961853D01*
X249179772Y-139897703D01*
X249344184Y-139865000D01*
X249511816Y-139865000D01*
X249676228Y-139897703D01*
G37*
G36*
X214283000Y-141363000D02*
G01*
X210681000Y-141363000D01*
X210681000Y-139561000D01*
X214283000Y-139561000D01*
X214283000Y-141363000D01*
G37*
G36*
X194703000Y-141363000D02*
G01*
X191101000Y-141363000D01*
X191101000Y-139561000D01*
X194703000Y-139561000D01*
X194703000Y-141363000D01*
G37*
G36*
X261727928Y-140240764D02*
G01*
X261749009Y-140247160D01*
X261768445Y-140257548D01*
X261785476Y-140271524D01*
X261799452Y-140288555D01*
X261809840Y-140307991D01*
X261816236Y-140329072D01*
X261819000Y-140357140D01*
X261819000Y-140820860D01*
X261816236Y-140848928D01*
X261809840Y-140870009D01*
X261799452Y-140889445D01*
X261785476Y-140906476D01*
X261768445Y-140920452D01*
X261749009Y-140930840D01*
X261727928Y-140937236D01*
X261699860Y-140940000D01*
X259886140Y-140940000D01*
X259858072Y-140937236D01*
X259836991Y-140930840D01*
X259817555Y-140920452D01*
X259800524Y-140906476D01*
X259786548Y-140889445D01*
X259776160Y-140870009D01*
X259769764Y-140848928D01*
X259767000Y-140820860D01*
X259767000Y-140357140D01*
X259769764Y-140329072D01*
X259776160Y-140307991D01*
X259786548Y-140288555D01*
X259800524Y-140271524D01*
X259817555Y-140257548D01*
X259836991Y-140247160D01*
X259858072Y-140240764D01*
X259886140Y-140238000D01*
X261699860Y-140238000D01*
X261727928Y-140240764D01*
G37*
G36*
X256777928Y-140240764D02*
G01*
X256799009Y-140247160D01*
X256818445Y-140257548D01*
X256835476Y-140271524D01*
X256849452Y-140288555D01*
X256859840Y-140307991D01*
X256866236Y-140329072D01*
X256869000Y-140357140D01*
X256869000Y-140820860D01*
X256866236Y-140848928D01*
X256859840Y-140870009D01*
X256849452Y-140889445D01*
X256835476Y-140906476D01*
X256818445Y-140920452D01*
X256799009Y-140930840D01*
X256777928Y-140937236D01*
X256749860Y-140940000D01*
X254936140Y-140940000D01*
X254908072Y-140937236D01*
X254886991Y-140930840D01*
X254867555Y-140920452D01*
X254850524Y-140906476D01*
X254836548Y-140889445D01*
X254826160Y-140870009D01*
X254819764Y-140848928D01*
X254817000Y-140820860D01*
X254817000Y-140357140D01*
X254819764Y-140329072D01*
X254826160Y-140307991D01*
X254836548Y-140288555D01*
X254850524Y-140271524D01*
X254867555Y-140257548D01*
X254886991Y-140247160D01*
X254908072Y-140240764D01*
X254936140Y-140238000D01*
X256749860Y-140238000D01*
X256777928Y-140240764D01*
G37*
G36*
X267841589Y-137922876D02*
G01*
X267940893Y-137942629D01*
X268081206Y-138000748D01*
X268207484Y-138085125D01*
X268314875Y-138192516D01*
X268399252Y-138318794D01*
X268457371Y-138459107D01*
X268457371Y-138459109D01*
X268480299Y-138574372D01*
X268487000Y-138608063D01*
X268487000Y-138759937D01*
X268457371Y-138908893D01*
X268399252Y-139049206D01*
X268314875Y-139175484D01*
X268207484Y-139282875D01*
X268081206Y-139367252D01*
X267940893Y-139425371D01*
X267841589Y-139445124D01*
X267791938Y-139455000D01*
X267640062Y-139455000D01*
X267590411Y-139445124D01*
X267491107Y-139425371D01*
X267350794Y-139367252D01*
X267224516Y-139282875D01*
X267117125Y-139175484D01*
X267032748Y-139049206D01*
X266974629Y-138908893D01*
X266945000Y-138759937D01*
X266945000Y-138608063D01*
X266951702Y-138574372D01*
X266974629Y-138459109D01*
X266974629Y-138459107D01*
X267032748Y-138318794D01*
X267117125Y-138192516D01*
X267224516Y-138085125D01*
X267350794Y-138000748D01*
X267491107Y-137942629D01*
X267590411Y-137922876D01*
X267640062Y-137913000D01*
X267791938Y-137913000D01*
X267841589Y-137922876D01*
G37*
G36*
X292225589Y-137922876D02*
G01*
X292324893Y-137942629D01*
X292465206Y-138000748D01*
X292591484Y-138085125D01*
X292698875Y-138192516D01*
X292783252Y-138318794D01*
X292841371Y-138459107D01*
X292841371Y-138459109D01*
X292864299Y-138574372D01*
X292871000Y-138608063D01*
X292871000Y-138759937D01*
X292841371Y-138908893D01*
X292783252Y-139049206D01*
X292698875Y-139175484D01*
X292591484Y-139282875D01*
X292465206Y-139367252D01*
X292324893Y-139425371D01*
X292225589Y-139445124D01*
X292175938Y-139455000D01*
X292024062Y-139455000D01*
X291974411Y-139445124D01*
X291875107Y-139425371D01*
X291734794Y-139367252D01*
X291608516Y-139282875D01*
X291501125Y-139175484D01*
X291416748Y-139049206D01*
X291358629Y-138908893D01*
X291329000Y-138759937D01*
X291329000Y-138608063D01*
X291335702Y-138574372D01*
X291358629Y-138459109D01*
X291358629Y-138459107D01*
X291416748Y-138318794D01*
X291501125Y-138192516D01*
X291608516Y-138085125D01*
X291734794Y-138000748D01*
X291875107Y-137942629D01*
X291974411Y-137922876D01*
X292024062Y-137913000D01*
X292175938Y-137913000D01*
X292225589Y-137922876D01*
G37*
G36*
X272921589Y-137922876D02*
G01*
X273020893Y-137942629D01*
X273161206Y-138000748D01*
X273287484Y-138085125D01*
X273394875Y-138192516D01*
X273479252Y-138318794D01*
X273537371Y-138459107D01*
X273537371Y-138459109D01*
X273560299Y-138574372D01*
X273567000Y-138608063D01*
X273567000Y-138759937D01*
X273537371Y-138908893D01*
X273479252Y-139049206D01*
X273394875Y-139175484D01*
X273287484Y-139282875D01*
X273161206Y-139367252D01*
X273020893Y-139425371D01*
X272921589Y-139445124D01*
X272871938Y-139455000D01*
X272720062Y-139455000D01*
X272670411Y-139445124D01*
X272571107Y-139425371D01*
X272430794Y-139367252D01*
X272304516Y-139282875D01*
X272197125Y-139175484D01*
X272112748Y-139049206D01*
X272054629Y-138908893D01*
X272025000Y-138759937D01*
X272025000Y-138608063D01*
X272031702Y-138574372D01*
X272054629Y-138459109D01*
X272054629Y-138459107D01*
X272112748Y-138318794D01*
X272197125Y-138192516D01*
X272304516Y-138085125D01*
X272430794Y-138000748D01*
X272571107Y-137942629D01*
X272670411Y-137922876D01*
X272720062Y-137913000D01*
X272871938Y-137913000D01*
X272921589Y-137922876D01*
G37*
G36*
X287145589Y-137922876D02*
G01*
X287244893Y-137942629D01*
X287385206Y-138000748D01*
X287511484Y-138085125D01*
X287618875Y-138192516D01*
X287703252Y-138318794D01*
X287761371Y-138459107D01*
X287761371Y-138459109D01*
X287784299Y-138574372D01*
X287791000Y-138608063D01*
X287791000Y-138759937D01*
X287761371Y-138908893D01*
X287703252Y-139049206D01*
X287618875Y-139175484D01*
X287511484Y-139282875D01*
X287385206Y-139367252D01*
X287244893Y-139425371D01*
X287145589Y-139445124D01*
X287095938Y-139455000D01*
X286944062Y-139455000D01*
X286894411Y-139445124D01*
X286795107Y-139425371D01*
X286654794Y-139367252D01*
X286528516Y-139282875D01*
X286421125Y-139175484D01*
X286336748Y-139049206D01*
X286278629Y-138908893D01*
X286249000Y-138759937D01*
X286249000Y-138608063D01*
X286255702Y-138574372D01*
X286278629Y-138459109D01*
X286278629Y-138459107D01*
X286336748Y-138318794D01*
X286421125Y-138192516D01*
X286528516Y-138085125D01*
X286654794Y-138000748D01*
X286795107Y-137942629D01*
X286894411Y-137922876D01*
X286944062Y-137913000D01*
X287095938Y-137913000D01*
X287145589Y-137922876D01*
G37*
G36*
X270381589Y-137922876D02*
G01*
X270480893Y-137942629D01*
X270621206Y-138000748D01*
X270747484Y-138085125D01*
X270854875Y-138192516D01*
X270939252Y-138318794D01*
X270997371Y-138459107D01*
X270997371Y-138459109D01*
X271020299Y-138574372D01*
X271027000Y-138608063D01*
X271027000Y-138759937D01*
X270997371Y-138908893D01*
X270939252Y-139049206D01*
X270854875Y-139175484D01*
X270747484Y-139282875D01*
X270621206Y-139367252D01*
X270480893Y-139425371D01*
X270381589Y-139445124D01*
X270331938Y-139455000D01*
X270180062Y-139455000D01*
X270130411Y-139445124D01*
X270031107Y-139425371D01*
X269890794Y-139367252D01*
X269764516Y-139282875D01*
X269657125Y-139175484D01*
X269572748Y-139049206D01*
X269514629Y-138908893D01*
X269485000Y-138759937D01*
X269485000Y-138608063D01*
X269491702Y-138574372D01*
X269514629Y-138459109D01*
X269514629Y-138459107D01*
X269572748Y-138318794D01*
X269657125Y-138192516D01*
X269764516Y-138085125D01*
X269890794Y-138000748D01*
X270031107Y-137942629D01*
X270130411Y-137922876D01*
X270180062Y-137913000D01*
X270331938Y-137913000D01*
X270381589Y-137922876D01*
G37*
G36*
X289685589Y-137922876D02*
G01*
X289784893Y-137942629D01*
X289925206Y-138000748D01*
X290051484Y-138085125D01*
X290158875Y-138192516D01*
X290243252Y-138318794D01*
X290301371Y-138459107D01*
X290301371Y-138459109D01*
X290324299Y-138574372D01*
X290331000Y-138608063D01*
X290331000Y-138759937D01*
X290301371Y-138908893D01*
X290243252Y-139049206D01*
X290158875Y-139175484D01*
X290051484Y-139282875D01*
X289925206Y-139367252D01*
X289784893Y-139425371D01*
X289685589Y-139445124D01*
X289635938Y-139455000D01*
X289484062Y-139455000D01*
X289434411Y-139445124D01*
X289335107Y-139425371D01*
X289194794Y-139367252D01*
X289068516Y-139282875D01*
X288961125Y-139175484D01*
X288876748Y-139049206D01*
X288818629Y-138908893D01*
X288789000Y-138759937D01*
X288789000Y-138608063D01*
X288795702Y-138574372D01*
X288818629Y-138459109D01*
X288818629Y-138459107D01*
X288876748Y-138318794D01*
X288961125Y-138192516D01*
X289068516Y-138085125D01*
X289194794Y-138000748D01*
X289335107Y-137942629D01*
X289434411Y-137922876D01*
X289484062Y-137913000D01*
X289635938Y-137913000D01*
X289685589Y-137922876D01*
G37*
G36*
X234436228Y-137357703D02*
G01*
X234591100Y-137421853D01*
X234730481Y-137514985D01*
X234849015Y-137633519D01*
X234942147Y-137772900D01*
X235006297Y-137927772D01*
X235039000Y-138092184D01*
X235039000Y-138259816D01*
X235006297Y-138424228D01*
X234942147Y-138579100D01*
X234849015Y-138718481D01*
X234730481Y-138837015D01*
X234591100Y-138930147D01*
X234436228Y-138994297D01*
X234271816Y-139027000D01*
X234104184Y-139027000D01*
X233939772Y-138994297D01*
X233784900Y-138930147D01*
X233645519Y-138837015D01*
X233526985Y-138718481D01*
X233433853Y-138579100D01*
X233369703Y-138424228D01*
X233337000Y-138259816D01*
X233337000Y-138092184D01*
X233369703Y-137927772D01*
X233433853Y-137772900D01*
X233526985Y-137633519D01*
X233645519Y-137514985D01*
X233784900Y-137421853D01*
X233939772Y-137357703D01*
X234104184Y-137325000D01*
X234271816Y-137325000D01*
X234436228Y-137357703D01*
G37*
G36*
X249676228Y-137357703D02*
G01*
X249831100Y-137421853D01*
X249970481Y-137514985D01*
X250089015Y-137633519D01*
X250182147Y-137772900D01*
X250246297Y-137927772D01*
X250279000Y-138092184D01*
X250279000Y-138259816D01*
X250246297Y-138424228D01*
X250182147Y-138579100D01*
X250089015Y-138718481D01*
X249970481Y-138837015D01*
X249831100Y-138930147D01*
X249676228Y-138994297D01*
X249511816Y-139027000D01*
X249344184Y-139027000D01*
X249179772Y-138994297D01*
X249024900Y-138930147D01*
X248885519Y-138837015D01*
X248766985Y-138718481D01*
X248673853Y-138579100D01*
X248609703Y-138424228D01*
X248577000Y-138259816D01*
X248577000Y-138092184D01*
X248609703Y-137927772D01*
X248673853Y-137772900D01*
X248766985Y-137633519D01*
X248885519Y-137514985D01*
X249024900Y-137421853D01*
X249179772Y-137357703D01*
X249344184Y-137325000D01*
X249511816Y-137325000D01*
X249676228Y-137357703D01*
G37*
G36*
X214283000Y-138823000D02*
G01*
X210681000Y-138823000D01*
X210681000Y-137021000D01*
X214283000Y-137021000D01*
X214283000Y-138823000D01*
G37*
G36*
X194703000Y-138823000D02*
G01*
X191101000Y-138823000D01*
X191101000Y-137021000D01*
X194703000Y-137021000D01*
X194703000Y-138823000D01*
G37*
G36*
X257503983Y-137150434D02*
G01*
X257541372Y-137161776D01*
X257575826Y-137180191D01*
X257606025Y-137204975D01*
X257630809Y-137235174D01*
X257649224Y-137269628D01*
X257660566Y-137307017D01*
X257665000Y-137352035D01*
X257665000Y-138491965D01*
X257660566Y-138536983D01*
X257649224Y-138574372D01*
X257630809Y-138608826D01*
X257606025Y-138639025D01*
X257575826Y-138663809D01*
X257541372Y-138682224D01*
X257503983Y-138693566D01*
X257458965Y-138698000D01*
X256594035Y-138698000D01*
X256549017Y-138693566D01*
X256511628Y-138682224D01*
X256477174Y-138663809D01*
X256446975Y-138639025D01*
X256422191Y-138608826D01*
X256403776Y-138574372D01*
X256392434Y-138536983D01*
X256388000Y-138491965D01*
X256388000Y-137352035D01*
X256392434Y-137307017D01*
X256403776Y-137269628D01*
X256422191Y-137235174D01*
X256446975Y-137204975D01*
X256477174Y-137180191D01*
X256511628Y-137161776D01*
X256549017Y-137150434D01*
X256594035Y-137146000D01*
X257458965Y-137146000D01*
X257503983Y-137150434D01*
G37*
G36*
X259578983Y-137150434D02*
G01*
X259616372Y-137161776D01*
X259650826Y-137180191D01*
X259681025Y-137204975D01*
X259705809Y-137235174D01*
X259724224Y-137269628D01*
X259735566Y-137307017D01*
X259740000Y-137352035D01*
X259740000Y-138491965D01*
X259735566Y-138536983D01*
X259724224Y-138574372D01*
X259705809Y-138608826D01*
X259681025Y-138639025D01*
X259650826Y-138663809D01*
X259616372Y-138682224D01*
X259578983Y-138693566D01*
X259533965Y-138698000D01*
X258669035Y-138698000D01*
X258624017Y-138693566D01*
X258586628Y-138682224D01*
X258552174Y-138663809D01*
X258521975Y-138639025D01*
X258497191Y-138608826D01*
X258478776Y-138574372D01*
X258467434Y-138536983D01*
X258463000Y-138491965D01*
X258463000Y-137352035D01*
X258467434Y-137307017D01*
X258478776Y-137269628D01*
X258497191Y-137235174D01*
X258521975Y-137204975D01*
X258552174Y-137180191D01*
X258586628Y-137161776D01*
X258624017Y-137150434D01*
X258669035Y-137146000D01*
X259533965Y-137146000D01*
X259578983Y-137150434D01*
G37*
G36*
X249676228Y-134817703D02*
G01*
X249831100Y-134881853D01*
X249970481Y-134974985D01*
X250089015Y-135093519D01*
X250182147Y-135232900D01*
X250246297Y-135387772D01*
X250279000Y-135552184D01*
X250279000Y-135719816D01*
X250246297Y-135884228D01*
X250182147Y-136039100D01*
X250089015Y-136178481D01*
X249970481Y-136297015D01*
X249831100Y-136390147D01*
X249676228Y-136454297D01*
X249511816Y-136487000D01*
X249344184Y-136487000D01*
X249179772Y-136454297D01*
X249024900Y-136390147D01*
X248885519Y-136297015D01*
X248766985Y-136178481D01*
X248673853Y-136039100D01*
X248609703Y-135884228D01*
X248577000Y-135719816D01*
X248577000Y-135552184D01*
X248609703Y-135387772D01*
X248673853Y-135232900D01*
X248766985Y-135093519D01*
X248885519Y-134974985D01*
X249024900Y-134881853D01*
X249179772Y-134817703D01*
X249344184Y-134785000D01*
X249511816Y-134785000D01*
X249676228Y-134817703D01*
G37*
G36*
X234436228Y-134817703D02*
G01*
X234591100Y-134881853D01*
X234730481Y-134974985D01*
X234849015Y-135093519D01*
X234942147Y-135232900D01*
X235006297Y-135387772D01*
X235039000Y-135552184D01*
X235039000Y-135719816D01*
X235006297Y-135884228D01*
X234942147Y-136039100D01*
X234849015Y-136178481D01*
X234730481Y-136297015D01*
X234591100Y-136390147D01*
X234436228Y-136454297D01*
X234271816Y-136487000D01*
X234104184Y-136487000D01*
X233939772Y-136454297D01*
X233784900Y-136390147D01*
X233645519Y-136297015D01*
X233526985Y-136178481D01*
X233433853Y-136039100D01*
X233369703Y-135884228D01*
X233337000Y-135719816D01*
X233337000Y-135552184D01*
X233369703Y-135387772D01*
X233433853Y-135232900D01*
X233526985Y-135093519D01*
X233645519Y-134974985D01*
X233784900Y-134881853D01*
X233939772Y-134817703D01*
X234104184Y-134785000D01*
X234271816Y-134785000D01*
X234436228Y-134817703D01*
G37*
G36*
X214283000Y-136283000D02*
G01*
X210681000Y-136283000D01*
X210681000Y-134481000D01*
X214283000Y-134481000D01*
X214283000Y-136283000D01*
G37*
G36*
X194703000Y-136283000D02*
G01*
X191101000Y-136283000D01*
X191101000Y-134481000D01*
X194703000Y-134481000D01*
X194703000Y-136283000D01*
G37*
G36*
X249676228Y-132277703D02*
G01*
X249831100Y-132341853D01*
X249970481Y-132434985D01*
X250089015Y-132553519D01*
X250182147Y-132692900D01*
X250246297Y-132847772D01*
X250279000Y-133012184D01*
X250279000Y-133179816D01*
X250246297Y-133344228D01*
X250182147Y-133499100D01*
X250089015Y-133638481D01*
X249970481Y-133757015D01*
X249831100Y-133850147D01*
X249676228Y-133914297D01*
X249511816Y-133947000D01*
X249344184Y-133947000D01*
X249179772Y-133914297D01*
X249024900Y-133850147D01*
X248885519Y-133757015D01*
X248766985Y-133638481D01*
X248673853Y-133499100D01*
X248609703Y-133344228D01*
X248577000Y-133179816D01*
X248577000Y-133012184D01*
X248609703Y-132847772D01*
X248673853Y-132692900D01*
X248766985Y-132553519D01*
X248885519Y-132434985D01*
X249024900Y-132341853D01*
X249179772Y-132277703D01*
X249344184Y-132245000D01*
X249511816Y-132245000D01*
X249676228Y-132277703D01*
G37*
G36*
X234436228Y-132277703D02*
G01*
X234591100Y-132341853D01*
X234730481Y-132434985D01*
X234849015Y-132553519D01*
X234942147Y-132692900D01*
X235006297Y-132847772D01*
X235039000Y-133012184D01*
X235039000Y-133179816D01*
X235006297Y-133344228D01*
X234942147Y-133499100D01*
X234849015Y-133638481D01*
X234730481Y-133757015D01*
X234591100Y-133850147D01*
X234436228Y-133914297D01*
X234271816Y-133947000D01*
X234104184Y-133947000D01*
X233939772Y-133914297D01*
X233784900Y-133850147D01*
X233645519Y-133757015D01*
X233526985Y-133638481D01*
X233433853Y-133499100D01*
X233369703Y-133344228D01*
X233337000Y-133179816D01*
X233337000Y-133012184D01*
X233369703Y-132847772D01*
X233433853Y-132692900D01*
X233526985Y-132553519D01*
X233645519Y-132434985D01*
X233784900Y-132341853D01*
X233939772Y-132277703D01*
X234104184Y-132245000D01*
X234271816Y-132245000D01*
X234436228Y-132277703D01*
G37*
G36*
X214283000Y-133743000D02*
G01*
X210681000Y-133743000D01*
X210681000Y-131941000D01*
X214283000Y-131941000D01*
X214283000Y-133743000D01*
G37*
G36*
X194703000Y-133743000D02*
G01*
X191101000Y-133743000D01*
X191101000Y-131941000D01*
X194703000Y-131941000D01*
X194703000Y-133743000D01*
G37*
G36*
X186295512Y-131437927D02*
G01*
X186444812Y-131467624D01*
X186608784Y-131535544D01*
X186756354Y-131634147D01*
X186881853Y-131759646D01*
X186980456Y-131907216D01*
X187048376Y-132071188D01*
X187062490Y-132142147D01*
X187082949Y-132245000D01*
X187083000Y-132245259D01*
X187083000Y-132422741D01*
X187048376Y-132596812D01*
X186980456Y-132760784D01*
X186881853Y-132908354D01*
X186756354Y-133033853D01*
X186608784Y-133132456D01*
X186444812Y-133200376D01*
X186295512Y-133230073D01*
X186270742Y-133235000D01*
X186093258Y-133235000D01*
X186068488Y-133230073D01*
X185919188Y-133200376D01*
X185755216Y-133132456D01*
X185607646Y-133033853D01*
X185482147Y-132908354D01*
X185383544Y-132760784D01*
X185315624Y-132596812D01*
X185281000Y-132422741D01*
X185281000Y-132245259D01*
X185281052Y-132245000D01*
X185301510Y-132142147D01*
X185315624Y-132071188D01*
X185383544Y-131907216D01*
X185482147Y-131759646D01*
X185607646Y-131634147D01*
X185755216Y-131535544D01*
X185919188Y-131467624D01*
X186068488Y-131437927D01*
X186093258Y-131433000D01*
X186270742Y-131433000D01*
X186295512Y-131437927D01*
G37*
G36*
X292751000Y-133215000D02*
G01*
X291449000Y-133215000D01*
X291449000Y-132213000D01*
X292751000Y-132213000D01*
X292751000Y-133215000D01*
G37*
G36*
X273447000Y-132707000D02*
G01*
X272145000Y-132707000D01*
X272145000Y-131705000D01*
X273447000Y-131705000D01*
X273447000Y-132707000D01*
G37*
G36*
X234436228Y-129737703D02*
G01*
X234591100Y-129801853D01*
X234730481Y-129894985D01*
X234849015Y-130013519D01*
X234942147Y-130152900D01*
X235006297Y-130307772D01*
X235039000Y-130472184D01*
X235039000Y-130639816D01*
X235006297Y-130804228D01*
X234942147Y-130959100D01*
X234849015Y-131098481D01*
X234730481Y-131217015D01*
X234591100Y-131310147D01*
X234436228Y-131374297D01*
X234271816Y-131407000D01*
X234104184Y-131407000D01*
X233939772Y-131374297D01*
X233784900Y-131310147D01*
X233645519Y-131217015D01*
X233526985Y-131098481D01*
X233433853Y-130959100D01*
X233369703Y-130804228D01*
X233337000Y-130639816D01*
X233337000Y-130472184D01*
X233369703Y-130307772D01*
X233433853Y-130152900D01*
X233526985Y-130013519D01*
X233645519Y-129894985D01*
X233784900Y-129801853D01*
X233939772Y-129737703D01*
X234104184Y-129705000D01*
X234271816Y-129705000D01*
X234436228Y-129737703D01*
G37*
G36*
X249676228Y-129737703D02*
G01*
X249831100Y-129801853D01*
X249970481Y-129894985D01*
X250089015Y-130013519D01*
X250182147Y-130152900D01*
X250246297Y-130307772D01*
X250279000Y-130472184D01*
X250279000Y-130639816D01*
X250246297Y-130804228D01*
X250182147Y-130959100D01*
X250089015Y-131098481D01*
X249970481Y-131217015D01*
X249831100Y-131310147D01*
X249676228Y-131374297D01*
X249511816Y-131407000D01*
X249344184Y-131407000D01*
X249179772Y-131374297D01*
X249024900Y-131310147D01*
X248885519Y-131217015D01*
X248766985Y-131098481D01*
X248673853Y-130959100D01*
X248609703Y-130804228D01*
X248577000Y-130639816D01*
X248577000Y-130472184D01*
X248609703Y-130307772D01*
X248673853Y-130152900D01*
X248766985Y-130013519D01*
X248885519Y-129894985D01*
X249024900Y-129801853D01*
X249179772Y-129737703D01*
X249344184Y-129705000D01*
X249511816Y-129705000D01*
X249676228Y-129737703D01*
G37*
G36*
X214283000Y-131203000D02*
G01*
X210681000Y-131203000D01*
X210681000Y-129401000D01*
X214283000Y-129401000D01*
X214283000Y-131203000D01*
G37*
G36*
X194703000Y-131203000D02*
G01*
X191101000Y-131203000D01*
X191101000Y-129401000D01*
X194703000Y-129401000D01*
X194703000Y-131203000D01*
G37*
G36*
X289273242Y-129682404D02*
G01*
X289310337Y-129693657D01*
X289344515Y-129711925D01*
X289374481Y-129736519D01*
X289399075Y-129766485D01*
X289417343Y-129800663D01*
X289428596Y-129837758D01*
X289433000Y-129882474D01*
X289433000Y-130975526D01*
X289428596Y-131020242D01*
X289417343Y-131057337D01*
X289399075Y-131091515D01*
X289374481Y-131121481D01*
X289344515Y-131146075D01*
X289310337Y-131164343D01*
X289273242Y-131175596D01*
X289228526Y-131180000D01*
X288335474Y-131180000D01*
X288290758Y-131175596D01*
X288253663Y-131164343D01*
X288219485Y-131146075D01*
X288189519Y-131121481D01*
X288164925Y-131091515D01*
X288146657Y-131057337D01*
X288135404Y-131020242D01*
X288131000Y-130975526D01*
X288131000Y-129882474D01*
X288135404Y-129837758D01*
X288146657Y-129800663D01*
X288164925Y-129766485D01*
X288189519Y-129736519D01*
X288219485Y-129711925D01*
X288253663Y-129693657D01*
X288290758Y-129682404D01*
X288335474Y-129678000D01*
X289228526Y-129678000D01*
X289273242Y-129682404D01*
G37*
G36*
X287273242Y-129682404D02*
G01*
X287310337Y-129693657D01*
X287344515Y-129711925D01*
X287374481Y-129736519D01*
X287399075Y-129766485D01*
X287417343Y-129800663D01*
X287428596Y-129837758D01*
X287433000Y-129882474D01*
X287433000Y-130975526D01*
X287428596Y-131020242D01*
X287417343Y-131057337D01*
X287399075Y-131091515D01*
X287374481Y-131121481D01*
X287344515Y-131146075D01*
X287310337Y-131164343D01*
X287273242Y-131175596D01*
X287228526Y-131180000D01*
X286335474Y-131180000D01*
X286290758Y-131175596D01*
X286253663Y-131164343D01*
X286219485Y-131146075D01*
X286189519Y-131121481D01*
X286164925Y-131091515D01*
X286146657Y-131057337D01*
X286135404Y-131020242D01*
X286131000Y-130975526D01*
X286131000Y-129882474D01*
X286135404Y-129837758D01*
X286146657Y-129800663D01*
X286164925Y-129766485D01*
X286189519Y-129736519D01*
X286219485Y-129711925D01*
X286253663Y-129693657D01*
X286290758Y-129682404D01*
X286335474Y-129678000D01*
X287228526Y-129678000D01*
X287273242Y-129682404D01*
G37*
G36*
X186295512Y-128897927D02*
G01*
X186444812Y-128927624D01*
X186608784Y-128995544D01*
X186756354Y-129094147D01*
X186881853Y-129219646D01*
X186980456Y-129367216D01*
X187048376Y-129531188D01*
X187077578Y-129678000D01*
X187082949Y-129705000D01*
X187083000Y-129705259D01*
X187083000Y-129882741D01*
X187048376Y-130056812D01*
X186980456Y-130220784D01*
X186881853Y-130368354D01*
X186756354Y-130493853D01*
X186608784Y-130592456D01*
X186444812Y-130660376D01*
X186295512Y-130690073D01*
X186270742Y-130695000D01*
X186093258Y-130695000D01*
X186068488Y-130690073D01*
X185919188Y-130660376D01*
X185755216Y-130592456D01*
X185607646Y-130493853D01*
X185482147Y-130368354D01*
X185383544Y-130220784D01*
X185315624Y-130056812D01*
X185281000Y-129882741D01*
X185281000Y-129705259D01*
X185281052Y-129705000D01*
X185286422Y-129678000D01*
X185315624Y-129531188D01*
X185383544Y-129367216D01*
X185482147Y-129219646D01*
X185607646Y-129094147D01*
X185755216Y-128995544D01*
X185919188Y-128927624D01*
X186068488Y-128897927D01*
X186093258Y-128893000D01*
X186270742Y-128893000D01*
X186295512Y-128897927D01*
G37*
G36*
X269842242Y-129174404D02*
G01*
X269879337Y-129185657D01*
X269913515Y-129203925D01*
X269943481Y-129228519D01*
X269968075Y-129258485D01*
X269986343Y-129292663D01*
X269997596Y-129329758D01*
X270002000Y-129374474D01*
X270002000Y-130467526D01*
X269997596Y-130512242D01*
X269986343Y-130549337D01*
X269968075Y-130583515D01*
X269943481Y-130613481D01*
X269913515Y-130638075D01*
X269879337Y-130656343D01*
X269842242Y-130667596D01*
X269797526Y-130672000D01*
X268904474Y-130672000D01*
X268859758Y-130667596D01*
X268822663Y-130656343D01*
X268788485Y-130638075D01*
X268758519Y-130613481D01*
X268733925Y-130583515D01*
X268715657Y-130549337D01*
X268704404Y-130512242D01*
X268700000Y-130467526D01*
X268700000Y-129374474D01*
X268704404Y-129329758D01*
X268715657Y-129292663D01*
X268733925Y-129258485D01*
X268758519Y-129228519D01*
X268788485Y-129203925D01*
X268822663Y-129185657D01*
X268859758Y-129174404D01*
X268904474Y-129170000D01*
X269797526Y-129170000D01*
X269842242Y-129174404D01*
G37*
G36*
X267842242Y-129174404D02*
G01*
X267879337Y-129185657D01*
X267913515Y-129203925D01*
X267943481Y-129228519D01*
X267968075Y-129258485D01*
X267986343Y-129292663D01*
X267997596Y-129329758D01*
X268002000Y-129374474D01*
X268002000Y-130467526D01*
X267997596Y-130512242D01*
X267986343Y-130549337D01*
X267968075Y-130583515D01*
X267943481Y-130613481D01*
X267913515Y-130638075D01*
X267879337Y-130656343D01*
X267842242Y-130667596D01*
X267797526Y-130672000D01*
X266904474Y-130672000D01*
X266859758Y-130667596D01*
X266822663Y-130656343D01*
X266788485Y-130638075D01*
X266758519Y-130613481D01*
X266733925Y-130583515D01*
X266715657Y-130549337D01*
X266704404Y-130512242D01*
X266700000Y-130467526D01*
X266700000Y-129374474D01*
X266704404Y-129329758D01*
X266715657Y-129292663D01*
X266733925Y-129258485D01*
X266758519Y-129228519D01*
X266788485Y-129203925D01*
X266822663Y-129185657D01*
X266859758Y-129174404D01*
X266904474Y-129170000D01*
X267797526Y-129170000D01*
X267842242Y-129174404D01*
G37*
G36*
X292751000Y-129915000D02*
G01*
X291449000Y-129915000D01*
X291449000Y-128913000D01*
X292751000Y-128913000D01*
X292751000Y-129915000D01*
G37*
G36*
X273447000Y-129407000D02*
G01*
X272145000Y-129407000D01*
X272145000Y-128405000D01*
X273447000Y-128405000D01*
X273447000Y-129407000D01*
G37*
G36*
X249676228Y-127197703D02*
G01*
X249831100Y-127261853D01*
X249970481Y-127354985D01*
X250089015Y-127473519D01*
X250182147Y-127612900D01*
X250246297Y-127767772D01*
X250279000Y-127932184D01*
X250279000Y-128099816D01*
X250246297Y-128264228D01*
X250182147Y-128419100D01*
X250089015Y-128558481D01*
X249970481Y-128677015D01*
X249831100Y-128770147D01*
X249676228Y-128834297D01*
X249511816Y-128867000D01*
X249344184Y-128867000D01*
X249179772Y-128834297D01*
X249024900Y-128770147D01*
X248885519Y-128677015D01*
X248766985Y-128558481D01*
X248673853Y-128419100D01*
X248609703Y-128264228D01*
X248577000Y-128099816D01*
X248577000Y-127932184D01*
X248609703Y-127767772D01*
X248673853Y-127612900D01*
X248766985Y-127473519D01*
X248885519Y-127354985D01*
X249024900Y-127261853D01*
X249179772Y-127197703D01*
X249344184Y-127165000D01*
X249511816Y-127165000D01*
X249676228Y-127197703D01*
G37*
G36*
X234436228Y-127197703D02*
G01*
X234591100Y-127261853D01*
X234730481Y-127354985D01*
X234849015Y-127473519D01*
X234942147Y-127612900D01*
X235006297Y-127767772D01*
X235039000Y-127932184D01*
X235039000Y-128099816D01*
X235006297Y-128264228D01*
X234942147Y-128419100D01*
X234849015Y-128558481D01*
X234730481Y-128677015D01*
X234591100Y-128770147D01*
X234436228Y-128834297D01*
X234271816Y-128867000D01*
X234104184Y-128867000D01*
X233939772Y-128834297D01*
X233784900Y-128770147D01*
X233645519Y-128677015D01*
X233526985Y-128558481D01*
X233433853Y-128419100D01*
X233369703Y-128264228D01*
X233337000Y-128099816D01*
X233337000Y-127932184D01*
X233369703Y-127767772D01*
X233433853Y-127612900D01*
X233526985Y-127473519D01*
X233645519Y-127354985D01*
X233784900Y-127261853D01*
X233939772Y-127197703D01*
X234104184Y-127165000D01*
X234271816Y-127165000D01*
X234436228Y-127197703D01*
G37*
G36*
X298048983Y-127530434D02*
G01*
X298086372Y-127541776D01*
X298120826Y-127560191D01*
X298151025Y-127584975D01*
X298175809Y-127615174D01*
X298194224Y-127649628D01*
X298205566Y-127687017D01*
X298210000Y-127732035D01*
X298210000Y-128596965D01*
X298205566Y-128641983D01*
X298194224Y-128679372D01*
X298175809Y-128713826D01*
X298151025Y-128744025D01*
X298120826Y-128768809D01*
X298086372Y-128787224D01*
X298048983Y-128798566D01*
X298003965Y-128803000D01*
X296864035Y-128803000D01*
X296819017Y-128798566D01*
X296781628Y-128787224D01*
X296747174Y-128768809D01*
X296716975Y-128744025D01*
X296692191Y-128713826D01*
X296673776Y-128679372D01*
X296662434Y-128641983D01*
X296658000Y-128596965D01*
X296658000Y-127732035D01*
X296662434Y-127687017D01*
X296673776Y-127649628D01*
X296692191Y-127615174D01*
X296716975Y-127584975D01*
X296747174Y-127560191D01*
X296781628Y-127541776D01*
X296819017Y-127530434D01*
X296864035Y-127526000D01*
X298003965Y-127526000D01*
X298048983Y-127530434D01*
G37*
G36*
X194703000Y-128663000D02*
G01*
X191101000Y-128663000D01*
X191101000Y-126861000D01*
X194703000Y-126861000D01*
X194703000Y-128663000D01*
G37*
G36*
X214283000Y-128663000D02*
G01*
X210681000Y-128663000D01*
X210681000Y-126861000D01*
X214283000Y-126861000D01*
X214283000Y-128663000D01*
G37*
G36*
X283570983Y-127276434D02*
G01*
X283608372Y-127287776D01*
X283642826Y-127306191D01*
X283673025Y-127330975D01*
X283697809Y-127361174D01*
X283716224Y-127395628D01*
X283727566Y-127433017D01*
X283732000Y-127478035D01*
X283732000Y-128342965D01*
X283727566Y-128387983D01*
X283716224Y-128425372D01*
X283697809Y-128459826D01*
X283673025Y-128490025D01*
X283642826Y-128514809D01*
X283608372Y-128533224D01*
X283570983Y-128544566D01*
X283525965Y-128549000D01*
X282386035Y-128549000D01*
X282341017Y-128544566D01*
X282303628Y-128533224D01*
X282269174Y-128514809D01*
X282238975Y-128490025D01*
X282214191Y-128459826D01*
X282195776Y-128425372D01*
X282184434Y-128387983D01*
X282180000Y-128342965D01*
X282180000Y-127478035D01*
X282184434Y-127433017D01*
X282195776Y-127395628D01*
X282214191Y-127361174D01*
X282238975Y-127330975D01*
X282269174Y-127306191D01*
X282303628Y-127287776D01*
X282341017Y-127276434D01*
X282386035Y-127272000D01*
X283525965Y-127272000D01*
X283570983Y-127276434D01*
G37*
G36*
X262869983Y-127022434D02*
G01*
X262907372Y-127033776D01*
X262941826Y-127052191D01*
X262972025Y-127076975D01*
X262996809Y-127107174D01*
X263015224Y-127141628D01*
X263026566Y-127179017D01*
X263031000Y-127224035D01*
X263031000Y-128088965D01*
X263026566Y-128133983D01*
X263015224Y-128171372D01*
X262996809Y-128205826D01*
X262972025Y-128236025D01*
X262941826Y-128260809D01*
X262907372Y-128279224D01*
X262869983Y-128290566D01*
X262824965Y-128295000D01*
X261685035Y-128295000D01*
X261640017Y-128290566D01*
X261602628Y-128279224D01*
X261568174Y-128260809D01*
X261537975Y-128236025D01*
X261513191Y-128205826D01*
X261494776Y-128171372D01*
X261483434Y-128133983D01*
X261479000Y-128088965D01*
X261479000Y-127224035D01*
X261483434Y-127179017D01*
X261494776Y-127141628D01*
X261513191Y-127107174D01*
X261537975Y-127076975D01*
X261568174Y-127052191D01*
X261602628Y-127033776D01*
X261640017Y-127022434D01*
X261685035Y-127018000D01*
X262824965Y-127018000D01*
X262869983Y-127022434D01*
G37*
G36*
X187083000Y-128155000D02*
G01*
X185281000Y-128155000D01*
X185281000Y-126353000D01*
X187083000Y-126353000D01*
X187083000Y-128155000D01*
G37*
G36*
X278236983Y-126768434D02*
G01*
X278274372Y-126779776D01*
X278308826Y-126798191D01*
X278339025Y-126822975D01*
X278363809Y-126853174D01*
X278382224Y-126887628D01*
X278393566Y-126925017D01*
X278398000Y-126970035D01*
X278398000Y-127834965D01*
X278393566Y-127879983D01*
X278382224Y-127917372D01*
X278363809Y-127951826D01*
X278339025Y-127982025D01*
X278308826Y-128006809D01*
X278274372Y-128025224D01*
X278236983Y-128036566D01*
X278191965Y-128041000D01*
X277052035Y-128041000D01*
X277007017Y-128036566D01*
X276969628Y-128025224D01*
X276935174Y-128006809D01*
X276904975Y-127982025D01*
X276880191Y-127951826D01*
X276861776Y-127917372D01*
X276850434Y-127879983D01*
X276846000Y-127834965D01*
X276846000Y-126970035D01*
X276850434Y-126925017D01*
X276861776Y-126887628D01*
X276880191Y-126853174D01*
X276904975Y-126822975D01*
X276935174Y-126798191D01*
X276969628Y-126779776D01*
X277007017Y-126768434D01*
X277052035Y-126764000D01*
X278191965Y-126764000D01*
X278236983Y-126768434D01*
G37*
G36*
X289756719Y-124947520D02*
G01*
X289936234Y-125001975D01*
X289945883Y-125004902D01*
X290016442Y-125042617D01*
X290120212Y-125098083D01*
X290273015Y-125223485D01*
X290398417Y-125376288D01*
X290491599Y-125550619D01*
X290548980Y-125739780D01*
X290563500Y-125887206D01*
X290563500Y-126080793D01*
X290548980Y-126228219D01*
X290511128Y-126353000D01*
X290491598Y-126417383D01*
X290471438Y-126455099D01*
X290398417Y-126591712D01*
X290273015Y-126744515D01*
X290120212Y-126869917D01*
X289945881Y-126963099D01*
X289756720Y-127020480D01*
X289560000Y-127039855D01*
X289363281Y-127020480D01*
X289174120Y-126963099D01*
X288999788Y-126869917D01*
X288846985Y-126744515D01*
X288721583Y-126591712D01*
X288628401Y-126417381D01*
X288571020Y-126228220D01*
X288560657Y-126123000D01*
X288556500Y-126080795D01*
X288556500Y-125887206D01*
X288571020Y-125739783D01*
X288571020Y-125739781D01*
X288628401Y-125550620D01*
X288628402Y-125550617D01*
X288700519Y-125415696D01*
X288721583Y-125376288D01*
X288846985Y-125223485D01*
X288999788Y-125098083D01*
X289174119Y-125004901D01*
X289363280Y-124947520D01*
X289560000Y-124928145D01*
X289756719Y-124947520D01*
G37*
G36*
X292296719Y-124947520D02*
G01*
X292476234Y-125001975D01*
X292485883Y-125004902D01*
X292556442Y-125042617D01*
X292660212Y-125098083D01*
X292813015Y-125223485D01*
X292938417Y-125376288D01*
X293031599Y-125550619D01*
X293088980Y-125739780D01*
X293103500Y-125887206D01*
X293103500Y-126080793D01*
X293088980Y-126228219D01*
X293051128Y-126353000D01*
X293031598Y-126417383D01*
X293011438Y-126455099D01*
X292938417Y-126591712D01*
X292813015Y-126744515D01*
X292660212Y-126869917D01*
X292485881Y-126963099D01*
X292296720Y-127020480D01*
X292100000Y-127039855D01*
X291903281Y-127020480D01*
X291714120Y-126963099D01*
X291539788Y-126869917D01*
X291386985Y-126744515D01*
X291261583Y-126591712D01*
X291168401Y-126417381D01*
X291111020Y-126228220D01*
X291100657Y-126123000D01*
X291096500Y-126080795D01*
X291096500Y-125887206D01*
X291111020Y-125739783D01*
X291111020Y-125739781D01*
X291168401Y-125550620D01*
X291168402Y-125550617D01*
X291240519Y-125415696D01*
X291261583Y-125376288D01*
X291386985Y-125223485D01*
X291539788Y-125098083D01*
X291714119Y-125004901D01*
X291903280Y-124947520D01*
X292100000Y-124928145D01*
X292296719Y-124947520D01*
G37*
G36*
X288023500Y-127035000D02*
G01*
X286016500Y-127035000D01*
X286016500Y-124933000D01*
X288023500Y-124933000D01*
X288023500Y-127035000D01*
G37*
G36*
X298048983Y-125455434D02*
G01*
X298086372Y-125466776D01*
X298120826Y-125485191D01*
X298151025Y-125509975D01*
X298175809Y-125540174D01*
X298194224Y-125574628D01*
X298205566Y-125612017D01*
X298210000Y-125657035D01*
X298210000Y-126521965D01*
X298205566Y-126566983D01*
X298194224Y-126604372D01*
X298175809Y-126638826D01*
X298151025Y-126669025D01*
X298120826Y-126693809D01*
X298086372Y-126712224D01*
X298048983Y-126723566D01*
X298003965Y-126728000D01*
X296864035Y-126728000D01*
X296819017Y-126723566D01*
X296781628Y-126712224D01*
X296747174Y-126693809D01*
X296716975Y-126669025D01*
X296692191Y-126638826D01*
X296673776Y-126604372D01*
X296662434Y-126566983D01*
X296658000Y-126521965D01*
X296658000Y-125657035D01*
X296662434Y-125612017D01*
X296673776Y-125574628D01*
X296692191Y-125540174D01*
X296716975Y-125509975D01*
X296747174Y-125485191D01*
X296781628Y-125466776D01*
X296819017Y-125455434D01*
X296864035Y-125451000D01*
X298003965Y-125451000D01*
X298048983Y-125455434D01*
G37*
G36*
X270452719Y-124439520D02*
G01*
X270641880Y-124496901D01*
X270641883Y-124496902D01*
X270734333Y-124546318D01*
X270816212Y-124590083D01*
X270969015Y-124715485D01*
X271094417Y-124868288D01*
X271187599Y-125042619D01*
X271244980Y-125231780D01*
X271259500Y-125379206D01*
X271259500Y-125572793D01*
X271244980Y-125720219D01*
X271207053Y-125845248D01*
X271187598Y-125909383D01*
X271175611Y-125931809D01*
X271094417Y-126083712D01*
X270969015Y-126236515D01*
X270816212Y-126361917D01*
X270641881Y-126455099D01*
X270452720Y-126512480D01*
X270256000Y-126531855D01*
X270059281Y-126512480D01*
X269870120Y-126455099D01*
X269695788Y-126361917D01*
X269542985Y-126236515D01*
X269417583Y-126083712D01*
X269324401Y-125909381D01*
X269267020Y-125720220D01*
X269252500Y-125572794D01*
X269252500Y-125379207D01*
X269267020Y-125231781D01*
X269324401Y-125042620D01*
X269324402Y-125042617D01*
X269382716Y-124933520D01*
X269417583Y-124868288D01*
X269542985Y-124715485D01*
X269695788Y-124590083D01*
X269870119Y-124496901D01*
X270059280Y-124439520D01*
X270256000Y-124420145D01*
X270452719Y-124439520D01*
G37*
G36*
X272992719Y-124439520D02*
G01*
X273181880Y-124496901D01*
X273181883Y-124496902D01*
X273274333Y-124546318D01*
X273356212Y-124590083D01*
X273509015Y-124715485D01*
X273634417Y-124868288D01*
X273727599Y-125042619D01*
X273784980Y-125231780D01*
X273799500Y-125379206D01*
X273799500Y-125572793D01*
X273784980Y-125720219D01*
X273747053Y-125845248D01*
X273727598Y-125909383D01*
X273715611Y-125931809D01*
X273634417Y-126083712D01*
X273509015Y-126236515D01*
X273356212Y-126361917D01*
X273181881Y-126455099D01*
X272992720Y-126512480D01*
X272796000Y-126531855D01*
X272599281Y-126512480D01*
X272410120Y-126455099D01*
X272235788Y-126361917D01*
X272082985Y-126236515D01*
X271957583Y-126083712D01*
X271864401Y-125909381D01*
X271807020Y-125720220D01*
X271792500Y-125572794D01*
X271792500Y-125379207D01*
X271807020Y-125231781D01*
X271864401Y-125042620D01*
X271864402Y-125042617D01*
X271922716Y-124933520D01*
X271957583Y-124868288D01*
X272082985Y-124715485D01*
X272235788Y-124590083D01*
X272410119Y-124496901D01*
X272599280Y-124439520D01*
X272796000Y-124420145D01*
X272992719Y-124439520D01*
G37*
G36*
X268719500Y-126527000D02*
G01*
X266712500Y-126527000D01*
X266712500Y-124425000D01*
X268719500Y-124425000D01*
X268719500Y-126527000D01*
G37*
G36*
X283570983Y-125201434D02*
G01*
X283608372Y-125212776D01*
X283642826Y-125231191D01*
X283673025Y-125255975D01*
X283697809Y-125286174D01*
X283716224Y-125320628D01*
X283727566Y-125358017D01*
X283732000Y-125403035D01*
X283732000Y-126267965D01*
X283727566Y-126312983D01*
X283716224Y-126350372D01*
X283697809Y-126384826D01*
X283673025Y-126415025D01*
X283642826Y-126439809D01*
X283608372Y-126458224D01*
X283570983Y-126469566D01*
X283525965Y-126474000D01*
X282386035Y-126474000D01*
X282341017Y-126469566D01*
X282303628Y-126458224D01*
X282269174Y-126439809D01*
X282238975Y-126415025D01*
X282214191Y-126384826D01*
X282195776Y-126350372D01*
X282184434Y-126312983D01*
X282180000Y-126267965D01*
X282180000Y-125403035D01*
X282184434Y-125358017D01*
X282195776Y-125320628D01*
X282214191Y-125286174D01*
X282238975Y-125255975D01*
X282269174Y-125231191D01*
X282303628Y-125212776D01*
X282341017Y-125201434D01*
X282386035Y-125197000D01*
X283525965Y-125197000D01*
X283570983Y-125201434D01*
G37*
G36*
X249676228Y-124657703D02*
G01*
X249831100Y-124721853D01*
X249970481Y-124814985D01*
X250089015Y-124933519D01*
X250182147Y-125072900D01*
X250246297Y-125227772D01*
X250279000Y-125392184D01*
X250279000Y-125559816D01*
X250246297Y-125724228D01*
X250182147Y-125879100D01*
X250089015Y-126018481D01*
X249970481Y-126137015D01*
X249831100Y-126230147D01*
X249676228Y-126294297D01*
X249511816Y-126327000D01*
X249344184Y-126327000D01*
X249179772Y-126294297D01*
X249024900Y-126230147D01*
X248885519Y-126137015D01*
X248766985Y-126018481D01*
X248673853Y-125879100D01*
X248609703Y-125724228D01*
X248577000Y-125559816D01*
X248577000Y-125392184D01*
X248609703Y-125227772D01*
X248673853Y-125072900D01*
X248766985Y-124933519D01*
X248885519Y-124814985D01*
X249024900Y-124721853D01*
X249179772Y-124657703D01*
X249344184Y-124625000D01*
X249511816Y-124625000D01*
X249676228Y-124657703D01*
G37*
G36*
X234436228Y-124657703D02*
G01*
X234591100Y-124721853D01*
X234730481Y-124814985D01*
X234849015Y-124933519D01*
X234942147Y-125072900D01*
X235006297Y-125227772D01*
X235039000Y-125392184D01*
X235039000Y-125559816D01*
X235006297Y-125724228D01*
X234942147Y-125879100D01*
X234849015Y-126018481D01*
X234730481Y-126137015D01*
X234591100Y-126230147D01*
X234436228Y-126294297D01*
X234271816Y-126327000D01*
X234104184Y-126327000D01*
X233939772Y-126294297D01*
X233784900Y-126230147D01*
X233645519Y-126137015D01*
X233526985Y-126018481D01*
X233433853Y-125879100D01*
X233369703Y-125724228D01*
X233337000Y-125559816D01*
X233337000Y-125392184D01*
X233369703Y-125227772D01*
X233433853Y-125072900D01*
X233526985Y-124933519D01*
X233645519Y-124814985D01*
X233784900Y-124721853D01*
X233939772Y-124657703D01*
X234104184Y-124625000D01*
X234271816Y-124625000D01*
X234436228Y-124657703D01*
G37*
G36*
X262869983Y-124947434D02*
G01*
X262907372Y-124958776D01*
X262941826Y-124977191D01*
X262972025Y-125001975D01*
X262996809Y-125032174D01*
X263015224Y-125066628D01*
X263026566Y-125104017D01*
X263031000Y-125149035D01*
X263031000Y-126013965D01*
X263026566Y-126058983D01*
X263015224Y-126096372D01*
X262996809Y-126130826D01*
X262972025Y-126161025D01*
X262941826Y-126185809D01*
X262907372Y-126204224D01*
X262869983Y-126215566D01*
X262824965Y-126220000D01*
X261685035Y-126220000D01*
X261640017Y-126215566D01*
X261602628Y-126204224D01*
X261568174Y-126185809D01*
X261537975Y-126161025D01*
X261513191Y-126130826D01*
X261494776Y-126096372D01*
X261483434Y-126058983D01*
X261479000Y-126013965D01*
X261479000Y-125149035D01*
X261483434Y-125104017D01*
X261494776Y-125066628D01*
X261513191Y-125032174D01*
X261537975Y-125001975D01*
X261568174Y-124977191D01*
X261602628Y-124958776D01*
X261640017Y-124947434D01*
X261685035Y-124943000D01*
X262824965Y-124943000D01*
X262869983Y-124947434D01*
G37*
G36*
X194703000Y-126123000D02*
G01*
X191101000Y-126123000D01*
X191101000Y-124321000D01*
X194703000Y-124321000D01*
X194703000Y-126123000D01*
G37*
G36*
X214283000Y-126123000D02*
G01*
X210681000Y-126123000D01*
X210681000Y-124321000D01*
X214283000Y-124321000D01*
X214283000Y-126123000D01*
G37*
G36*
X278236983Y-124693434D02*
G01*
X278274372Y-124704776D01*
X278308826Y-124723191D01*
X278339025Y-124747975D01*
X278363809Y-124778174D01*
X278382224Y-124812628D01*
X278393566Y-124850017D01*
X278398000Y-124895035D01*
X278398000Y-125759965D01*
X278393566Y-125804983D01*
X278382224Y-125842372D01*
X278363809Y-125876826D01*
X278339025Y-125907025D01*
X278308826Y-125931809D01*
X278274372Y-125950224D01*
X278236983Y-125961566D01*
X278191965Y-125966000D01*
X277052035Y-125966000D01*
X277007017Y-125961566D01*
X276969628Y-125950224D01*
X276935174Y-125931809D01*
X276904975Y-125907025D01*
X276880191Y-125876826D01*
X276861776Y-125842372D01*
X276850434Y-125804983D01*
X276846000Y-125759965D01*
X276846000Y-124895035D01*
X276850434Y-124850017D01*
X276861776Y-124812628D01*
X276880191Y-124778174D01*
X276904975Y-124747975D01*
X276935174Y-124723191D01*
X276969628Y-124704776D01*
X277007017Y-124693434D01*
X277052035Y-124689000D01*
X278191965Y-124689000D01*
X278236983Y-124693434D01*
G37*
G36*
X234436228Y-122117703D02*
G01*
X234591100Y-122181853D01*
X234730481Y-122274985D01*
X234849015Y-122393519D01*
X234942147Y-122532900D01*
X235006297Y-122687772D01*
X235039000Y-122852184D01*
X235039000Y-123019816D01*
X235006297Y-123184228D01*
X234942147Y-123339100D01*
X234849015Y-123478481D01*
X234730481Y-123597015D01*
X234591100Y-123690147D01*
X234436228Y-123754297D01*
X234271816Y-123787000D01*
X234104184Y-123787000D01*
X233939772Y-123754297D01*
X233784900Y-123690147D01*
X233645519Y-123597015D01*
X233526985Y-123478481D01*
X233433853Y-123339100D01*
X233369703Y-123184228D01*
X233337000Y-123019816D01*
X233337000Y-122852184D01*
X233369703Y-122687772D01*
X233433853Y-122532900D01*
X233526985Y-122393519D01*
X233645519Y-122274985D01*
X233784900Y-122181853D01*
X233939772Y-122117703D01*
X234104184Y-122085000D01*
X234271816Y-122085000D01*
X234436228Y-122117703D01*
G37*
G36*
X249676228Y-122117703D02*
G01*
X249831100Y-122181853D01*
X249970481Y-122274985D01*
X250089015Y-122393519D01*
X250182147Y-122532900D01*
X250246297Y-122687772D01*
X250279000Y-122852184D01*
X250279000Y-123019816D01*
X250246297Y-123184228D01*
X250182147Y-123339100D01*
X250089015Y-123478481D01*
X249970481Y-123597015D01*
X249831100Y-123690147D01*
X249676228Y-123754297D01*
X249511816Y-123787000D01*
X249344184Y-123787000D01*
X249179772Y-123754297D01*
X249024900Y-123690147D01*
X248885519Y-123597015D01*
X248766985Y-123478481D01*
X248673853Y-123339100D01*
X248609703Y-123184228D01*
X248577000Y-123019816D01*
X248577000Y-122852184D01*
X248609703Y-122687772D01*
X248673853Y-122532900D01*
X248766985Y-122393519D01*
X248885519Y-122274985D01*
X249024900Y-122181853D01*
X249179772Y-122117703D01*
X249344184Y-122085000D01*
X249511816Y-122085000D01*
X249676228Y-122117703D01*
G37*
G36*
X214283000Y-123583000D02*
G01*
X210681000Y-123583000D01*
X210681000Y-121781000D01*
X214283000Y-121781000D01*
X214283000Y-123583000D01*
G37*
G36*
X194703000Y-123583000D02*
G01*
X191101000Y-123583000D01*
X191101000Y-121781000D01*
X194703000Y-121781000D01*
X194703000Y-123583000D01*
G37*
G36*
X249676228Y-119577703D02*
G01*
X249831100Y-119641853D01*
X249970481Y-119734985D01*
X250089015Y-119853519D01*
X250182147Y-119992900D01*
X250246297Y-120147772D01*
X250279000Y-120312184D01*
X250279000Y-120479816D01*
X250246297Y-120644228D01*
X250182147Y-120799100D01*
X250089015Y-120938481D01*
X249970481Y-121057015D01*
X249831100Y-121150147D01*
X249676228Y-121214297D01*
X249511816Y-121247000D01*
X249344184Y-121247000D01*
X249179772Y-121214297D01*
X249024900Y-121150147D01*
X248885519Y-121057015D01*
X248766985Y-120938481D01*
X248673853Y-120799100D01*
X248609703Y-120644228D01*
X248577000Y-120479816D01*
X248577000Y-120312184D01*
X248609703Y-120147772D01*
X248673853Y-119992900D01*
X248766985Y-119853519D01*
X248885519Y-119734985D01*
X249024900Y-119641853D01*
X249179772Y-119577703D01*
X249344184Y-119545000D01*
X249511816Y-119545000D01*
X249676228Y-119577703D01*
G37*
G36*
X234436228Y-119577703D02*
G01*
X234591100Y-119641853D01*
X234730481Y-119734985D01*
X234849015Y-119853519D01*
X234942147Y-119992900D01*
X235006297Y-120147772D01*
X235039000Y-120312184D01*
X235039000Y-120479816D01*
X235006297Y-120644228D01*
X234942147Y-120799100D01*
X234849015Y-120938481D01*
X234730481Y-121057015D01*
X234591100Y-121150147D01*
X234436228Y-121214297D01*
X234271816Y-121247000D01*
X234104184Y-121247000D01*
X233939772Y-121214297D01*
X233784900Y-121150147D01*
X233645519Y-121057015D01*
X233526985Y-120938481D01*
X233433853Y-120799100D01*
X233369703Y-120644228D01*
X233337000Y-120479816D01*
X233337000Y-120312184D01*
X233369703Y-120147772D01*
X233433853Y-119992900D01*
X233526985Y-119853519D01*
X233645519Y-119734985D01*
X233784900Y-119641853D01*
X233939772Y-119577703D01*
X234104184Y-119545000D01*
X234271816Y-119545000D01*
X234436228Y-119577703D01*
G37*
G36*
X270395483Y-119497434D02*
G01*
X270432872Y-119508776D01*
X270467326Y-119527191D01*
X270497525Y-119551975D01*
X270522309Y-119582174D01*
X270540724Y-119616628D01*
X270552066Y-119654017D01*
X270556500Y-119699035D01*
X270556500Y-120838965D01*
X270552066Y-120883983D01*
X270540724Y-120921372D01*
X270522309Y-120955826D01*
X270497525Y-120986025D01*
X270467326Y-121010809D01*
X270432872Y-121029224D01*
X270395483Y-121040566D01*
X270350465Y-121045000D01*
X269485535Y-121045000D01*
X269440517Y-121040566D01*
X269403128Y-121029224D01*
X269368674Y-121010809D01*
X269338475Y-120986025D01*
X269313691Y-120955826D01*
X269295276Y-120921372D01*
X269283934Y-120883983D01*
X269279500Y-120838965D01*
X269279500Y-119699035D01*
X269283934Y-119654017D01*
X269295276Y-119616628D01*
X269313691Y-119582174D01*
X269338475Y-119551975D01*
X269368674Y-119527191D01*
X269403128Y-119508776D01*
X269440517Y-119497434D01*
X269485535Y-119493000D01*
X270350465Y-119493000D01*
X270395483Y-119497434D01*
G37*
G36*
X268320483Y-119497434D02*
G01*
X268357872Y-119508776D01*
X268392326Y-119527191D01*
X268422525Y-119551975D01*
X268447309Y-119582174D01*
X268465724Y-119616628D01*
X268477066Y-119654017D01*
X268481500Y-119699035D01*
X268481500Y-120838965D01*
X268477066Y-120883983D01*
X268465724Y-120921372D01*
X268447309Y-120955826D01*
X268422525Y-120986025D01*
X268392326Y-121010809D01*
X268357872Y-121029224D01*
X268320483Y-121040566D01*
X268275465Y-121045000D01*
X267410535Y-121045000D01*
X267365517Y-121040566D01*
X267328128Y-121029224D01*
X267293674Y-121010809D01*
X267263475Y-120986025D01*
X267238691Y-120955826D01*
X267220276Y-120921372D01*
X267208934Y-120883983D01*
X267204500Y-120838965D01*
X267204500Y-119699035D01*
X267208934Y-119654017D01*
X267220276Y-119616628D01*
X267238691Y-119582174D01*
X267263475Y-119551975D01*
X267293674Y-119527191D01*
X267328128Y-119508776D01*
X267365517Y-119497434D01*
X267410535Y-119493000D01*
X268275465Y-119493000D01*
X268320483Y-119497434D01*
G37*
G36*
X214283000Y-121043000D02*
G01*
X210681000Y-121043000D01*
X210681000Y-119241000D01*
X214283000Y-119241000D01*
X214283000Y-121043000D01*
G37*
G36*
X194703000Y-121043000D02*
G01*
X191101000Y-121043000D01*
X191101000Y-119241000D01*
X194703000Y-119241000D01*
X194703000Y-121043000D01*
G37*
G36*
X234436228Y-117037703D02*
G01*
X234591100Y-117101853D01*
X234730481Y-117194985D01*
X234849015Y-117313519D01*
X234942147Y-117452900D01*
X235006297Y-117607772D01*
X235039000Y-117772184D01*
X235039000Y-117939816D01*
X235006297Y-118104228D01*
X234942147Y-118259100D01*
X234849015Y-118398481D01*
X234730481Y-118517015D01*
X234591100Y-118610147D01*
X234436228Y-118674297D01*
X234271816Y-118707000D01*
X234104184Y-118707000D01*
X233939772Y-118674297D01*
X233784900Y-118610147D01*
X233645519Y-118517015D01*
X233526985Y-118398481D01*
X233433853Y-118259100D01*
X233369703Y-118104228D01*
X233337000Y-117939816D01*
X233337000Y-117772184D01*
X233369703Y-117607772D01*
X233433853Y-117452900D01*
X233526985Y-117313519D01*
X233645519Y-117194985D01*
X233784900Y-117101853D01*
X233939772Y-117037703D01*
X234104184Y-117005000D01*
X234271816Y-117005000D01*
X234436228Y-117037703D01*
G37*
G36*
X249676228Y-117037703D02*
G01*
X249831100Y-117101853D01*
X249970481Y-117194985D01*
X250089015Y-117313519D01*
X250182147Y-117452900D01*
X250246297Y-117607772D01*
X250279000Y-117772184D01*
X250279000Y-117939816D01*
X250246297Y-118104228D01*
X250182147Y-118259100D01*
X250089015Y-118398481D01*
X249970481Y-118517015D01*
X249831100Y-118610147D01*
X249676228Y-118674297D01*
X249511816Y-118707000D01*
X249344184Y-118707000D01*
X249179772Y-118674297D01*
X249024900Y-118610147D01*
X248885519Y-118517015D01*
X248766985Y-118398481D01*
X248673853Y-118259100D01*
X248609703Y-118104228D01*
X248577000Y-117939816D01*
X248577000Y-117772184D01*
X248609703Y-117607772D01*
X248673853Y-117452900D01*
X248766985Y-117313519D01*
X248885519Y-117194985D01*
X249024900Y-117101853D01*
X249179772Y-117037703D01*
X249344184Y-117005000D01*
X249511816Y-117005000D01*
X249676228Y-117037703D01*
G37*
G36*
X194703000Y-118503000D02*
G01*
X191101000Y-118503000D01*
X191101000Y-116701000D01*
X194703000Y-116701000D01*
X194703000Y-118503000D01*
G37*
G36*
X214283000Y-118503000D02*
G01*
X210681000Y-118503000D01*
X210681000Y-116701000D01*
X214283000Y-116701000D01*
X214283000Y-118503000D01*
G37*
G36*
X249676228Y-114497703D02*
G01*
X249831100Y-114561853D01*
X249970481Y-114654985D01*
X250089015Y-114773519D01*
X250182147Y-114912900D01*
X250246297Y-115067772D01*
X250279000Y-115232184D01*
X250279000Y-115399816D01*
X250246297Y-115564228D01*
X250182147Y-115719100D01*
X250089015Y-115858481D01*
X249970481Y-115977015D01*
X249831100Y-116070147D01*
X249676228Y-116134297D01*
X249511816Y-116167000D01*
X249344184Y-116167000D01*
X249179772Y-116134297D01*
X249024900Y-116070147D01*
X248885519Y-115977015D01*
X248766985Y-115858481D01*
X248673853Y-115719100D01*
X248609703Y-115564228D01*
X248577000Y-115399816D01*
X248577000Y-115232184D01*
X248609703Y-115067772D01*
X248673853Y-114912900D01*
X248766985Y-114773519D01*
X248885519Y-114654985D01*
X249024900Y-114561853D01*
X249179772Y-114497703D01*
X249344184Y-114465000D01*
X249511816Y-114465000D01*
X249676228Y-114497703D01*
G37*
G36*
X234436228Y-114497703D02*
G01*
X234591100Y-114561853D01*
X234730481Y-114654985D01*
X234849015Y-114773519D01*
X234942147Y-114912900D01*
X235006297Y-115067772D01*
X235039000Y-115232184D01*
X235039000Y-115399816D01*
X235006297Y-115564228D01*
X234942147Y-115719100D01*
X234849015Y-115858481D01*
X234730481Y-115977015D01*
X234591100Y-116070147D01*
X234436228Y-116134297D01*
X234271816Y-116167000D01*
X234104184Y-116167000D01*
X233939772Y-116134297D01*
X233784900Y-116070147D01*
X233645519Y-115977015D01*
X233526985Y-115858481D01*
X233433853Y-115719100D01*
X233369703Y-115564228D01*
X233337000Y-115399816D01*
X233337000Y-115232184D01*
X233369703Y-115067772D01*
X233433853Y-114912900D01*
X233526985Y-114773519D01*
X233645519Y-114654985D01*
X233784900Y-114561853D01*
X233939772Y-114497703D01*
X234104184Y-114465000D01*
X234271816Y-114465000D01*
X234436228Y-114497703D01*
G37*
G36*
X194703000Y-115963000D02*
G01*
X191101000Y-115963000D01*
X191101000Y-114161000D01*
X194703000Y-114161000D01*
X194703000Y-115963000D01*
G37*
G36*
X214283000Y-115963000D02*
G01*
X210681000Y-115963000D01*
X210681000Y-114161000D01*
X214283000Y-114161000D01*
X214283000Y-115963000D01*
G37*
G36*
X234436228Y-111957703D02*
G01*
X234591100Y-112021853D01*
X234730481Y-112114985D01*
X234849015Y-112233519D01*
X234942147Y-112372900D01*
X235006297Y-112527772D01*
X235039000Y-112692184D01*
X235039000Y-112859816D01*
X235006297Y-113024228D01*
X234942147Y-113179100D01*
X234849015Y-113318481D01*
X234730481Y-113437015D01*
X234591100Y-113530147D01*
X234436228Y-113594297D01*
X234271816Y-113627000D01*
X234104184Y-113627000D01*
X233939772Y-113594297D01*
X233784900Y-113530147D01*
X233645519Y-113437015D01*
X233526985Y-113318481D01*
X233433853Y-113179100D01*
X233369703Y-113024228D01*
X233337000Y-112859816D01*
X233337000Y-112692184D01*
X233369703Y-112527772D01*
X233433853Y-112372900D01*
X233526985Y-112233519D01*
X233645519Y-112114985D01*
X233784900Y-112021853D01*
X233939772Y-111957703D01*
X234104184Y-111925000D01*
X234271816Y-111925000D01*
X234436228Y-111957703D01*
G37*
G36*
X249676228Y-111957703D02*
G01*
X249831100Y-112021853D01*
X249970481Y-112114985D01*
X250089015Y-112233519D01*
X250182147Y-112372900D01*
X250246297Y-112527772D01*
X250279000Y-112692184D01*
X250279000Y-112859816D01*
X250246297Y-113024228D01*
X250182147Y-113179100D01*
X250089015Y-113318481D01*
X249970481Y-113437015D01*
X249831100Y-113530147D01*
X249676228Y-113594297D01*
X249511816Y-113627000D01*
X249344184Y-113627000D01*
X249179772Y-113594297D01*
X249024900Y-113530147D01*
X248885519Y-113437015D01*
X248766985Y-113318481D01*
X248673853Y-113179100D01*
X248609703Y-113024228D01*
X248577000Y-112859816D01*
X248577000Y-112692184D01*
X248609703Y-112527772D01*
X248673853Y-112372900D01*
X248766985Y-112233519D01*
X248885519Y-112114985D01*
X249024900Y-112021853D01*
X249179772Y-111957703D01*
X249344184Y-111925000D01*
X249511816Y-111925000D01*
X249676228Y-111957703D01*
G37*
G36*
X194703000Y-113423000D02*
G01*
X191101000Y-113423000D01*
X191101000Y-111621000D01*
X194703000Y-111621000D01*
X194703000Y-113423000D01*
G37*
G36*
X214283000Y-113423000D02*
G01*
X210681000Y-113423000D01*
X210681000Y-111621000D01*
X214283000Y-111621000D01*
X214283000Y-113423000D01*
G37*
G36*
X279513512Y-109593927D02*
G01*
X279662812Y-109623624D01*
X279826784Y-109691544D01*
X279974354Y-109790147D01*
X280099853Y-109915646D01*
X280198456Y-110063216D01*
X280266376Y-110227188D01*
X280301000Y-110401259D01*
X280301000Y-110578741D01*
X280266376Y-110752812D01*
X280198456Y-110916784D01*
X280099853Y-111064354D01*
X279974354Y-111189853D01*
X279826784Y-111288456D01*
X279662812Y-111356376D01*
X279513512Y-111386073D01*
X279488742Y-111391000D01*
X279311258Y-111391000D01*
X279286488Y-111386073D01*
X279137188Y-111356376D01*
X278973216Y-111288456D01*
X278825646Y-111189853D01*
X278700147Y-111064354D01*
X278601544Y-110916784D01*
X278533624Y-110752812D01*
X278499000Y-110578741D01*
X278499000Y-110401259D01*
X278533624Y-110227188D01*
X278601544Y-110063216D01*
X278700147Y-109915646D01*
X278825646Y-109790147D01*
X278973216Y-109691544D01*
X279137188Y-109623624D01*
X279286488Y-109593927D01*
X279311258Y-109589000D01*
X279488742Y-109589000D01*
X279513512Y-109593927D01*
G37*
G36*
X249676228Y-109417703D02*
G01*
X249831100Y-109481853D01*
X249970481Y-109574985D01*
X250089015Y-109693519D01*
X250182147Y-109832900D01*
X250246297Y-109987772D01*
X250279000Y-110152184D01*
X250279000Y-110319816D01*
X250246297Y-110484228D01*
X250182147Y-110639100D01*
X250089015Y-110778481D01*
X249970481Y-110897015D01*
X249831100Y-110990147D01*
X249676228Y-111054297D01*
X249511816Y-111087000D01*
X249344184Y-111087000D01*
X249179772Y-111054297D01*
X249024900Y-110990147D01*
X248885519Y-110897015D01*
X248766985Y-110778481D01*
X248673853Y-110639100D01*
X248609703Y-110484228D01*
X248577000Y-110319816D01*
X248577000Y-110152184D01*
X248609703Y-109987772D01*
X248673853Y-109832900D01*
X248766985Y-109693519D01*
X248885519Y-109574985D01*
X249024900Y-109481853D01*
X249179772Y-109417703D01*
X249344184Y-109385000D01*
X249511816Y-109385000D01*
X249676228Y-109417703D01*
G37*
G36*
X234436228Y-109417703D02*
G01*
X234591100Y-109481853D01*
X234730481Y-109574985D01*
X234849015Y-109693519D01*
X234942147Y-109832900D01*
X235006297Y-109987772D01*
X235039000Y-110152184D01*
X235039000Y-110319816D01*
X235006297Y-110484228D01*
X234942147Y-110639100D01*
X234849015Y-110778481D01*
X234730481Y-110897015D01*
X234591100Y-110990147D01*
X234436228Y-111054297D01*
X234271816Y-111087000D01*
X234104184Y-111087000D01*
X233939772Y-111054297D01*
X233784900Y-110990147D01*
X233645519Y-110897015D01*
X233526985Y-110778481D01*
X233433853Y-110639100D01*
X233369703Y-110484228D01*
X233337000Y-110319816D01*
X233337000Y-110152184D01*
X233369703Y-109987772D01*
X233433853Y-109832900D01*
X233526985Y-109693519D01*
X233645519Y-109574985D01*
X233784900Y-109481853D01*
X233939772Y-109417703D01*
X234104184Y-109385000D01*
X234271816Y-109385000D01*
X234436228Y-109417703D01*
G37*
G36*
X194703000Y-110883000D02*
G01*
X191101000Y-110883000D01*
X191101000Y-109081000D01*
X194703000Y-109081000D01*
X194703000Y-110883000D01*
G37*
G36*
X214283000Y-110883000D02*
G01*
X210681000Y-110883000D01*
X210681000Y-109081000D01*
X214283000Y-109081000D01*
X214283000Y-110883000D01*
G37*
G36*
X279513512Y-107053927D02*
G01*
X279662812Y-107083624D01*
X279826784Y-107151544D01*
X279974354Y-107250147D01*
X280099853Y-107375646D01*
X280198456Y-107523216D01*
X280266376Y-107687188D01*
X280301000Y-107861259D01*
X280301000Y-108038741D01*
X280266376Y-108212812D01*
X280198456Y-108376784D01*
X280099853Y-108524354D01*
X279974354Y-108649853D01*
X279826784Y-108748456D01*
X279662812Y-108816376D01*
X279513512Y-108846073D01*
X279488742Y-108851000D01*
X279311258Y-108851000D01*
X279286488Y-108846073D01*
X279137188Y-108816376D01*
X278973216Y-108748456D01*
X278825646Y-108649853D01*
X278700147Y-108524354D01*
X278601544Y-108376784D01*
X278533624Y-108212812D01*
X278499000Y-108038741D01*
X278499000Y-107861259D01*
X278533624Y-107687188D01*
X278601544Y-107523216D01*
X278700147Y-107375646D01*
X278825646Y-107250147D01*
X278973216Y-107151544D01*
X279137188Y-107083624D01*
X279286488Y-107053927D01*
X279311258Y-107049000D01*
X279488742Y-107049000D01*
X279513512Y-107053927D01*
G37*
G36*
X249676228Y-106877703D02*
G01*
X249831100Y-106941853D01*
X249970481Y-107034985D01*
X250089015Y-107153519D01*
X250182147Y-107292900D01*
X250246297Y-107447772D01*
X250279000Y-107612184D01*
X250279000Y-107779816D01*
X250246297Y-107944228D01*
X250182147Y-108099100D01*
X250089015Y-108238481D01*
X249970481Y-108357015D01*
X249831100Y-108450147D01*
X249676228Y-108514297D01*
X249511816Y-108547000D01*
X249344184Y-108547000D01*
X249179772Y-108514297D01*
X249024900Y-108450147D01*
X248885519Y-108357015D01*
X248766985Y-108238481D01*
X248673853Y-108099100D01*
X248609703Y-107944228D01*
X248577000Y-107779816D01*
X248577000Y-107612184D01*
X248609703Y-107447772D01*
X248673853Y-107292900D01*
X248766985Y-107153519D01*
X248885519Y-107034985D01*
X249024900Y-106941853D01*
X249179772Y-106877703D01*
X249344184Y-106845000D01*
X249511816Y-106845000D01*
X249676228Y-106877703D01*
G37*
G36*
X234436228Y-106877703D02*
G01*
X234591100Y-106941853D01*
X234730481Y-107034985D01*
X234849015Y-107153519D01*
X234942147Y-107292900D01*
X235006297Y-107447772D01*
X235039000Y-107612184D01*
X235039000Y-107779816D01*
X235006297Y-107944228D01*
X234942147Y-108099100D01*
X234849015Y-108238481D01*
X234730481Y-108357015D01*
X234591100Y-108450147D01*
X234436228Y-108514297D01*
X234271816Y-108547000D01*
X234104184Y-108547000D01*
X233939772Y-108514297D01*
X233784900Y-108450147D01*
X233645519Y-108357015D01*
X233526985Y-108238481D01*
X233433853Y-108099100D01*
X233369703Y-107944228D01*
X233337000Y-107779816D01*
X233337000Y-107612184D01*
X233369703Y-107447772D01*
X233433853Y-107292900D01*
X233526985Y-107153519D01*
X233645519Y-107034985D01*
X233784900Y-106941853D01*
X233939772Y-106877703D01*
X234104184Y-106845000D01*
X234271816Y-106845000D01*
X234436228Y-106877703D01*
G37*
G36*
X194703000Y-108343000D02*
G01*
X191101000Y-108343000D01*
X191101000Y-106541000D01*
X194703000Y-106541000D01*
X194703000Y-108343000D01*
G37*
G36*
X214283000Y-108343000D02*
G01*
X210681000Y-108343000D01*
X210681000Y-106541000D01*
X214283000Y-106541000D01*
X214283000Y-108343000D01*
G37*
G36*
X279513512Y-104513927D02*
G01*
X279662812Y-104543624D01*
X279826784Y-104611544D01*
X279974354Y-104710147D01*
X280099853Y-104835646D01*
X280198456Y-104983216D01*
X280266376Y-105147188D01*
X280301000Y-105321259D01*
X280301000Y-105498741D01*
X280266376Y-105672812D01*
X280198456Y-105836784D01*
X280099853Y-105984354D01*
X279974354Y-106109853D01*
X279826784Y-106208456D01*
X279662812Y-106276376D01*
X279513512Y-106306073D01*
X279488742Y-106311000D01*
X279311258Y-106311000D01*
X279286488Y-106306073D01*
X279137188Y-106276376D01*
X278973216Y-106208456D01*
X278825646Y-106109853D01*
X278700147Y-105984354D01*
X278601544Y-105836784D01*
X278533624Y-105672812D01*
X278499000Y-105498741D01*
X278499000Y-105321259D01*
X278533624Y-105147188D01*
X278601544Y-104983216D01*
X278700147Y-104835646D01*
X278825646Y-104710147D01*
X278973216Y-104611544D01*
X279137188Y-104543624D01*
X279286488Y-104513927D01*
X279311258Y-104509000D01*
X279488742Y-104509000D01*
X279513512Y-104513927D01*
G37*
G36*
X234436228Y-104337703D02*
G01*
X234591100Y-104401853D01*
X234730481Y-104494985D01*
X234849015Y-104613519D01*
X234942147Y-104752900D01*
X235006297Y-104907772D01*
X235039000Y-105072184D01*
X235039000Y-105239816D01*
X235006297Y-105404228D01*
X234942147Y-105559100D01*
X234849015Y-105698481D01*
X234730481Y-105817015D01*
X234591100Y-105910147D01*
X234436228Y-105974297D01*
X234271816Y-106007000D01*
X234104184Y-106007000D01*
X233939772Y-105974297D01*
X233784900Y-105910147D01*
X233645519Y-105817015D01*
X233526985Y-105698481D01*
X233433853Y-105559100D01*
X233369703Y-105404228D01*
X233337000Y-105239816D01*
X233337000Y-105072184D01*
X233369703Y-104907772D01*
X233433853Y-104752900D01*
X233526985Y-104613519D01*
X233645519Y-104494985D01*
X233784900Y-104401853D01*
X233939772Y-104337703D01*
X234104184Y-104305000D01*
X234271816Y-104305000D01*
X234436228Y-104337703D01*
G37*
G36*
X249676228Y-104337703D02*
G01*
X249831100Y-104401853D01*
X249970481Y-104494985D01*
X250089015Y-104613519D01*
X250182147Y-104752900D01*
X250246297Y-104907772D01*
X250279000Y-105072184D01*
X250279000Y-105239816D01*
X250246297Y-105404228D01*
X250182147Y-105559100D01*
X250089015Y-105698481D01*
X249970481Y-105817015D01*
X249831100Y-105910147D01*
X249676228Y-105974297D01*
X249511816Y-106007000D01*
X249344184Y-106007000D01*
X249179772Y-105974297D01*
X249024900Y-105910147D01*
X248885519Y-105817015D01*
X248766985Y-105698481D01*
X248673853Y-105559100D01*
X248609703Y-105404228D01*
X248577000Y-105239816D01*
X248577000Y-105072184D01*
X248609703Y-104907772D01*
X248673853Y-104752900D01*
X248766985Y-104613519D01*
X248885519Y-104494985D01*
X249024900Y-104401853D01*
X249179772Y-104337703D01*
X249344184Y-104305000D01*
X249511816Y-104305000D01*
X249676228Y-104337703D01*
G37*
G36*
X194703000Y-105803000D02*
G01*
X191101000Y-105803000D01*
X191101000Y-104001000D01*
X194703000Y-104001000D01*
X194703000Y-105803000D01*
G37*
G36*
X214283000Y-105803000D02*
G01*
X210681000Y-105803000D01*
X210681000Y-104001000D01*
X214283000Y-104001000D01*
X214283000Y-105803000D01*
G37*
G36*
X200500642Y-102211781D02*
G01*
X200646414Y-102272162D01*
X200646416Y-102272163D01*
X200777608Y-102359822D01*
X200889178Y-102471392D01*
X200929798Y-102532185D01*
X200976838Y-102602586D01*
X201037219Y-102748358D01*
X201068000Y-102903107D01*
X201068000Y-103060893D01*
X201037219Y-103215642D01*
X201011797Y-103277015D01*
X200976837Y-103361416D01*
X200889178Y-103492608D01*
X200777608Y-103604178D01*
X200646416Y-103691837D01*
X200646415Y-103691838D01*
X200646414Y-103691838D01*
X200500642Y-103752219D01*
X200345893Y-103783000D01*
X200188107Y-103783000D01*
X200033358Y-103752219D01*
X199887586Y-103691838D01*
X199887585Y-103691838D01*
X199887584Y-103691837D01*
X199756392Y-103604178D01*
X199644822Y-103492608D01*
X199557163Y-103361416D01*
X199522203Y-103277015D01*
X199496781Y-103215642D01*
X199466000Y-103060893D01*
X199466000Y-102903107D01*
X199496781Y-102748358D01*
X199557162Y-102602586D01*
X199604202Y-102532185D01*
X199644822Y-102471392D01*
X199756392Y-102359822D01*
X199887584Y-102272163D01*
X199887586Y-102272162D01*
X200033358Y-102211781D01*
X200188107Y-102181000D01*
X200345893Y-102181000D01*
X200500642Y-102211781D01*
G37*
G36*
X205350642Y-102211781D02*
G01*
X205496414Y-102272162D01*
X205496416Y-102272163D01*
X205627608Y-102359822D01*
X205739178Y-102471392D01*
X205779798Y-102532185D01*
X205826838Y-102602586D01*
X205887219Y-102748358D01*
X205918000Y-102903107D01*
X205918000Y-103060893D01*
X205887219Y-103215642D01*
X205861797Y-103277015D01*
X205826837Y-103361416D01*
X205739178Y-103492608D01*
X205627608Y-103604178D01*
X205496416Y-103691837D01*
X205496415Y-103691838D01*
X205496414Y-103691838D01*
X205350642Y-103752219D01*
X205195893Y-103783000D01*
X205038107Y-103783000D01*
X204883358Y-103752219D01*
X204737586Y-103691838D01*
X204737585Y-103691838D01*
X204737584Y-103691837D01*
X204606392Y-103604178D01*
X204494822Y-103492608D01*
X204407163Y-103361416D01*
X204372203Y-103277015D01*
X204346781Y-103215642D01*
X204316000Y-103060893D01*
X204316000Y-102903107D01*
X204346781Y-102748358D01*
X204407162Y-102602586D01*
X204454202Y-102532185D01*
X204494822Y-102471392D01*
X204606392Y-102359822D01*
X204737584Y-102272163D01*
X204737586Y-102272162D01*
X204883358Y-102211781D01*
X205038107Y-102181000D01*
X205195893Y-102181000D01*
X205350642Y-102211781D01*
G37*
G36*
X280301000Y-103771000D02*
G01*
X278499000Y-103771000D01*
X278499000Y-101969000D01*
X280301000Y-101969000D01*
X280301000Y-103771000D01*
G37*
G36*
X249676228Y-101797703D02*
G01*
X249831100Y-101861853D01*
X249970481Y-101954985D01*
X250089015Y-102073519D01*
X250182147Y-102212900D01*
X250246297Y-102367772D01*
X250279000Y-102532184D01*
X250279000Y-102699816D01*
X250246297Y-102864228D01*
X250182147Y-103019100D01*
X250089015Y-103158481D01*
X249970481Y-103277015D01*
X249831100Y-103370147D01*
X249676228Y-103434297D01*
X249511816Y-103467000D01*
X249344184Y-103467000D01*
X249179772Y-103434297D01*
X249024900Y-103370147D01*
X248885519Y-103277015D01*
X248766985Y-103158481D01*
X248673853Y-103019100D01*
X248609703Y-102864228D01*
X248577000Y-102699816D01*
X248577000Y-102532184D01*
X248609703Y-102367772D01*
X248673853Y-102212900D01*
X248766985Y-102073519D01*
X248885519Y-101954985D01*
X249024900Y-101861853D01*
X249179772Y-101797703D01*
X249344184Y-101765000D01*
X249511816Y-101765000D01*
X249676228Y-101797703D01*
G37*
G36*
X234436228Y-101797703D02*
G01*
X234591100Y-101861853D01*
X234730481Y-101954985D01*
X234849015Y-102073519D01*
X234942147Y-102212900D01*
X235006297Y-102367772D01*
X235039000Y-102532184D01*
X235039000Y-102699816D01*
X235006297Y-102864228D01*
X234942147Y-103019100D01*
X234849015Y-103158481D01*
X234730481Y-103277015D01*
X234591100Y-103370147D01*
X234436228Y-103434297D01*
X234271816Y-103467000D01*
X234104184Y-103467000D01*
X233939772Y-103434297D01*
X233784900Y-103370147D01*
X233645519Y-103277015D01*
X233526985Y-103158481D01*
X233433853Y-103019100D01*
X233369703Y-102864228D01*
X233337000Y-102699816D01*
X233337000Y-102532184D01*
X233369703Y-102367772D01*
X233433853Y-102212900D01*
X233526985Y-102073519D01*
X233645519Y-101954985D01*
X233784900Y-101861853D01*
X233939772Y-101797703D01*
X234104184Y-101765000D01*
X234271816Y-101765000D01*
X234436228Y-101797703D01*
G37*
G36*
X214283000Y-103263000D02*
G01*
X210681000Y-103263000D01*
X210681000Y-101461000D01*
X214283000Y-101461000D01*
X214283000Y-103263000D01*
G37*
G36*
X194703000Y-103263000D02*
G01*
X191101000Y-103263000D01*
X191101000Y-101461000D01*
X194703000Y-101461000D01*
X194703000Y-103263000D01*
G37*
G36*
X235039000Y-100927000D02*
G01*
X233337000Y-100927000D01*
X233337000Y-99225000D01*
X235039000Y-99225000D01*
X235039000Y-100927000D01*
G37*
G36*
X249676228Y-99257703D02*
G01*
X249831100Y-99321853D01*
X249970481Y-99414985D01*
X250089015Y-99533519D01*
X250182147Y-99672900D01*
X250246297Y-99827772D01*
X250279000Y-99992184D01*
X250279000Y-100159816D01*
X250246297Y-100324228D01*
X250182147Y-100479100D01*
X250089015Y-100618481D01*
X249970481Y-100737015D01*
X249831100Y-100830147D01*
X249676228Y-100894297D01*
X249511816Y-100927000D01*
X249344184Y-100927000D01*
X249179772Y-100894297D01*
X249024900Y-100830147D01*
X248885519Y-100737015D01*
X248766985Y-100618481D01*
X248673853Y-100479100D01*
X248609703Y-100324228D01*
X248577000Y-100159816D01*
X248577000Y-99992184D01*
X248609703Y-99827772D01*
X248673853Y-99672900D01*
X248766985Y-99533519D01*
X248885519Y-99414985D01*
X249024900Y-99321853D01*
X249179772Y-99257703D01*
X249344184Y-99225000D01*
X249511816Y-99225000D01*
X249676228Y-99257703D01*
G37*
G36*
X200244395Y-99037546D02*
G01*
X200417466Y-99109234D01*
X200494818Y-99160919D01*
X200573227Y-99213310D01*
X200705690Y-99345773D01*
X200751936Y-99414985D01*
X200809766Y-99501534D01*
X200881454Y-99674605D01*
X200918000Y-99858333D01*
X200918000Y-100045667D01*
X200881454Y-100229395D01*
X200809766Y-100402466D01*
X200809765Y-100402467D01*
X200705690Y-100558227D01*
X200573227Y-100690690D01*
X200524871Y-100723000D01*
X200417466Y-100794766D01*
X200244395Y-100866454D01*
X200060667Y-100903000D01*
X199873333Y-100903000D01*
X199689605Y-100866454D01*
X199516534Y-100794766D01*
X199409129Y-100723000D01*
X199360773Y-100690690D01*
X199228310Y-100558227D01*
X199124235Y-100402467D01*
X199124234Y-100402466D01*
X199052546Y-100229395D01*
X199016000Y-100045667D01*
X199016000Y-99858333D01*
X199052546Y-99674605D01*
X199124234Y-99501534D01*
X199182064Y-99414985D01*
X199228310Y-99345773D01*
X199360773Y-99213310D01*
X199439182Y-99160919D01*
X199516534Y-99109234D01*
X199689605Y-99037546D01*
X199873333Y-99001000D01*
X200060667Y-99001000D01*
X200244395Y-99037546D01*
G37*
G36*
X205694395Y-99037546D02*
G01*
X205867466Y-99109234D01*
X205944818Y-99160919D01*
X206023227Y-99213310D01*
X206155690Y-99345773D01*
X206201936Y-99414985D01*
X206259766Y-99501534D01*
X206331454Y-99674605D01*
X206368000Y-99858333D01*
X206368000Y-100045667D01*
X206331454Y-100229395D01*
X206259766Y-100402466D01*
X206259765Y-100402467D01*
X206155690Y-100558227D01*
X206023227Y-100690690D01*
X205974871Y-100723000D01*
X205867466Y-100794766D01*
X205694395Y-100866454D01*
X205510667Y-100903000D01*
X205323333Y-100903000D01*
X205139605Y-100866454D01*
X204966534Y-100794766D01*
X204859129Y-100723000D01*
X204810773Y-100690690D01*
X204678310Y-100558227D01*
X204574235Y-100402467D01*
X204574234Y-100402466D01*
X204502546Y-100229395D01*
X204466000Y-100045667D01*
X204466000Y-99858333D01*
X204502546Y-99674605D01*
X204574234Y-99501534D01*
X204632064Y-99414985D01*
X204678310Y-99345773D01*
X204810773Y-99213310D01*
X204889182Y-99160919D01*
X204966534Y-99109234D01*
X205139605Y-99037546D01*
X205323333Y-99001000D01*
X205510667Y-99001000D01*
X205694395Y-99037546D01*
G37*
G36*
X194703000Y-100723000D02*
G01*
X191101000Y-100723000D01*
X191101000Y-98921000D01*
X194703000Y-98921000D01*
X194703000Y-100723000D01*
G37*
G36*
X214283000Y-100723000D02*
G01*
X210681000Y-100723000D01*
X210681000Y-98921000D01*
X214283000Y-98921000D01*
X214283000Y-100723000D01*
G37*
G36*
X241226483Y-95240434D02*
G01*
X241263872Y-95251776D01*
X241298326Y-95270191D01*
X241328525Y-95294975D01*
X241353309Y-95325174D01*
X241371724Y-95359628D01*
X241383066Y-95397017D01*
X241387500Y-95442035D01*
X241387500Y-96581965D01*
X241383066Y-96626983D01*
X241371724Y-96664372D01*
X241353309Y-96698826D01*
X241328525Y-96729025D01*
X241298326Y-96753809D01*
X241263872Y-96772224D01*
X241226483Y-96783566D01*
X241181465Y-96788000D01*
X240316535Y-96788000D01*
X240271517Y-96783566D01*
X240234128Y-96772224D01*
X240199674Y-96753809D01*
X240169475Y-96729025D01*
X240144691Y-96698826D01*
X240126276Y-96664372D01*
X240114934Y-96626983D01*
X240110500Y-96581965D01*
X240110500Y-95442035D01*
X240114934Y-95397017D01*
X240126276Y-95359628D01*
X240144691Y-95325174D01*
X240169475Y-95294975D01*
X240199674Y-95270191D01*
X240234128Y-95251776D01*
X240271517Y-95240434D01*
X240316535Y-95236000D01*
X241181465Y-95236000D01*
X241226483Y-95240434D01*
G37*
G36*
X243301483Y-95240434D02*
G01*
X243338872Y-95251776D01*
X243373326Y-95270191D01*
X243403525Y-95294975D01*
X243428309Y-95325174D01*
X243446724Y-95359628D01*
X243458066Y-95397017D01*
X243462500Y-95442035D01*
X243462500Y-96581965D01*
X243458066Y-96626983D01*
X243446724Y-96664372D01*
X243428309Y-96698826D01*
X243403525Y-96729025D01*
X243373326Y-96753809D01*
X243338872Y-96772224D01*
X243301483Y-96783566D01*
X243256465Y-96788000D01*
X242391535Y-96788000D01*
X242346517Y-96783566D01*
X242309128Y-96772224D01*
X242274674Y-96753809D01*
X242244475Y-96729025D01*
X242219691Y-96698826D01*
X242201276Y-96664372D01*
X242189934Y-96626983D01*
X242185500Y-96581965D01*
X242185500Y-95442035D01*
X242189934Y-95397017D01*
X242201276Y-95359628D01*
X242219691Y-95325174D01*
X242244475Y-95294975D01*
X242274674Y-95270191D01*
X242309128Y-95251776D01*
X242346517Y-95240434D01*
X242391535Y-95236000D01*
X243256465Y-95236000D01*
X243301483Y-95240434D01*
G37*
M02*
